/* XPM */
static char *_c945f2878d24538922d508270fd3ac9fgtFuB7PX06h0xl8[] = {
/* columns rows colors chars-per-pixel */
"128 128 15 1 ",
"  c black",
". c #393931",
"X c #383738",
"o c #402230",
"O c #464646",
"+ c #484848",
"@ c gray30",
"# c gray38",
"$ c #707060",
"% c #AD5F0A",
"& c #804A2C",
"* c #FF931C",
"= c #D0A898",
"- c #C0C0C0",
"; c white",
/* pixels */
"                        ................   ...     ..      ..........   .......     .................................           ",
"                        ................   ...     ..      ..........   .......     .................................           ",
"                        ................      -----        ..........   .....  -----    .............................           ",
"        ...................++&&&&&&++.....    -----  ........$$$&&&........$$  -----    ...&&&&&...&&&&&$$$$$&&&&&&.....        ",
"        ...................++&&&&&&       -------                                 ------       &...&&&&&$$$$$&&&&&&.....        ",
"   ........&&&&&===$$&&&$$$$$$$$$$$       -------                                 ------       ====$$$$$===$$&&&===oo...        ",
"   ........&&&&&===$$&&&$$$$$$$$$$$   -------------  ++++++$$======+++++$$$==  --------------  ====$$$$$===$$&&&===oo...        ",
"   ........&&&&&===$$&&&$$$$$$$$$$$   -------------  ++++++$$======+++++$$$==  --------------  ====$$$$$===$$&&&===oo...        ",
"   ..&&&===&&===========$$$$$&&&=     --------------                          ---------------    ==$$&&&===&&$$$===$$...        ",
"   ..&&&===&&===========$$$$$&&&=     --------------                          ---------------    ==$$&&&===&&$$$===$$...        ",
"   ..&&&===&&===========$$$$$&&&=  -----------------   &+++$           +$$$   -----------------  ==$$&&&===&&$$$===$$...        ",
"   ..======$$========$$$$$$$$====  -----------------   &&&&$           +$$$   -----------------  $$$$ooo$$$$$$$$$$$oo...        ",
"   ..======$$========$$$$$$$$==  -------------------     &&$           +$     -------------------  $$ooo$$$$$$$$$$$oo...        ",
"   ..$$$&&&&&$$$$$$$$&&&$$$$$$$  -------------------     &&$           o$     -------------------  &&ooo$$$&&$$$$$$oo...        ",
"   ..$$$&&&&&$$$$$$$$&&&$$$$$$$  ---------     ----  &&&&   $$$$  &oooo  $$$$  ------     -------  &&ooo$$$&&$$$$$$oo...        ",
"   ..$$$&&&&&$$$$$$$$&&&$$$$$$$  --------- ### ----  &&&&   $$$$  &oooo  $$$$  ------ ### -------  &&ooo$$$&&$$$$$$oo...        ",
"   ..ooo$$$oo&&&&&&&&&&&&&&&&oo  --------- ##  ----  ooo&   &&&&  &oooo  oo&&  ------ ### -------  &&oooooooo&&&&&&oo...        ",
"   ..ooo$$$oo&&&&&&&&&&&&&&&&oo  --------- ## ---    ooo&                oo&&     --- ### -------  &&oooooooo&&&&&&oo...        ",
"   ..ooo$$$oo&&&&&&&&&&&&&&&&oo  --------  ## ---    ooo&                oo&&     -   ### -------  &&oooooooo&&&&&&oo...        ",
"   ..ooo$$$&&oooooooooooooooooo  -------- ###    ooooooo+++o  --  --   +oooooooooo  ##### -------  oooooooooooooooo++........   ",
"   ..ooo$$$&&oooooooooooooooooo  --------  ###   ooooooo+++o            oooooooooo  ####  -------  oooooooooooooooo++........   ",
"   .....ooooooooooooooooooooo+++&  -------    ### +oo&&&ooo                &&+    #####  ------  ++==+++$$$$$$$$$$$=====&&&..   ",
"   .....ooooooooooooooooooooo+++&  ---------  ###   o&&&o     ########            ####  -------  ++==+++$$$$$$$$$$$=====&&&..   ",
"   .....ooooooooooooooooooooo+++&&&         o  #### o&&   ####        #####    #####           $+++==+++$$$$$$$$$$$=====&&&..   ",
"........$$$$$ooo$$$&&$$$ooooo&&&ooo         $    ##    #####             ##    #####           &$$$$$$$$$$$&&$$$&&&$$===&&&..   ",
"........$$$$$ooo$$$&&$$$ooooo&&&ooo+++++&&&$$oo  #########    --  --     #########    ==$$$oo&&&$$$$$$$$$$$&&$$$&&&$$===&&&..   ",
"........$$$$$ooo$$$&&$$$ooooo&&&ooo+++++&&&$$ooo  #######     --  --   $  #######    ===$$$oo&&&$$$$$$$$$$$&&$$$&&&$$===&&&..   ",
"...$$===$$$$$&&&&&&==$$$$$$$$$$$===&&ooo===&&&&&$   ###   $$  --  --   $           &&$$$$$$ooooo$$$$$$$$&&&ooooo&&&&&$$$===..   ",
"...$$===$$$$$&&&&&&==$$$$$$$$$$$===&&ooo===&&&&&$$$    $$$$$  --  --   $&&       $$&&$$$$$$ooooo$$$$$$$$&&&ooooo&&&&&$$$===..   ",
"...==$$$&&&$$&&&ooo&&$$$&&&$$&&&&&&$$ooo$$$$$$$$&&&$$$$$$$$&           oooo&&ooo$$$&&$$$$$$$$ooo&&&oooooooo&&$$$$$$&&$$$$$$.....",
"...==$$$&&&$$&&&ooo&&$$$&&&$$&&&&&&$$ooo$$$$$$$$&&&$$$$$$$$&           oooo&&ooo$$$&&$$$$$$$$ooo&&&oooooooo&&$$$$$$&&$$$$$$.....",
"...==$$$&&&$$&&&ooo&&$$$&&&$$&&&&&&$$ooo$$$$$$$$&&&$$$$$$$$&  --  --   oooo&&ooo$$$&&$$$$$$$$ooo&&&oooooooo&&$$$$$$&&$$$$$$.....",
"...==$$$$$$&&$$$$$$oo&&&$$$$$$$$&&&$$&&&$$$&&&&&&&&$$$$$$$$&  --  --   $ooooo+++$$$$$$$$ooo$$$$$ooo$$$$$$$$&&$$$$$$$$$$$&&&oo...",
"...==$$$$$$&&$$$$$$oo&&&$$$$$$$$&&&$$&&&$$$&&&&&&&&$$$$$$     --  --     oooo+++$$$$$$$$ooo$$$$$ooo$$$$$$$$&&$$$$$$$$$$$&&&oo...",
"...==$$$$$$&&$$$$$$oo&&&$$$$$$$$&&&$$&&&$$$&&&&&&&&$$$$$$     --  --     oooo+++$$$$$$$$ooo$$$$$ooo$$$$$$$$&&$$$$$$$$$$$&&&oo...",
"...$$&&&&&&&&&&&$$$$$ooo&&&&&&&&&&&oo&&&&&&&&&&&&&&&&$$                    &&ooo&&&&&&&&ooo$$&&&ooooo$$$&&&&&&&&&&&&&&&&ooo.....",
"...$$&&&&&&&&&&&$$$$$ooo&&&&&&&&&&&oo&&&&&&&&&&&&&&&&$$                    &&ooo&&&&&&&&ooo$$&&&ooooo$$$&&&&&&&&&&&&&&&&ooo.....",
"...oo&&&&&&&&&&&$$$&&&&&&&&oo&&&&&&oo+++ooo&&&&&&&&&&&&     ****  *****    oooooooo++&&&ooo&&&&&&&&oooooooo++++++++ooooo.....   ",
"...oo&&&&&&&&&&&$$$&&&&&&&&oo&&&&&&oo+++ooo&&&&&&&&&&&&     ****  *****    oooooooo++&&&ooo&&&&&&&&oooooooo++++++++ooooo.....   ",
"...oo&&&&&&&&&&&$$$&&&&&&&&oo&&&&&&oo+++ooo&&&&&&&&&&&&     ****  *****    oooooooo++&&&ooo&&&&&&&&oooooooo++++++++ooooo.....   ",
"...ooooo&&&&&&&&&&&&&&&&&&&oooooooooooooooooooooooooooo     ****  *****    ++++++++oooooooooooooooooooooooooooooooooo+++...     ",
"...ooooo&&&&&&&&&&&&&&&&&&&oooooooooooooooooooooooooooo     ****  *****    ++++++++oooooooooooooooooooooooooooooooooo+++...     ",
"...ooooo&&&&&&&&&&&&&&&&&&&oooooooooooooooooooooooooooo     ****  *****    ++++++++oooooooooooooooooooooooooooooooooo+++...     ",
".....+++ooooooooooooooooooo++++++                                                              +ooo++++++++++&&&++++++++.....   ",
".....+++ooooooooooooooooooo++++++                                                              +ooo++++++++++&&&++++++++.....   ",
"   .....&&&oo$$$+++ooooo+++++&&    ####################  ################  ##################    ++$$$$$$$$$$$$$$$$=====&&&..   ",
"   .....&&&oo$$$+++ooooo+++++&&    ####################  ################  ##################    ++$$$$$$$$$$$$$$$$=====&&&..   ",
"   .....&&&oo$$$+++ooooo+++++&&  ######################  ################  ####################  ++$$$$$$$$$$$$$$$$=====&&&..   ",
".....===$$$$$&&&$$$$$+++ooo&&$$  ######################  ################  ####################  &&&&$$$$$$$$$$$$$$$$======..   ",
".....===$$$$$&&&$$$$$+++ooo&&$$  ######################  ################  ####################  &&&&$$$$$$$$$$$$$$$$======..   ",
".....===$$$                                                                                                          ======..   ",
"...$$===$$$                                                                                                          ===$$$..   ",
"...$$===$$$    ***  ;;;;;;   **  ##   #################  ################  ###############   ##  **   ;;;;&o  ***    ===$$$..   ",
"...==ooo$$$    ***  ;;;;;;   **  ##   #################  ################  ###############   ##  **   ;;;;o$  ***    $$$ooo..   ",
"...==ooo$$$  *****  ;;;;;;   **  ##   #################  ###           ##  ###############   ##  **   ;;;;;;  *****  $$$ooo..   ",
"...==ooo$$$  *****  ;;;;;;   **  ##   #################  ###           ##  ###############   ##  **   ;;;;;;  *****  $$$ooo..   ",
"...$$===ooo  *****           **  ##   #################  ###  ######   ##  ###############   ##  **           ***%%  ooo.....   ",
"...$$===ooo  *****           **  ##   #################  ###  ######   ##  ###############   ##  **           ***%%  ooo.....   ",
"...$$===ooo  *********  *******  ##   #################  ###  ######   ##  ###############   ##    *****  ****%%%%%  ooo.....   ",
".....ooo$$$  *********  *******  ##   #################  ###  ######   ##  ###############   ##    *****  ****%%%%%  ooo.....   ",
".....ooo$$$  *******         **  ##   #################  ###  ######   ##  ###############   ##  *****      **%%%%%  ooo.....   ",
"   ..oooooo  *******         **  ##   #################  ###  ######   ##  ###############   ##  *****      **%%%%%  &&&$$$.....",
"   ..oooooo         **  **                                                                            **  **         &&&$$$.....",
"   ..oooooo         **  **                                                                            **  **         &&&$$$.....",
"   .....ooo  *********  *******  **************************************************************  *******  *********  ======&&...",
"   .....ooo  *********  *******  **************************************************************  *******  *********  ======&&...",
"   .....ooo       ****  %%%%%%%  ************************************************************%%  *******  ****       ======&&...",
"   .....&&&       ****  %%%%%%%  ************************************************************%%  *******  ****       &&&===$$...",
"   .....&&&                      **   **    *****  ****%%   %%%%%%  %%%****  *******    **   %%                      &&&===$$...",
"   ..$$$===                      **   **    *****  ****%%   %%%%%%  %%%****  *******    **   %%                      ooo$$$oo...",
"   ..$$$===$$$$$$$$$$===&&&$$$$  **   **    *****  **%%%%   %%**%%  %%%****  *******    **   %%  &&$$+++$$$&&$$$$$$ooooo$$$oo...",
"   ..$$$===$$$$$$$$$$===&&&$$$$  **   **    *****  **%%%%   %%**%%  %%%****  *******    **   %%  &&$$+++$$$&&$$$$$$ooooo$$$oo...",
"   ..===$$$$$&&&&&&&&$$$ooooo$$  **         *****  **%%%%   %%****  *******  *******         %%  &&&&ooo+++$$&&&&&&ooooo===$$...",
"   ..===$$$$$&&&&&&&&$$$ooooo$$  **         *****  **%%%%   %%****  *******  *******         %%  &&&&ooo+++$$&&&&&&ooooo===$$...",
"                      $$ooooo$$  **         *****  ****%%   %%****  *******  *******         %%  &&&&ooo++                      ",
"                      &&$$$$$$$  **         *****  ****%%   %%****  *******  *******         %%  &&&&ooo++                      ",
"    @@@XX@@@@@@XXX    &&$$$$$$$  *****    *******  **%%%%   %%****  *******  *********    ***%%  &&&&ooo++    @@@@@@@@@@@@@@    ",
"    @@@XX@@@@@@XXX    $$&&&&&$$  *****    *******  **%%%%   %%****  *******  *********    ***%%  oooo+++++    @@@@@@@@@@@@@@    ",
"  @@@@@XX@@@@@@XXX@@  $$&&&&&$$  *****    *******  **%%**   ******  *******  *********    *****  oooo+++++  @@@@@@@@@@@@@@@@@@  ",
"  @@@@@XX@@@@@@XXX@@  $$&&&&&$$  *****    *******  **%%**   ******  *******  *********    *****  oooo+++++  @@@@@@@@@@@@@@@@@@  ",
"  @@@@@XX@@@@@@XXX@@  &&&&&&&&&  *****    *******  **%%**   ******  *******  *********    *****  oooo+++++  @@@@@@@@@@@@@@@@@@  ",
"  @@@@@@@@@@@@@@@@@@  &&&&&&&&&  *****    *******  %%%%**   ******  *******  *********    *****  oooo+++++  @@@@@@@@@@@@@@@@@@  ",
"  @@@@@@@@@@@@@@@@@@  &&&&&&&&&  *****    *******  %%%%**   ******  *******  *********    *****  oooo+++++  @@@@@@@@@@@@@@@@@@  ",
"                      ooooooooo  %%***    *******  ******   ******  *******  *********    *****  ++ooooo++                      ",
"                      ooooooooo  %%***    *******  ******   ******  *******  *********    *****  ++ooooo++                      ",
"    OOOOOOOOOOOOOO  &$$$&&&oo++  %%***    *******  ******   ******  *******  *********    *****  ++&&$$$$$$o  OOOOOOOOOOOOOO  $$",
"    OOOOOOOOOOOOOO  &$$$&&&oo++  %%***    *******  ******   ******  *******  *********    *****  ++&&$$$$$$o  OOOOOOOOOOOOOO  $$",
"                      $$&&&oo++  %%***    *******  ******   ******  *******  *********    *****  ++&&$$$$$                      ",
"                      oo$$$$$$$  %%***    *******  ******   ******  *******  *********    *****  oo$$===$$                      ",
"  @@@@@@@@@@@@@@@@@@             %%         *****  ******   ******  *******  *******         **             @@@@@@@@@@@@@@@@@@  ",
"  @@@@@@@@@@@@@@@@@@             %%         *****  ******   ******  *******  *******         **             @@@@@@@@@@@@@@@@@@  ",
"  @@@@@@@@@@@@@@@@@@             **         *****  ******   ******  *******  *******         **             @@@@@@@@@@@@@@@@@@  ",
"  @@@@@@@@@@@@@@@@@@             **         *****  ******   ******  *******  *******         **             @@@@@@@@@@@@@@@@@@  ",
"                                 **     **  *****  ******   ******  *******  %%*****  **     **                                 ",
"                                 **     **  *****  ******   ******  *******  %%*****  **     **                                 ",
"    OOOOOOOOOOOOOO               %%     **  *****  ******   ******  ***%%%%  %%*****  **     **               OOOOOOOOOOOOOO  ..",
"    OOOOOOOOOOOOOO               %%     **  *****  ******   ******  ***%%%%  %%*****  **     **               OOOOOOOOOOOOOO  ..",
"                          o&&&&  %%%%%*************%%%%%%***********%%%%%%%%%******************  ooooo                          ",
"                          o&&&&  %%%%%*************%%%%%%***********%%%%%%%%%******************  ooooo                          ",
"  @@@@@@@@@@@@@@@@@@      +++oo  %%%%%%%****%%%%%%%%%%%%%%%%%%******%%%%%%%%%******************  oo$$&      @@@@@@@@@@@@@@@@@@  ",
"  @@@@@@@@@@@@@@@@@@      +++oo  %%%%%%%****%%%%%%%%%%%%%%%%%%******%%%%%%%%%******************  oo$$&      @@@@@@@@@@@@@@@@@@  ",
"  @@@@@@@@@@@@@@@@@@      +++oo                                                                  oo&&&      @@@@@@@@@@@@@@@@@@  ",
"  @@@@@@@@@@@@@@@@@@      +++oo                                                                  oo&&&      @@@@@@@@@@@@@@@@@@  ",
"                      oo+++++oo             oooooooooooo+++oo+++ooooo+++ooo++ooooooo             oo&&&&&&&                      ",
"                      +++++oooo             ooooooooo+++&&&+++++ooo++&&&+++++ooooooo             ooooooooo                      ",
"    OOOOOOOOOOOOOO  o++++++ooooo+++           ooooooo+++&&&+++++ooo++&&&+++++ooooo           ooooooooooooooo  OOOOOOOOOOOOOO  ..",
"    OOOOOOOOOOOOOO  o++++++ooooo+++           ooooooo+++&&&+++++ooo++&&&+++++ooooo           ooooooooooooooo  OOOOOOOOOOOOOO  ..",
"                      oo$$$$$&&&+++&&o        $$+++$$$$$$$$$$$$$$$$$$$$$$$$$$&&&++        +++&&&+++++o                          ",
"                      oo$$$$$&&&+++&&o        $$+++$$$$$$$$$$$$$$$$$$$$$$$$$$&&&++        +++&&&+++++o                          ",
"  @@@@@@@@@@@@@@@@@@         $$$ooo              &&&&&&&$$$$$&&&&&&&&$$$$$$==$$              &&&$$$$$$      @@@@@@@@@@@@@@@@@@  ",
"  @@@@@@@@@@@@@@@@@@         $$$ooo              &&&&&&&$$$$$&&&&&&&&$$$$$$==$$              &&&$$$$$$      @@@@@@@@@@@@@@@@@@  ",
"  @@@@@@@@@@@@@@@@@@                             &&&&&&&$$$$$&&&&&&&&$$$$$$==$$                             @@@@@@@@@@@@@@@@@@  ",
"  @@@@@@@@@@@@@@@@@@                             &&&&&&&&&&&&&&&&&&&&&&&&&&$$$$                             @@@@@@@@@@@@@@@@@@  ",
"  @@@@@@@@@@@@@@@@@@                             &&&&&&&&&&&&&&&&&&&&&&&&&&$$$$                             @@@@@@@@@@@@@@@@@@  ",
"                                                 &&&&&&&&&&&&&&&&&&&&&&&&&&$$$$                         $$                      ",
"                                                 $$$$$$$$$$&&&&&&&&&&&&&&&&&&&&                         oo                      ",
"    OOOOOOOOOOOOOO  &$$$                      $$$$$$$$$$$$$&&&&&&&&&&&&&&&&&&&&&oo                      ooo$  OOOOOOOOOOOOOO    ",
"    OOOOOOOOOOOOOO  &ooo                      &&&&&&&&&&$$$$$&&&&&&&&&&&&&&&&+++oo                      ooo&  OOOOOOOOOOOOOO    ",
"                      oooo                  &&&&&&&&&&&&$$$$$&&&&&&&&&&&&&&&&+++ooo&                  &&oo                      ",
"                      oooo                  &&&&&&&&&&&&$$$$$&&&&&&&&&&&&&&&&+++ooo&                  &&oo                      ",
"  @@@@@@@@@@@@@@@@@@  oooooooooooooooooooooooooooooooooo+++&&oooooooo+++&&&ooooooooooooo&&&ooooo&&&&&&&&oo  @@@@@@@@@@@@@@@@@@  ",
"  @@@@@@@@@@@@@@@@@@  oooooooooooooooooooooooooooooooooo+++&&oooooooo+++&&&ooooooooooooo&&&ooooo&&&&&&&&oo  @@@@@@@@@@@@@@@@@@  ",
"  @@@@@@@@@@@@@@@@@@  oooooooooooooooooooooooooooooooooo+++&&oooooooo+++&&&ooooooooooooo&&&ooooo&&&&&&&&oo  @@@@@@@@@@@@@@@@@@  ",
"  @@@@@@@@@@@@@@@@@@  ooooooo........oooooooooooooooooooooooooooooooooooooooo...oooooooooooooooooooooooooo  @@@@@@@@@@@@@@@@@@  ",
"    @@@@@@@@@@@@@@    ooooooo........oooooooooooooooooooooooooooooooooooooooo...oooooooooooooooooooooooooo    @@@@@@@@@@@@@@    ",
"    @@@@@@@@@@@@@@    ..........   .......................................................................    @@@@@@@@@@@@@@    ",
"                      ..........   .......................................................................                      ",
"                      ..........   .......................................................................                      "
};
