/* XPM */
static char *_81d94480ef745f9e7b025aa898363c8cIUk0bgTdUefRzF7[] = {
/* columns rows colors chars-per-pixel */
"128 128 2 1 ",
"  c #464646",
". c #B4B4B4",
/* pixels */
"...........................................................  .......................................  ..........................",
"...........................................................  .......................................  ..........................",
"..................  .......................................  .......................................  ..........................",
"..................  .......................................  .......................................  ..........................",
"..................  .......................................  .......................................  ..........................",
"..................  .......................................  .......................................  ..........................",
"..................    ...................................  .........................................  ..........................",
"..................    ...................................  .........................................  ..........................",
"....................  ...................................  .........................................  ..........................",
"....................  ...................................  .........................................  ..........................",
"....................  ...................................  .........................................  ..........................",
"....................  ...................................  .........................................  ..........................",
"....................  .................................  ...........................................  ..........................",
"....................  .................................  ...........................................  ..........................",
"....................  .................................  ...........................................  ..........................",
"....................  .................................  ...........................................  ..........................",
"....................  ...............................    ...........................................  ..........................",
"....................  ...............................    ...........................................  ..........................",
"....................  ...............................  .............................................  ..........................",
"....................  ...............................  .............................................  ..........................",
"....................  ...............................  .............................................  ..........................",
"....................  ...............................  .............................................  ..........................",
"....................  ...............................  .............................................  ..........................",
"....................  ...............................  .............................................  ..........................",
"....................  ...............................  .............................................  ....                      ",
"....................  ...............................  .............................................  ....                      ",
"....................  ...............................  ..................................                 ......................",
"....................  ...............................  ..................................                 ......................",
"....................  ...............................  ..........                        ...........  ..........................",
"....................  ...............................  ..........                        ...........  ..........................",
"..............                                                   ...................................  ..........................",
"..............                                                   ...................................  ..........................",
"              ......  ...............................  .............................................  ..........................",
"              ......  ...............................  .............................................  ..........................",
"....................  ...............................  .............................................  ..........................",
"....................  ...............................  .............................................  ..........................",
"....................  ...............................  ...............................................  ........................",
"....................  ...............................  ...............................................  ........................",
"....................  .................................  .............................................  ........................",
"....................  .................................  .............................................  ........................",
"....................  .................................  .............................................  ........................",
"....................  .................................  .............................................  ........................",
"....................  .................................  .............................................  ........................",
"....................  .................................  .............................................  ........................",
"....................  ...................................  ...........................................  ........................",
"....................  ...................................  ...........................................  ........................",
"....................  ...................................  ...........................................  ........................",
"....................  ...................................  ...........................................  ........................",
"....................  ...................................  ...........................................  ........................",
"....................  ...................................  ...........................................  ........................",
"....................  ...................................  ...........................................  ........................",
"....................  ...................................  ...........................................  ........................",
"....................  .....................................  ...........................................  ......................",
"....................  .....................................  ...........................................  ......................",
"....................  .....................................  ...........................................  ......................",
"....................  .....................................  ...........................................  ......................",
"....................  .....................................  ...........................................  ......................",
"....................  .....................................  ...........................................  ......................",
"....................  .....................................  ...........................................  ......................",
"....................  .....................................  ...........................................  ......................",
"....................  .....................................  ...........................................  ......................",
"....................  .....................................  ...........................................  ......................",
"................                                     ......  ...........................................  ......................",
"................                                     ......  ...........................................  ......................",
"........        ....  ...............................              .....................................  ......................",
"........        ....  ...............................              .....................................  ......................",
"....      ..........  .......................................  ....                  .....................  ....................",
"....      ..........  .......................................  ....                  .....................  ....................",
"....................  .......................................  ......................                       ....................",
"....................  .......................................  ......................                       ....................",
"....................  .......................................  ...........................................                      ",
"....................  .......................................  ...........................................                      ",
"....................  .......................................  ...........................................  ....................",
"....................  .......................................  ...........................................  ....................",
"....................  .......................................  ...........................................  ....................",
"....................  .......................................  ...........................................  ....................",
"....................  .......................................  ...........................................  ....................",
"....................  .......................................  ...........................................  ....................",
"....................  .........................................  .........................................  ....................",
"....................  .........................................  .........................................  ....................",
"....................  .........................................  .........................................  ....................",
"....................  .........................................  .........................................  ....................",
"....................  .........................................  .......................................    ....................",
"....................  .........................................  .......................................    ....................",
"....................  .........................................  .......................................  ......................",
"....................  .........................................  .......................................  ......................",
"....................  .........................................  .......................................  ......................",
"....................  .........................................  .......................................  ......................",
"....................  ...........................................  ...................................    ......................",
"....................  ...........................................  ...................................    ......................",
"....................  ...........................................  ...................................  ........................",
"....................  ...........................................  ...................................  ........................",
"....................  ...........................................  ...................................  ........................",
"....................  ...........................................  ...................................  ........................",
"....................  ...........................................  ...................................  ........................",
"....................  ...........................................  ...................................  ........................",
"....................  ...............................                              ...................  ........................",
"....................  ...............................                              ...................  ........................",
"....................  .....................          ............  ................                     ........................",
"....................  .....................          ............  ................                     ........................",
"....................  ...........          ......................  ...................................          ................",
"....................  ...........          ......................  ...................................          ................",
"....................  ..         ................................  ...................................  ........            ....",
"....................  ..         ................................  ...................................  ........            ....",
"..............          .........................................  ..........  .......................  ....................    ",
"..............          .........................................  ..........  .......................  ....................    ",
"........      ......  ...........................................  ........  .........................  ........................",
"........      ......  ...........................................  ........  .........................  ........................",
"....    ............  ...........................................  ........  .........................  ........................",
"....    ............  ...........................................  ........  .........................  ........................",
"....  ..............  ...........................................  ....    ...........................  ........................",
"....  ..............  ...........................................  ....    ...........................  ........................",
"....................  ...........................................  ..  ...............................  ........................",
"....................  ...........................................  ..  ...............................  ........................",
"....................  ...........................................  ..  ...............................  ........................",
"....................  ...........................................  ..  ...............................  ........................",
"....................    .........................................    ...................................  ......................",
"....................    .........................................    ...................................  ......................",
"......................  .........................................    ...................................  ......................",
"......................  .........................................    ...................................  ......................",
"......................    ..............................................................................  ......................",
"......................    ..............................................................................  ......................",
"......................    ..............................................................................  ......................",
"......................    ..............................................................................  ......................",
"........................................................................................................  ......................",
"........................................................................................................  ......................",
"........................................................................................................  ......................",
"........................................................................................................  ......................"
};
