/* XPM */
static char *_b13a9ca24e34ce396750d19befaed82X6rL2xu1nAX8xWq6[] = {
/* columns rows colors chars-per-pixel */
"128 128 13 1 ",
"  c black",
". c #402230",
"X c #484848",
"o c gray38",
"O c #707060",
"+ c #AD5F0A",
"@ c #804A2C",
"# c #FF931C",
"$ c gray62",
"% c #D0A898",
"& c #B0BEC5",
"* c #C0C0C0",
"= c white",
/* pixels */
"                                                                                                                                ",
"                                                                                                                                ",
"                            XX@@@@XX          @@OO            OO@@          OO@@@@%%OOOOOO  @@@@  @@@@@@@@OOOO@@@@              ",
"                            XX@@@@XX          @@OO            OO@@          OO@@@@%%OOOOOO  @@@@  @@@@@@@@OOOO@@@@              ",
"            @@@@%%OO@@@@@@OOOOOOOOOO            %%%%XXXXXXXXOO%%%%XXXXXXXXOO%%%%%%%%OOOOOOXXOO%%%%OOOOOOOO%%OO@@%%..            ",
"            @@@@%%OO@@@@@@OOOOOOOOOO            %%%%XXXXXXXXOO%%%%XXXXXXXXOO%%%%%%%%OOOOOOXXOO%%%%OOOOOOOO%%OO@@%%..            ",
"            @@@@%%OO@@@@@@OOOOOOOOOO  ##  ++    %%%%XXXXXXXXOO%%%%XXXXXXXXOO%%%%%%%%OOOOOOXXOO%%%%OOOOOOOO%%OO@@%%..            ",
"            @@@@%%OO@@@@@@OOOOOOOOOO  ##  ++    %%%%XXXXXXXXOO%%%%XXXXXXXXOO%%%%%%%%OOOOOOXXOO%%%%OOOOOOOO%%OO@@%%..            ",
"            @@@@%%OO@@@@@@OOOOOOOOOO  ##                                    %%%%%%%%OOOOOOXXOO%%%%OOOOOOOO%%OO@@%%..            ",
"            @@@@%%OO@@@@@@OOOOOOOOOO  ##                                    %%%%%%%%OOOOOOXXOO%%%%OOOOOOOO%%OO@@%%..            ",
"    @@@@@@%%@@%%%%%%%%%%%%OOOO@@%%OO  ##    ##  ##############++##++++++++        %%%%%%%%XX..%%%%OO@@@@@@%%@@OO%%OO            ",
"    @@@@@@%%@@%%%%%%%%%%%%OOOO@@%%OO  ##    ##  ##############++##++++++++        %%%%%%%%XX..%%%%OO@@@@@@%%@@OO%%OO            ",
"    %%%%%%%%OO%%%%%%OOOOOOOOOO%%%%@@  ##    ##              ##++++++++++++######  OOOOOOOOXXOOOOOOOO......OOOOOOOO..            ",
"    %%%%%%%%OO%%%%%%OOOOOOOOOO%%%%@@  ##    ##              ##++++++++++++######  OOOOOOOOXXOOOOOOOO......OOOOOOOO..            ",
"    OOOOOO@@@@OOOOOO@@@@@@OOOOOO..OO  ##    ##  ##################++++      ####  OO@@@@@@....OO@@@@......OO@@OOOO..            ",
"    OOOOOO@@@@OOOOOO@@@@@@OOOOOO..OO  ##    ##  ##################++++      ####  OO@@@@@@....OO@@@@......OO@@OOOO..            ",
"    ......OO..@@@@@@@@@@@@@@@@..@@@@  ##    ##  ####################    ##        @@..........@@@@@@..........@@@@..            ",
"    ......OO..@@@@@@@@@@@@@@@@..@@@@  ##    ##  ####################    ##        @@..........@@@@@@..........@@@@..            ",
"    ......OO@@......................  ##    ##                        ####  ..  ..................................XX            ",
"    ......OO@@......................  ##    ##                        ####  ..  ..................................XX            ",
"          ....................XX@@..  ++++####  ##########################  @@    XX@@@@@@..XXOOXX%%XXXXXXOOOOOOOO%%%%%%%%@@    ",
"          ....................XX@@..  ++++####  ##########################  @@    XX@@@@@@..XXOOXX%%XXXXXXOOOOOOOO%%%%%%%%@@    ",
"          ....................XX@@..  ++++++##                              @@XX    @@@@@@..XXOOXX%%XXXXXXOOOOOOOO%%%%%%%%@@    ",
"          ....................XX@@..  ++++++##                              @@XX    @@@@@@..XXOOXX%%XXXXXXOOOOOOOO%%%%%%%%@@    ",
"          ....................XX@@..  ++++++++  XX..@@@@  $$$$$$$$$$  ....XX@@XX..  @@@@@@..XXOOXX%%XXXXXXOOOOOOOO%%%%%%%%@@    ",
"          ....................XX@@..  ++++++++  XX..@@@@  $$$$$$$$$$  ....XX@@XX..  @@@@@@..XXOOXX%%XXXXXXOOOOOOOO%%%%%%%%@@    ",
"          OOOO..OO@@OOOOOO....@@..XX            ..OOOOOO              OOOO@@@@@@    %%%%%%OO..@@OOOOOOOOOOOO@@OO@@OO%%%%%%@@    ",
"          OOOO..OO@@OOOOOO....@@..XX            ..OOOOOO              OOOO@@@@@@    %%%%%%OO..@@OOOOOOOOOOOO@@OO@@OO%%%%%%@@    ",
"  OO%%%%%%OOOO@@@@%%OOOOOOOOOOOO%%@@......%%@@@@OOOOOOOOOOOO  $$$$        @@XX    @@OOOOOOOO....OOOOOOOOOO@@....@@@@OOOOOO%%    ",
"  OO%%%%%%OOOO@@@@%%OOOOOOOOOOOO%%@@......%%@@@@OOOOOOOOOOOO  $$$$        @@XX    @@OOOOOOOO....OOOOOOOOOO@@....@@@@OOOOOO%%    ",
"  %%OOOOOO@@OO@@..@@OOOOOO@@OO@@@@OO......OOOOOO@@OOOOOOOO    $$    ....        OO@@OOOOOOOOOO..@@..........@@OOOO@@OOOOOOOO    ",
"  %%OOOOOO@@OO@@..@@OOOOOO@@OO@@@@OO......OOOOOO@@OOOOOOOO    $$    ....        OO@@OOOOOOOOOO..@@..........@@OOOO@@OOOOOOOO    ",
"  %%OOOOOOOO@@OOOO..@@@@@@OOOOOO@@OO@@@@@@OO@@@@@@OOOOOO    $$$$  OOOOOOOO....XXOOOOOOOOOO..OOOO..OOOOOOOOOO@@OOOOOOOOOOOO@@..  ",
"  %%OOOOOOOO@@OOOO..@@@@@@OOOOOO@@OO@@@@@@OO@@@@@@OOOOOO    $$$$  OOOOOOOO....XXOOOOOOOOOO..OOOO..OOOOOOOOOO@@OOOOOOOOOOOO@@..  ",
"  OO@@@@@@@@@@@@OOOO......@@@@@@@@..@@@@@@@@@@@@@@@@OO            OO@@@@@@..@@..@@@@@@@@@@..OO@@....OOOOOO@@@@@@@@@@@@@@@@..    ",
"  OO@@@@@@@@@@@@OOOO......@@@@@@@@..@@@@@@@@@@@@@@@@OO            OO@@@@@@..@@..@@@@@@@@@@..OO@@....OOOOOO@@@@@@@@@@@@@@@@..    ",
"  ..@@@@@@@@@@@@OO@@@@@@@@@@..@@@@..XXXXXX..@@@@@@@@@@    $$$$      ..............XX@@@@@@..@@@@@@..........XXXXXX........      ",
"  ..@@@@@@@@@@@@OO@@@@@@@@@@..@@@@..XXXXXX..@@@@@@@@@@    $$$$      ..............XX@@@@@@..@@@@@@..........XXXXXX........      ",
"  ..@@@@@@@@@@@@OO@@@@@@@@@@..@@@@..XXXXXX..@@@@@@@@@@@@    $$$$$$    ............XX@@@@@@..@@@@@@..........XXXXXX........      ",
"  ..@@@@@@@@@@@@OO@@@@@@@@@@..@@@@..XXXXXX..@@@@@@@@@@@@    $$$$$$    ............XX@@@@@@..@@@@@@..........XXXXXX........      ",
"  ..@@@@@@@@@@@@OO@@@@@@@@@@..@@@@..XXXXXX..@@@@@@@@@@@@@@    $$$$$$      ........XX@@@@@@..@@@@@@..........XXXXXX........      ",
"  ..@@@@@@@@@@@@OO@@@@@@@@@@..@@@@..XXXXXX..@@@@@@@@@@@@@@    $$$$$$      ........XX@@@@@@..@@@@@@..........XXXXXX........      ",
"  ........@@@@@@@@@@@@@@@@@@................................    $$$$$$$$      XXXX..................................XXXXXX      ",
"  ........@@@@@@@@@@@@@@@@@@................................    $$$$$$$$      XXXX..................................XXXXXX      ",
"    XXXXXX..................XXXXXXXX@@@@@@@@OOOO@@@@@@@@@@XX..      $$$$$$$$    OOOOOOOOOO@@XXXX..XXXXXXXXXXXX@@XXXXXXXXXX      ",
"    XXXXXX..................XXXXXXXX@@@@@@@@OOOO@@@@@@@@@@XX..      $$$$$$$$    OOOOOOOOOO@@XXXX..XXXXXXXXXXXX@@XXXXXXXXXX      ",
"          @@..OOXX........XXXX@@..%%%%                                                  OO@@..@@XXOOOOOOOOOOOOOOOO%%%%%%%%@@    ",
"          @@..OOXX........XXXX@@..%%%%                                                  OO@@..@@XXOOOOOOOOOOOOOOOO%%%%%%%%@@    ",
"    %%%%%%OOOO@@OOOOXXXXXX..@@OOOOOO    ####################++++++############++######    ..XXXX@@@@OOOOOOOOOOOOOOOO%%%%%%%%    ",
"    %%%%%%OOOO@@OOOOXXXXXX..@@OOOOOO    ####################++++++############++######    ..XXXX@@@@OOOOOOOOOOOOOOOO%%%%%%%%    ",
"  OO%%%%%%OOOOOOOOOO@@@@@@@@..OOOO..                                                        ....OOOO@@@@@@@@....@@@@%%%%%%OO    ",
"  OO%%%%%%OOOOOOOOOO@@@@@@@@..OOOO..                                                        ....OOOO@@@@@@@@....@@@@%%%%%%OO    ",
"  %%......OO@@@@@@@@@@@@@@..XXOOOOOO  ######++++################                  ##++++  oo  @@OO@@@@@@@@..OO@@@@@@OOOOOO..    ",
"  %%......OO@@@@@@@@@@@@@@..XXOOOOOO  ######++++################                  ##++++  oo  @@OO@@@@@@@@..OO@@@@@@OOOOOO..    ",
"  %%......OO@@@@@@@@@@@@        OOOO  ####                        $$$$$$$$$$$$$$  ##++++  oo  @@OO@@@@@@@@..OO@@@@@@OOOOOO..    ",
"  %%......OO@@@@@@@@@@@@        OOOO  ####                        $$$$$$$$$$$$$$  ##++++  oo  @@OO@@@@@@@@..OO@@@@@@OOOOOO..    ",
"  %%......OO@@@@@@@@@@@@  $$                  ====    OO==    ==  $$$$  $$$$$$$$  ##++++  oooo  OO@@@@@@@@..OO@@@@@@OOOOOO..    ",
"  %%......OO@@@@@@@@@@@@  $$                  ====    OO==    ==  $$$$  $$$$$$$$  ##++++  oooo  OO@@@@@@@@..OO@@@@@@OOOOOO..    ",
"  OO%%%%%%..OO@@@@@@....  $$                    OO==    @@==      $$$$            ++++++    oo    ........OO@@....OO......      ",
"  OO%%%%%%..OO@@@@@@....  $$                    OO==    @@==      $$$$            ++++++    oo    ........OO@@....OO......      ",
"    ......OO..@@@@......  $$$$  ..@@  ++##  ==    @@==    OO==    $$$$  $$$$$$$$  ++++++    oooo  ........................      ",
"    ......OO..@@@@......  $$$$  ..@@  ++##  ==    @@==    OO==    $$$$  $$$$$$$$  ++++++    oooo  ........................      ",
"    ................XXXX    $$    ..  ++##                        $$$$$$$$$$$$$$  ++++++  ..  oo  @@............XX@@@@@@@@OO    ",
"    ................XXXX    $$    ..  ++##                        $$$$$$$$$$$$$$  ++++++  ..  oo  @@............XX@@@@@@@@OO    ",
"          ..XXXX..XXXXXX          XX  ##########  ##########++++                  ##++++  OO  oooo  XXXXXXXX........%%%%%%%%@@  ",
"          ..XXXX..XXXXXX          XX  ##########  ##########++++                  ##++++  OO  oooo  XXXXXXXX........%%%%%%%%@@  ",
"          @@@@XX@@@@@@@@@@..@@OOOOOO              ########++++++####################++++  OOOO  oooo  @@@@XX%%OOOO..@@@@@@%%OO  ",
"          @@@@XX@@@@@@@@@@..@@OOOOOO              ########++++++####################++++  OOOO  oooo  @@@@XX%%OOOO..@@@@@@%%OO  ",
"    OOOOOO%%OOOOOOOO%%%%%%@@OOOO@@OO  ##  $$  ##########++++++++######################++  OO@@    oo  XXXXOO@@OOOO........OO..  ",
"    OOOOOO%%OOOOOOOO%%%%%%@@OOOO@@OO  ##  $$  ##########++++++++######################++  OO@@    oo  XXXXOO@@OOOO........OO..  ",
"    OOOOOO%%OOOOOOOO%%%%%%@@OOOO@@OO  ##  $$  ##++++++++++++++++####            ########  OO@@@@  oo  XXXXOO@@OOOO........OO..  ",
"    OOOOOO%%OOOOOOOO%%%%%%@@OOOO@@OO  ##  $$  ##++++++++++++++++####            ########  OO@@@@  oo  XXXXOO@@OOOO........OO..  ",
"    OOOOOO%%OOOOOOOO%%%%%%@@OOOO@@OO  ##  $$  ##++++++++++++++####                ######  OO@@@@  oo  XXXXOO@@OOOO........OO..  ",
"    OOOOOO%%OOOOOOOO%%%%%%@@OOOO@@OO  ##  $$  ##++++++++++++++####                ######  OO@@@@  oo  XXXXOO@@OOOO........OO..  ",
"    %%%%%%OOOO@@@@@@OOOOOO....OOOO@@  ##  $$  ####++++++++######        ##  oo      ####  OOOO@@  oo  ....XXOO@@@@........%%OO  ",
"    %%%%%%OOOO@@@@@@OOOOOO....OOOO@@  ##  $$  ####++++++++######        ##  oo      ####  OOOO@@  oo  ....XXOO@@@@........%%OO  ",
"    OOOOOOOOOOOOOOOO@@@@@@OOOOOO..OO  ##  $$  ##++++++++++####        ##  oo  oo      ##    @@@@  oo  ....XXOO@@@@@@......OO@@  ",
"    OOOOOOOOOOOOOOOO@@@@@@OOOOOO..OO  ##  $$  ##++++++++++####        ##  oo  oo      ##    @@@@  oo  ....XXOO@@@@@@......OO@@  ",
"    ......@@....@@@@OOOOOO@@@@OO..@@  ##  $$  ##++++++++####        ##  oo  oo              @@@@  oo  XXXXXX..@@@@@@@@@@@@..OO  ",
"    ......@@....@@@@OOOOOO@@@@OO..@@  ##  $$  ##++++++++####        ##  oo  oo              @@@@  oo  XXXXXX..@@@@@@@@@@@@..OO  ",
"    ........@@OO@@@@@@@@@@@@@@@@..@@  ##  $$  ++++########        ##  oo  ##  ####      ##  ..    oo  XXXXXX..................  ",
"    ........@@OO@@@@@@@@@@@@@@@@..@@  ##  $$  ++++########        ##  oo  ##  ####      ##  ..    oo  XXXXXX..................  ",
"    ................................  ##  $$  ##########        ##  oo  ############            oooo  ....XXXX......XXXXXXXX    ",
"    ................................  ##  $$  ##########        ##  oo  ############            oooo  ....XXXX......XXXXXXXX    ",
"          ....@@OO@@OOOOOO@@..XXXX@@  ##  $$  ########        ##  oo  ########++++##      ##  oooo    OOOOOO......OO......XX    ",
"          ....@@OO@@OOOOOO@@..XXXX@@  ##  $$  ########        ##  oo  ########++++##      ##  oooo    OOOOOO......OO......XX    ",
"          ....@@OO@@OOOOOO@@..XXXX@@  ##  $$  ########      ##  oo  ########++++++++##        oo    OOOOOOOO......OO......XX    ",
"          ....@@OO@@OOOOOO@@..XXXX@@  ##  $$  ########      ##  oo  ########++++++++##        oo    OOOOOOOO......OO......XX    ",
"          ....@@OO@@OOOOOO@@..XXXX@@  ##  $$  ######      ##  oo  ####                            @@OOOOOOOO......OO......XX    ",
"          ....@@OO@@OOOOOO@@..XXXX@@  ##  $$  ######      ##  oo  ####                            @@OOOOOOOO......OO......XX    ",
"          ..OOOOOOOO......OOOOOOOO@@  ++  $$  ####      ##  oo  ######  ****************        ..OO%%%%%%OO@@%%%%OO@@@@@@@@    ",
"          ..OOOOOOOO......OOOOOOOO@@  ++  $$  ####      ##  oo  ######  ****************        ..OO%%%%%%OO@@%%%%OO@@@@@@@@    ",
"          OO@@OO@@OO......OO@@@@OO@@          ##      ##  oo  ######++                          ..OO@@@@@@..OOOOOOOOOOOOOOOO..  ",
"          OO@@OO@@OO......OO@@@@OO@@          ##      ##  oo  ######++                          ..OO@@@@@@..OOOOOOOOOOOOOOOO..  ",
"          ..OO@@@@@@OOOOOO..@@@@@@OO  ++++++##      ##      ######++++  ****************          ..........OO@@@@@@OOOOOO....  ",
"          ..OO@@@@@@OOOOOO..@@@@@@OO  ++++++##      ##      ######++++  ****************          ..........OO@@@@@@OOOOOO....  ",
"    OOOOOO..@@@@@@@@@@@@@@..@@@@@@@@  ++++##          oooooo  ##++++++  **************    @@        ..........@@@@..........OO  ",
"    OOOOOO..@@@@@@@@@@@@@@..@@@@@@@@  ++++##          oooooo  ##++++++  **************    @@        ..........@@@@..........OO  ",
"    OOOOOO..@@@@@@@@......XXXX....@@  ++##        ##  oooooo        ++                                @@@@@@OO@@@@........@@..  ",
"    OOOOOO..@@@@@@@@......XXXX....@@  ++##        ##  oooooo        ++                                @@@@@@OO@@@@........@@..  ",
"    ......................XXXX......  ##        ##    oooooo  &&&&  ++####++++##    oo      oo          @@@@@@@@@@OO@@@@@@....  ",
"    ......................XXXX......  ##        ##    oooooo  &&&&  ++####++++##    oo      oo          @@@@@@@@@@OO@@@@@@....  ",
"    ......................XXXX......                          &&&&              oooooo      oooooo      @@@@@@@@@@OO@@@@@@....  ",
"    ......................XXXX......                          &&&&              oooooo      oooooo      @@@@@@@@@@OO@@@@@@....  ",
"    ......................XXXX......        ..........    &&&&&&&&&&    XX..  oooooooo      oooooooo      @@@@@@@@OO@@@@@@....  ",
"    ......................XXXX......        ..........    &&&&&&&&&&    XX..  oooooooo      oooooooo      @@@@@@@@OO@@@@@@....  ",
"          XXXX......XXXXXXXX....XX        ..........XX    &&&&&&&&&&    @@XX  oooo              oooo      ....................  ",
"          XXXX......XXXXXXXX....XX        ..........XX    &&&&&&&&&&    @@XX  oooo              oooo      ....................  ",
"          XX..OO..........OOOO@@        ..OOOOOOXXOOOO    &&&&&&&&&&    OO  oooooo              oooooo      OO@@OO@@........    ",
"          XX..OO..........OOOO@@        ..OOOOOOXXOOOO    &&&&&&&&&&    OO  oooooo              oooooo      OO@@OO@@........    ",
"          @@@@OO%%%%@@@@@@OO%%        @@@@OO%%@@@@@@@@                  OO                                  ..OOOOOOOOOOOO..    ",
"          @@@@OO%%%%@@@@@@OO%%        @@@@OO%%@@@@@@@@                  OO                                  ..OOOOOOOOOOOO..    ",
"    ......OOOOOOOOOOOOOOOO..              ......@@@@@@    @@@@@@@@@@    @@                                  ..OO@@OO@@@@@@OO    ",
"    ......OOOOOOOOOOOOOOOO..              ......@@@@@@    @@@@@@@@@@    @@                                  ..OO@@OO@@@@@@OO    ",
"    ........OO@@@@@@OOOOOO        oo  oo            OO    OO@@@@@@                                          OO@@@@@@OOOOOO..    ",
"    ........OO@@@@@@OOOOOO        oo  oo            OO    OO@@@@@@                                          OO@@@@@@OOOOOO..    ",
"          ......@@@@....        oooo  oooo                                  oooooo              oooooo      @@@@@@@@@@@@@@..    ",
"          ......@@@@....        oooo  oooo                                  oooooo              oooooo      @@@@@@@@@@@@@@..    ",
"          ......@@@@....      oooo      oooo                                  oooo              oooo        @@@@@@@@@@@@@@..    ",
"          ......@@@@....      oooo      oooo                                  oooo              oooo        @@@@@@@@@@@@@@..    ",
"          ......@@@@....                            @@@@@@OOOO@@@@            oooooooo      oooooooo      ..@@@@@@@@@@@@@@..    ",
"          ......@@@@....                            @@@@@@OOOO@@@@            oooooooo      oooooooo      ..@@@@@@@@@@@@@@..    ",
"            ............      oooo      oooo  ............XX@@......XXXXXX@@..  oooooo      oooooo        ..@@............      ",
"            ............      oooo      oooo  ............XX@@......XXXXXX@@..  oooooo      oooooo        ..@@............      ",
"              ..XXXX....        oooo  oooo                                          oo      oo          ..........XX            ",
"              ..XXXX....        oooo  oooo                                          oo      oo          ..........XX            ",
"                                                                                                                                ",
"                                                                                                                                "
};
