/* XPM */
static char *_6fa72e225794749f74a8d770baa162cMJOipWSZAbuK728z[] = {
/* columns rows colors chars-per-pixel */
"128 128 14 1 ",
"  c black",
". c #383830",
"X c #402230",
"o c #484848",
"O c gray38",
"+ c #707060",
"@ c #AD5F0A",
"# c #804A2C",
"$ c #FF931C",
"% c gray62",
"& c #D0A898",
"* c #B0BEC5",
"= c #C0C0C0",
"- c white",
/* pixels */
"                          ................  ........        ........      ..........................................            ",
"                          ................  ........        ........      ..........................................            ",
"          ..................oo####oo..........##++............++##..........++####&&++++++..####..########++++####........      ",
"          ..................oo####oo..........##++............++##..........++####&&++++++..####..########++++####........      ",
"  ..........####&&++######++++++++++            &&&&oooooooo++&&&&oooooooo++&&&&&&&&++++++oo++&&&&++++++++&&++##&&XX......      ",
"  ..........####&&++######++++++++++            &&&&oooooooo++&&&&oooooooo++&&&&&&&&++++++oo++&&&&++++++++&&++##&&XX......      ",
"  ..........####&&++######++++++++++  $$  @@    &&&&oooooooo++&&&&oooooooo++&&&&&&&&++++++oo++&&&&++++++++&&++##&&XX......      ",
"  ..........####&&++######++++++++++  $$  @@    &&&&oooooooo++&&&&oooooooo++&&&&&&&&++++++oo++&&&&++++++++&&++##&&XX......      ",
"  ..........####&&++######++++++++++  $$                                    &&&&&&&&++++++oo++&&&&++++++++&&++##&&XX......      ",
"  ..........####&&++######++++++++++  $$                                    &&&&&&&&++++++oo++&&&&++++++++&&++##&&XX......      ",
"  ..######&&##&&&&&&&&&&&&++++##&&++  $$    $$  $$$$$$$$$$$$$$@@$$@@@@@@@@        &&&&&&&&ooXX&&&&++######&&##++&&++......      ",
"  ..######&&##&&&&&&&&&&&&++++##&&++  $$    $$  $$$$$$$$$$$$$$@@$$@@@@@@@@        &&&&&&&&ooXX&&&&++######&&##++&&++......      ",
"  ..&&&&&&&&++&&&&&&++++++++++&&&&##  $$    $$              $$@@@@@@@@@@@@$$$$$$  ++++++++oo++++++++XXXXXX++++++++XX......      ",
"  ..&&&&&&&&++&&&&&&++++++++++&&&&##  $$    $$              $$@@@@@@@@@@@@$$$$$$  ++++++++oo++++++++XXXXXX++++++++XX......      ",
"  ..++++++####++++++######++++++XX++  $$    $$  $$$$$$$$$$$$$$$$$$@@@@      $$$$  ++######XXXX++####XXXXXX++##++++XX......      ",
"  ..++++++####++++++######++++++XX++  $$    $$  $$$$$$$$$$$$$$$$$$@@@@      $$$$  ++######XXXX++####XXXXXX++##++++XX......      ",
"  ..XXXXXX++XX################XX####  $$    $$  $$$$$$$$$$$$$$$$$$$$    $$        ##XXXXXXXXXX######XXXXXXXXXX####XX......      ",
"  ..XXXXXX++XX################XX####  $$    $$  $$$$$$$$$$$$$$$$$$$$    $$        ##XXXXXXXXXX######XXXXXXXXXX####XX......      ",
"  ..XXXXXX++##XXXXXXXXXXXXXXXXXXXXXX  $$    $$                        $$$$  XX  XXXXXXXXXXXXXXXXXXXXXXXXXXXXXXXXXXoo..........  ",
"  ..XXXXXX++##XXXXXXXXXXXXXXXXXXXXXX  $$    $$                        $$$$  XX  XXXXXXXXXXXXXXXXXXXXXXXXXXXXXXXXXXoo..........  ",
"  ........XXXXXXXXXXXXXXXXXXXXoo##XX  @@@@$$$$  $$$$$$$$$$$$$$$$$$$$$$$$$$  ##    oo######XXoo++oo&&oooooo++++++++&&&&&&&&##..  ",
"  ........XXXXXXXXXXXXXXXXXXXXoo##XX  @@@@$$$$  $$$$$$$$$$$$$$$$$$$$$$$$$$  ##    oo######XXoo++oo&&oooooo++++++++&&&&&&&&##..  ",
"  ........XXXXXXXXXXXXXXXXXXXXoo##XX  @@@@@@$$                              ##oo    ######XXoo++oo&&oooooo++++++++&&&&&&&&##..  ",
"  ........XXXXXXXXXXXXXXXXXXXXoo##XX  @@@@@@$$                              ##oo    ######XXoo++oo&&oooooo++++++++&&&&&&&&##..  ",
"  ........XXXXXXXXXXXXXXXXXXXXoo##XX  @@@@@@@@  ooXX####  %%%%%%%%%%  XXXXoo##ooXX  ######XXoo++oo&&oooooo++++++++&&&&&&&&##..  ",
"  ........XXXXXXXXXXXXXXXXXXXXoo##XX  @@@@@@@@  ooXX####  %%%%%%%%%%  XXXXoo##ooXX  ######XXoo++oo&&oooooo++++++++&&&&&&&&##..  ",
"..........++++XX++##++++++XXXX##XXoo            XX++++++              ++++######    &&&&&&++XX##++++++++++++##++##++&&&&&&##..  ",
"..........++++XX++##++++++XXXX##XXoo            XX++++++              ++++######    &&&&&&++XX##++++++++++++##++##++&&&&&&##..  ",
"..++&&&&&&++++####&&++++++++++++&&##XXXXXX&&####++++++++++++  %%%%        ##oo    ##++++++++XXXX++++++++++##XXXX####++++++&&....",
"..++&&&&&&++++####&&++++++++++++&&##XXXXXX&&####++++++++++++  %%%%        ##oo    ##++++++++XXXX++++++++++##XXXX####++++++&&....",
"..&&++++++##++##XX##++++++##++####++XXXXXX++++++##++++++++    %%    XXXX        ++##++++++++++XX##XXXXXXXXXX##++++##++++++++....",
"..&&++++++##++##XX##++++++##++####++XXXXXX++++++##++++++++    %%    XXXX        ++##++++++++++XX##XXXXXXXXXX##++++##++++++++....",
"..&&++++++++##++++XX######++++++##++######++######++++++    %%%%  ++++++++XXXXoo++++++++++XX++++XX++++++++++##++++++++++++##XX..",
"..&&++++++++##++++XX######++++++##++######++######++++++    %%%%  ++++++++XXXXoo++++++++++XX++++XX++++++++++##++++++++++++##XX..",
"..++############++++XXXXXX########XX################++            ++######XX##XX##########XX++##XXXX++++++################XX....",
"..++############++++XXXXXX########XX################++            ++######XX##XX##########XX++##XXXX++++++################XX....",
"..XX############++##########XX####XXooooooXX##########    %%%%      XXXXXXXXXXXXXXoo######XX######XXXXXXXXXXooooooXXXXXXXX......",
"..XX############++##########XX####XXooooooXX##########    %%%%      XXXXXXXXXXXXXXoo######XX######XXXXXXXXXXooooooXXXXXXXX......",
"..XX############++##########XX####XXooooooXX############    %%%%%%    XXXXXXXXXXXXoo######XX######XXXXXXXXXXooooooXXXXXXXX....  ",
"..XX############++##########XX####XXooooooXX############    %%%%%%    XXXXXXXXXXXXoo######XX######XXXXXXXXXXooooooXXXXXXXX....  ",
"..XX############++##########XX####XXooooooXX##############    %%%%%%      XXXXXXXXoo######XX######XXXXXXXXXXooooooXXXXXXXX....  ",
"..XX############++##########XX####XXooooooXX##############    %%%%%%      XXXXXXXXoo######XX######XXXXXXXXXXooooooXXXXXXXX....  ",
"..XXXXXXXX##################XXXXXXXXXXXXXXXXXXXXXXXXXXXXXXXX    %%%%%%%%      ooooXXXXXXXXXXXXXXXXXXXXXXXXXXXXXXXXXXoooooo..    ",
"..XXXXXXXX##################XXXXXXXXXXXXXXXXXXXXXXXXXXXXXXXX    %%%%%%%%      ooooXXXXXXXXXXXXXXXXXXXXXXXXXXXXXXXXXXoooooo..    ",
"....ooooooXXXXXXXXXXXXXXXXXXoooooooo########++++##########ooXX      %%%%%%%%    ++++++++++##ooooXXoooooooooooo##oooooooooo....  ",
"....ooooooXXXXXXXXXXXXXXXXXXoooooooo########++++##########ooXX      %%%%%%%%    ++++++++++##ooooXXoooooooooooo##oooooooooo....  ",
"  ........##XX++ooXXXXXXXXoooo##XX&&&&                                                  ++##XX##oo++++++++++++++++&&&&&&&&##..  ",
"  ........##XX++ooXXXXXXXXoooo##XX&&&&                                                  ++##XX##oo++++++++++++++++&&&&&&&&##..  ",
"....&&&&&&++++##++++ooooooXX##++++++    $$$$$$$$$$$$$$$$$$$$@@@@@@$$$$$$$$$$$$@@$$$$$$    XXoooo####++++++++++++++++&&&&&&&&..  ",
"....&&&&&&++++##++++ooooooXX##++++++    $$$$$$$$$$$$$$$$$$$$@@@@@@$$$$$$$$$$$$@@$$$$$$    XXoooo####++++++++++++++++&&&&&&&&..  ",
"..++&&&&&&++++++++++########XX++++XX                                                        XXXX++++########XXXX####&&&&&&++..  ",
"..++&&&&&&++++++++++########XX++++XX                                                        XXXX++++########XXXX####&&&&&&++..  ",
"..&&XXXXXX++##############XXoo++++++  $$$$$$@@@@$$$$$$$$$$$$$$$$                  $$@@@@  OO  ##++########XX++######++++++XX..  ",
"..&&XXXXXX++##############XXoo++++++  $$$$$$@@@@$$$$$$$$$$$$$$$$                  $$@@@@  OO  ##++########XX++######++++++XX..  ",
"..&&XXXXXX++############        ++++  $$$$                        %%%%%%%%%%%%%%  $$@@@@  OO  ##++########XX++######++++++XX..  ",
"..&&XXXXXX++############        ++++  $$$$                        %%%%%%%%%%%%%%  $$@@@@  OO  ##++########XX++######++++++XX..  ",
"..&&XXXXXX++############  %%                  ----    ----    --  %%%%  %%%%%%%%  $$@@@@  OOOO  ++########XX++######++++++XX..  ",
"..&&XXXXXX++############  %%                  ----    ----    --  %%%%  %%%%%%%%  $$@@@@  OOOO  ++########XX++######++++++XX..  ",
"..++&&&&&&XX++######XXXX  %%                    ----    ----      %%%%            @@@@@@    OO    XXXXXXXX++##XXXX++XXXXXX....  ",
"..++&&&&&&XX++######XXXX  %%                    ----    ----      %%%%            @@@@@@    OO    XXXXXXXX++##XXXX++XXXXXX....  ",
"....XXXXXX++XX####XXXXXX  %%%%  XX##  @@$$  --    ----    ----    %%%%  %%%%%%%%  @@@@@@    OOOO  XXXXXXXXXXXXXXXXXXXXXXXX....  ",
"....XXXXXX++XX####XXXXXX  %%%%  XX##  @@$$  --    ----    ----    %%%%  %%%%%%%%  @@@@@@    OOOO  XXXXXXXXXXXXXXXXXXXXXXXX....  ",
"  ..XXXXXXXXXXXXXXXXoooo    %%    XX  @@$$                        %%%%%%%%%%%%%%  @@@@@@  XX  OO  ##XXXXXXXXXXXXoo########++....",
"  ..XXXXXXXXXXXXXXXXoooo    %%    XX  @@$$                        %%%%%%%%%%%%%%  @@@@@@  XX  OO  ##XXXXXXXXXXXXoo########++....",
"  ........XXooooXXoooooo          oo  $$$$$$$$$$  $$$$$$$$$$@@@@                  $$@@@@  ++  OOOO  ooooooooXXXXXXXX&&&&&&&&##..",
"  ........XXooooXXoooooo          oo  $$$$$$$$$$  $$$$$$$$$$@@@@                  $$@@@@  ++  OOOO  ooooooooXXXXXXXX&&&&&&&&##..",
"  ........####oo##########XX##++++++              $$$$$$$$@@@@@@$$$$$$$$$$$$$$$$$$$$@@@@  ++++  OOOO  ####oo&&++++XX######&&++..",
"  ........####oo##########XX##++++++              $$$$$$$$@@@@@@$$$$$$$$$$$$$$$$$$$$@@@@  ++++  OOOO  ####oo&&++++XX######&&++..",
"  ..++++++&&++++++++&&&&&&##++++##++  $$  %%  $$$$$$$$$$@@@@@@@@$$$$$$$$$$$$$$$$$$$$$$@@  ++##    OO  oooo++##++++XXXXXXXX++XX..",
"  ..++++++&&++++++++&&&&&&##++++##++  $$  %%  $$$$$$$$$$@@@@@@@@$$$$$$$$$$$$$$$$$$$$$$@@  ++##    OO  oooo++##++++XXXXXXXX++XX..",
"  ..++++++&&++++++++&&&&&&##++++##++  $$  %%  $$@@@@@@@@@@@@@@@@$$$$            $$$$$$$$  ++####  OO  oooo++##++++XXXXXXXX++XX..",
"  ..++++++&&++++++++&&&&&&##++++##++  $$  %%  $$@@@@@@@@@@@@@@@@$$$$            $$$$$$$$  ++####  OO  oooo++##++++XXXXXXXX++XX..",
"  ..++++++&&++++++++&&&&&&##++++##++  $$  %%  $$@@@@@@@@@@@@@@$$$$                $$$$$$  ++####  OO  oooo++##++++XXXXXXXX++XX..",
"  ..++++++&&++++++++&&&&&&##++++##++  $$  %%  $$@@@@@@@@@@@@@@$$$$                $$$$$$  ++####  OO  oooo++##++++XXXXXXXX++XX..",
"  ..&&&&&&++++######++++++XXXX++++##  $$  %%  $$$$@@@@@@@@$$$$$$        $$  OO      $$$$  ++++##  OO  XXXXoo++####XXXXXXXX&&++..",
"  ..&&&&&&++++######++++++XXXX++++##  $$  %%  $$$$@@@@@@@@$$$$$$        $$  OO      $$$$  ++++##  OO  XXXXoo++####XXXXXXXX&&++..",
"  ..++++++++++++++++######++++++XX++  $$  %%  $$@@@@@@@@@@$$$$        $$  OO  OO      $$    ####  OO  XXXXoo++######XXXXXX++##..",
"  ..++++++++++++++++######++++++XX++  $$  %%  $$@@@@@@@@@@$$$$        $$  OO  OO      $$    ####  OO  XXXXoo++######XXXXXX++##..",
"  ..XXXXXX##XXXX####++++++####++XX##  $$  %%  $$@@@@@@@@$$$$        $$  OO  OO              ####  OO  ooooooXX############XX++..",
"  ..XXXXXX##XXXX####++++++####++XX##  $$  %%  $$@@@@@@@@$$$$        $$  OO  OO              ####  OO  ooooooXX############XX++..",
"  ..XXXXXXXX##++################XX##  $$  %%  @@@@$$$$$$$$        $$  OO  $$  $$$$      $$  XX    OO  ooooooXXXXXXXXXXXXXXXXXX..",
"  ..XXXXXXXX##++################XX##  $$  %%  @@@@$$$$$$$$        $$  OO  $$  $$$$      $$  XX    OO  ooooooXXXXXXXXXXXXXXXXXX..",
"  ..XXXXXXXXXXXXXXXXXXXXXXXXXXXXXXXX  $$  %%  $$$$$$$$$$        $$  OO  $$$$$$$$$$$$            OOOO  XXXXooooXXXXXXoooooooo....",
"  ..XXXXXXXXXXXXXXXXXXXXXXXXXXXXXXXX  $$  %%  $$$$$$$$$$        $$  OO  $$$$$$$$$$$$            OOOO  XXXXooooXXXXXXoooooooo....",
"  ........XXXX##++##++++++##XXoooo##  $$  %%  $$$$$$$$        $$  OO  $$$$$$$$@@@@$$      $$  OOOO    ++++++XXXXXX++XXXXXXoo..  ",
"  ........XXXX##++##++++++##XXoooo##  $$  %%  $$$$$$$$        $$  OO  $$$$$$$$@@@@$$      $$  OOOO    ++++++XXXXXX++XXXXXXoo..  ",
"  ........XXXX##++##++++++##XXoooo##  $$  %%  $$$$$$$$      $$  OO  $$$$$$$$@@@@@@@@$$        OO    ++++++++XXXXXX++XXXXXXoo..  ",
"  ........XXXX##++##++++++##XXoooo##  $$  %%  $$$$$$$$      $$  OO  $$$$$$$$@@@@@@@@$$        OO    ++++++++XXXXXX++XXXXXXoo..  ",
"  ........XXXX##++##++++++##XXoooo##  $$  %%  $$$$$$      $$  OO  $$$$                            ##++++++++XXXXXX++XXXXXXoo..  ",
"  ........XXXX##++##++++++##XXoooo##  $$  %%  $$$$$$      $$  OO  $$$$                            ##++++++++XXXXXX++XXXXXXoo..  ",
"    ......XX++++++++XXXXXX++++++++##  @@  %%  $$$$      $$  OO  $$$$$$  ================        XX++&&&&&&++##&&&&++########....",
"    ......XX++++++++XXXXXX++++++++##  @@  %%  $$$$      $$  OO  $$$$$$  ================        XX++&&&&&&++##&&&&++########....",
"    ......++##++##++XXXXXX++####++##          $$      $$  OO  $$$$$$@@                          XX++######XX++++++++++++++++XX..",
"    ......++##++##++XXXXXX++####++##          $$      $$  OO  $$$$$$@@                          XX++######XX++++++++++++++++XX..",
"  ........XX++######++++++XX######++  @@@@@@$$      $$      $$$$$$@@@@  ================          XXXXXXXXXX++######++++++XXXX..",
"  ........XX++######++++++XX######++  @@@@@@$$      $$      $$$$$$@@@@  ================          XXXXXXXXXX++######++++++XXXX..",
"  ..++++++XX##############XX########  @@@@$$          OOOOOO  $$@@@@@@  ==============    ##        XXXXXXXXXX####XXXXXXXXXX++..",
"  ..++++++XX##############XX########  @@@@$$          OOOOOO  $$@@@@@@  ==============    ##        XXXXXXXXXX####XXXXXXXXXX++..",
"  ..++++++XX########XXXXXXooooXXXX##  @@$$        $$  OOOOOO        @@                                ######++####XXXXXXXX##XX..",
"  ..++++++XX########XXXXXXooooXXXX##  @@$$        $$  OOOOOO        @@                                ######++####XXXXXXXX##XX..",
"  ..XXXXXXXXXXXXXXXXXXXXXXooooXXXXXX  $$        $$    OOOOOO  ****  @@$$$$@@@@$$    OO      OO          ##########++######XXXX..",
"  ..XXXXXXXXXXXXXXXXXXXXXXooooXXXXXX  $$        $$    OOOOOO  ****  @@$$$$@@@@$$    OO      OO          ##########++######XXXX..",
"  ..XXXXXXXXXXXXXXXXXXXXXXooooXXXXXX                          ****              OOOOOO      OOOOOO      ##########++######XXXX..",
"  ..XXXXXXXXXXXXXXXXXXXXXXooooXXXXXX                          ****              OOOOOO      OOOOOO      ##########++######XXXX..",
"  ..XXXXXXXXXXXXXXXXXXXXXXooooXXXXXX        XXXXXXXXXX    **********    ooXX  OOOOOOOO      OOOOOOOO      ########++######XXXX..",
"  ..XXXXXXXXXXXXXXXXXXXXXXooooXXXXXX        XXXXXXXXXX    **********    ooXX  OOOOOOOO      OOOOOOOO      ########++######XXXX..",
"  ........ooooXXXXXXooooooooXXXXoo        XXXXXXXXXXoo    **********    ##oo  OOOO              OOOO      XXXXXXXXXXXXXXXXXXXX..",
"  ........ooooXXXXXXooooooooXXXXoo        XXXXXXXXXXoo    **********    ##oo  OOOO              OOOO      XXXXXXXXXXXXXXXXXXXX..",
"    ......ooXX++XXXXXXXXXX++++##        XX++++++oo++++    **********    ++  OOOOOO              OOOOOO      ++##++##XXXXXXXX....",
"    ......ooXX++XXXXXXXXXX++++##        XX++++++oo++++    **********    ++  OOOOOO              OOOOOO      ++##++##XXXXXXXX....",
"  ........####++&&&&######++&&        ####++&&########                  ++                                  XX++++++++++++XX..  ",
"  ........####++&&&&######++&&        ####++&&########                  ++                                  XX++++++++++++XX..  ",
"  ..XXXXXX++++++++++++++++XX              XXXXXX######    ##########    ##                                  XX++##++######++..  ",
"  ..XXXXXX++++++++++++++++XX              XXXXXX######    ##########    ##                                  XX++##++######++..  ",
"  ..XXXXXXXX++######++++++        OO  OO            ++    ++######                                          ++######++++++XX..  ",
"  ..XXXXXXXX++######++++++        OO  OO            ++    ++######                                          ++######++++++XX..  ",
"  ........XXXXXX####XXXX        OOOO  OOOO                                  OOOOOO              OOOOOO      ##############XX..  ",
"  ........XXXXXX####XXXX        OOOO  OOOO                                  OOOOOO              OOOOOO      ##############XX..  ",
"  ........XXXXXX####XXXX      OOOO      OOOO                                  OOOO              OOOO        ##############XX..  ",
"  ........XXXXXX####XXXX      OOOO      OOOO                                  OOOO              OOOO        ##############XX..  ",
"  ........XXXXXX####XXXX                            ######++++####            OOOOOOOO      OOOOOOOO      XX##############XX..  ",
"  ........XXXXXX####XXXX                            ######++++####            OOOOOOOO      OOOOOOOO      XX##############XX..  ",
"    ........XXXXXXXXXXXX      OOOO      OOOO  XXXXXXXXXXXXoo##XXXXXXoooooo##XX  OOOOOO      OOOOOO        XX##XXXXXXXXXXXX....  ",
"    ........XXXXXXXXXXXX      OOOO      OOOO  XXXXXXXXXXXXoo##XXXXXXoooooo##XX  OOOOOO      OOOOOO        XX##XXXXXXXXXXXX....  ",
"          ....XXooooXXXX        OOOO  OOOO                                          OO      OO          XXXXXXXXXXoo........    ",
"          ....XXooooXXXX        OOOO  OOOO                                          OO      OO          XXXXXXXXXXoo........    ",
"            ..............                                                                            ....................      ",
"            ..............                                                                            ....................      "
};
