/* XPM */
static char *_55e9384d4c746ab90edf21f5068dab4CiUzaS5yKyFQD2GP[] = {
/* columns rows colors chars-per-pixel */
"128 128 15 1 ",
"  c black",
". c #383830",
"X c #383738",
"o c #402230",
"O c #464646",
"+ c #484848",
"@ c gray30",
"# c gray38",
"$ c #707060",
"% c #AD5F0A",
"& c #804A2C",
"* c #FF931C",
"= c #D0A898",
"- c #C0C0C0",
"; c white",
/* pixels */
"                          ................  ........        ........      ..........................................            ",
"                          ................  ........        ........      ..........................................            ",
"          ..................++&&&&++..........&&$$............$$&&..........$$&&&&==$$$$$$..&&&&..&&&&&&&&$$$$&&&&........      ",
"          ..................++&&&&++..........&&$$............$$&&..........$$&&&&==$$$$$$..&&&&..&&&&&&&&$$$$&&&&........      ",
"  ..........&&&&==$$&&&&&&$$$$$$$$$$======$$&&====    ++++++$$====++++++++$$====    $$$$$$++$$====$$$$$$$$==$$&&==oo......      ",
"  ..........&&&&==$$&&&&&&$$$$$$$$$$======$$&&====    ++++++$$====++++++++$$====    $$$$$$++$$====$$$$$$$$==$$&&==oo......      ",
"  ..........&&&&==$$&&&&&&$$$$$$$$$$======$$&&    ----  ++++$$====++++++++$$==  ----    $$++$$====$$$$$$$$==$$&&==oo......      ",
"  ..........&&&&==$$&&&&&&$$$$$$$$$$======$$&&    ----  ++++$$====++++++++$$==  ----    $$++$$====$$$$$$$$==$$&&==oo......      ",
"  ..........&&&&==$$&&&&&&$$$$$$$$$$====      ------                              ------      ====$$$$$$$$==$$&&==oo......      ",
"  ..........&&&&==$$&&&&&&$$$$$$$$$$====      ------                              ------      ====$$$$$$$$==$$&&==oo......      ",
"  ..&&&&&&==&&============$$$$&&==$$====  ------------  &&++$$==$$$$++++++$$==  ------------  ====$$&&&&&&==&&$$==$$......      ",
"  ..&&&&&&==&&============$$$$&&==$$====  ------------  &&++$$==$$$$++++++$$==  ------------  ====$$&&&&&&==&&$$==$$......      ",
"  ..========$$======$$$$$$$$$$====&&==    --------------                      --------------    $$$$oooooo$$$$$$$$oo......      ",
"  ..========$$======$$$$$$$$$$====&&==    --------------                      --------------    $$$$oooooo$$$$$$$$oo......      ",
"  ..$$$$$$&&&&$$$$$$&&&&&&$$$$$$oo$$&&  ----------------  &&$$          oo$$  ----------------  &&&&oooooo$$&&$$$$oo......      ",
"  ..$$$$$$&&&&$$$$$$&&&&&&$$$$$$oo$$&&  ----------------  &&$$          oo$$  ----------------  &&&&oooooo$$&&$$$$oo......      ",
"  ..oooooo$$oo&&&&&&&&&&&&&&&&oo&&&&  ------        ----    &&          oo    ----        ------  &&oooooooooo&&&&oo......      ",
"  ..oooooo$$oo&&&&&&&&&&&&&&&&oo&&&&  ------        ----    &&          oo    ----        ------  &&oooooooooo&&&&oo......      ",
"  ..oooooo$$&&oooooooooooooooooooooo  ------  ####  --  oo++  oooo  ++++  oooo  --  ####  ------  oooooooooooooooo++..........  ",
"  ..oooooo$$&&oooooooooooooooooooooo  ------  ####  --  oo++  oooo  ++++  oooo  --  ####  ------  oooooooooooooooo++..........  ",
"  ........oooooooooooooooooooo++&&oo  ------  ####      &&oo              ++&&      ####  ------  ==++++++$$$$$$$$========&&..  ",
"  ........oooooooooooooooooooo++&&oo  ------  ####      &&oo              ++&&      ####  ------  ==++++++$$$$$$$$========&&..  ",
"  ........oooooooooooooooooooo++&&oo  ------  ####  &&&&&&oo++  --  --  oo++&&++oo  ####  ------  ==++++++$$$$$$$$========&&..  ",
"  ........oooooooooooooooooooo++&&oo  ------  ####  &&&&&&oo++  --  --  oo++&&++oo  ####  ------  ==++++++$$$$$$$$========&&..  ",
"  ........oooooooooooooooooooo++&&oo++  ----      ##  &&&&oo    ######      &&++  ##      ----  ++==++++++$$$$$$$$========&&..  ",
"  ........oooooooooooooooooooo++&&oo++  ----      ##  &&&&oo    ######      &&++  ##      ----  ++==++++++$$$$$$$$========&&..  ",
"..........$$$$oo$$&&$$$$$$oooo&&oo++++++          ####      ####      ######    ####          &&$$$$$$$$$$$$&&$$&&$$======&&..  ",
"..........$$$$oo$$&&$$$$$$oooo&&oo++++++          ####      ####      ######    ####          &&$$$$$$$$$$$$&&$$&&$$======&&..  ",
"..$$======$$$$&&&&==$$$$$$$$$$$$==&&oooooo==&&&&$$  ########    --  --    ########  $$$$$$$$oooo$$$$$$$$$$&&oooo&&&&$$$$$$==....",
"..$$======$$$$&&&&==$$$$$$$$$$$$==&&oooooo==&&&&$$  ########    --  --    ########  $$$$$$$$oooo$$$$$$$$$$&&oooo&&&&$$$$$$==....",
"..==$$$$$$&&$$&&oo&&$$$$$$&&$$&&&&$$oooooo$$$$$$&&$$        &&  --  --  oo        &&$$$$$$$$$$oo&&oooooooooo&&$$$$&&$$$$$$$$....",
"..==$$$$$$&&$$&&oo&&$$$$$$&&$$&&&&$$oooooo$$$$$$&&$$        &&  --  --  oo        &&$$$$$$$$$$oo&&oooooooooo&&$$$$&&$$$$$$$$....",
"..==$$$$$$$$&&$$$$oo&&&&&&$$$$$$&&$$&&&&&&$$&&&&&&$$$$$$$$$$&&          $$oooo++$$$$$$$$$$oo$$$$oo$$$$$$$$$$&&$$$$$$$$$$$$&&oo..",
"..==$$$$$$$$&&$$$$oo&&&&&&$$$$$$&&$$&&&&&&$$&&&&&&$$$$$$$$$$&&          $$oooo++$$$$$$$$$$oo$$$$oo$$$$$$$$$$&&$$$$$$$$$$$$&&oo..",
"..$$&&&&&&&&&&&&$$$$oooooo&&&&&&&&oo&&&&&&&&&&&&&&&&$$$$$$&&&&  --  --  &&oo&&oo&&&&&&&&&&oo$$&&oooo$$$$$$&&&&&&&&&&&&&&&&oo....",
"..$$&&&&&&&&&&&&$$$$oooooo&&&&&&&&oo&&&&&&&&&&&&&&&&$$$$$$&&&&  --  --  &&oo&&oo&&&&&&&&&&oo$$&&oooo$$$$$$&&&&&&&&&&&&&&&&oo....",
"..oo&&&&&&&&&&&&$$&&&&&&&&&&oo&&&&oo++++++oo&&&&&&&&&&&&&&oo    --  --    oooooooo++&&&&&&oo&&&&&&oooooooooo++++++oooooooo......",
"..oo&&&&&&&&&&&&$$&&&&&&&&&&oo&&&&oo++++++oo&&&&&&&&&&&&&&oo    --  --    oooooooo++&&&&&&oo&&&&&&oooooooooo++++++oooooooo......",
"..oo&&&&&&&&&&&&$$&&&&&&&&&&oo&&&&oo++++++oo&&&&&&&&&&&&&&                  oooooo++&&&&&&oo&&&&&&oooooooooo++++++oooooooo....  ",
"..oo&&&&&&&&&&&&$$&&&&&&&&&&oo&&&&oo++++++oo&&&&&&&&&&&&&&                  oooooo++&&&&&&oo&&&&&&oooooooooo++++++oooooooo....  ",
"..oo&&&&&&&&&&&&$$&&&&&&&&&&oo&&&&oo++++++oo&&&&&&&&&&&&&&    ****  %%%%    oooooo++&&&&&&oo&&&&&&oooooooooo++++++oooooooo....  ",
"..oo&&&&&&&&&&&&$$&&&&&&&&&&oo&&&&oo++++++oo&&&&&&&&&&&&&&    ****  %%%%    oooooo++&&&&&&oo&&&&&&oooooooooo++++++oooooooo....  ",
"..oooooooo&&&&&&&&&&&&&&&&&&oooooooooooooooooooooooooooooo    %%**  **%%    ++++++oooooooooooooooooooooooooooooooooo++++++..    ",
"..oooooooo&&&&&&&&&&&&&&&&&&oooooooooooooooooooooooooooooo    %%**  **%%    ++++++oooooooooooooooooooooooooooooooooo++++++..    ",
"....++++++oooooooooooooooooo++++++++&&&&&&&&$$$$&&&&&&&&&&    %%%%  %%**    ++++$$$$$$$$$$&&++++oo++++++++++++&&++++++++++....  ",
"....++++++oooooooooooooooooo++++++++&&&&&&&&$$$$&&&&&&&&&&    %%%%  %%**    ++++$$$$$$$$$$&&++++oo++++++++++++&&++++++++++....  ",
"  ........&&oo$$++oooooooo++++&&oo====                                                        &&++$$$$$$$$$$$$$$$$========&&..  ",
"  ........&&oo$$++oooooooo++++&&oo====                                                        &&++$$$$$$$$$$$$$$$$========&&..  ",
"....======$$$$&&$$$$++++++oo&&$$$$$$    ##################  ##############  ################    &&&&$$$$$$$$$$$$$$$$========..  ",
"....======$$$$&&$$$$++++++oo&&$$$$$$    ##################  ##############  ################    &&&&$$$$$$$$$$$$$$$$========..  ",
"..$$======$$$$$$$$$$&&&&&&&&oo$$$$oo  ####################  ##############  ##################  $$$$&&&&&&&&oooo&&&&======$$..  ",
"..$$======$$$$$$$$$$&&&&&&&&oo$$$$oo  ####################  ##############  ##################  $$$$&&&&&&&&oooo&&&&======$$..  ",
"..==oooooo$$&&&&&&                                                                                                &&$$$$$$oo..  ",
"..==oooooo$$&&&&&&                                                                                                &&$$$$$$oo..  ",
"..==oooooo$$&&&&&&    **  ;;;;;;  **  ##  ################  ##############  ##############  ##  **  ;;;;;;  **    &&$$$$$$oo..  ",
"..==oooooo$$&&&&&&    **  ;;;;;;  **  ##  ################  ##############  ##############  ##  **  ;;;;;;  **    &&$$$$$$oo..  ",
"..==oooooo$$&&&&&&  %%**  ;;;;;;  **  ##  ################  ##          ##  ##############  ##  **  ;;;;;;  ****  &&$$$$$$oo..  ",
"..==oooooo$$&&&&&&  %%**  ;;;;;;  **  ##  ################  ##          ##  ##############  ##  **  ;;;;;;  ****  &&$$$$$$oo..  ",
"..$$======oo$$&&&&  %%**          **  ##  ################  ##  ######  ##  ##############  ##  **          **%%  $$oooooo....  ",
"..$$======oo$$&&&&  %%**          **  ##  ################  ##  ######  ##  ##############  ##  **          **%%  $$oooooo....  ",
"....oooooo$$oo&&&&  %%%%****  ******  ##  ################  ##  ######  ##  ##############  ##    ****  ****%%%%  oooooooo....  ",
"....oooooo$$oo&&&&  %%%%****  ******  ##  ################  ##  ######  ##  ##############  ##    ****  ****%%%%  oooooooo....  ",
"  ..oooooooooooooo  %%%%**        **  ##  ################  ##  ######  ##  ##############  ##  ****      **%%%%  &&&&&&&&$$....",
"  ..oooooooooooooo  %%%%**        **  ##  ################  ##  ######  ##  ##############  ##  ****      **%%%%  &&&&&&&&$$....",
"  ........oo++++oo        **  **                                                                    **  **        oo========&&..",
"  ........oo++++oo        **  **                                                                    **  **        oo========&&..",
"  ........&&&&++&&  ********  ******  %%%%%%%%%%%%**************%%****%%%%%%%%%%%%%%**********  %%%%**  ********  oo&&&&&&==$$..",
"  ........&&&&++&&  ********  ******  %%%%%%%%%%%%**************%%****%%%%%%%%%%%%%%**********  %%%%**  ********  oo&&&&&&==$$..",
"  ..$$$$$$==$$$$$$      ****  %%%%%%  %%%%****%%%%%%****************************%%%%********%%  ******  ****      oooooooo$$oo..",
"  ..$$$$$$==$$$$$$      ****  %%%%%%  %%%%****%%%%%%****************************%%%%********%%  ******  ****      oooooooo$$oo..",
"  ..$$$$$$==$$$$$$                    %%  **    **%%  ****%%  %%%%%%  %%****  ******    **  %%                    oooooooo$$oo..",
"  ..$$$$$$==$$$$$$                    %%  **    **%%  ****%%  %%%%%%  %%****  ******    **  %%                    oooooooo$$oo..",
"  ..$$$$$$==$$$$$$$$======&&$$$$&&$$  %%  **    %%%%  **%%%%  %%**%%  %%****  %%%%**    **  %%  &&$$++++++$$&&$$$$oooooooo$$oo..",
"  ..$$$$$$==$$$$$$$$======&&$$$$&&$$  %%  **    %%%%  **%%%%  %%**%%  %%****  %%%%**    **  %%  &&$$++++++$$&&$$$$oooooooo$$oo..",
"  ..======$$$$&&&&&&$$$$$$oooo$$$$&&  **        %%%%  **%%%%  %%****  ******  %%****        %%  &&&&oooooo++$$&&&&oooooooo==$$..",
"  ..======$$$$&&&&&&$$$$$$oooo$$$$&&  **        %%%%  **%%%%  %%****  ******  %%****        %%  &&&&oooooo++$$&&&&oooooooo==$$..",
"  ..$$$$                    $$$$oo$$  **        ****  ****%%  %%****  ******  %%%%**        %%  &&&&oooo                    &&..",
"  ..$$$$                    $$$$oo$$  **        ****  ****%%  %%****  ******  %%%%**        %%  &&&&oooo                    &&..",
"  ..oooo    @@XX@@@@@@XX    &&$$oo&&  ****    ******  **%%%%  %%****  ******  %%%%****    **%%  oooo++++    @@@@@@@@@@@@    $$..",
"  ..oooo    @@XX@@@@@@XX    &&$$oo&&  ****    ******  **%%%%  %%****  ******  %%%%****    **%%  oooo++++    @@@@@@@@@@@@    $$..",
"  ..oooo  @@@@XX@@@@@@XX@@  &&&&oo&&  ****    ******  **%%**  ******  ****%%  %%%%****    ****  oooo++++  @@@@@@@@@@@@@@@@  oo..",
"  ..oooo  @@@@XX@@@@@@XX@@  &&&&oo&&  ****    ******  **%%**  ******  ****%%  %%%%****    ****  oooo++++  @@@@@@@@@@@@@@@@  oo..",
"  ..oooo  @@@@@@@@@@@@@@@@  oooooooo  ****    ******  %%%%**  ******  ****%%  %%%%****    ****  ++oooooo  @@@@@@@@@@@@@@@@  ....",
"  ..oooo  @@@@@@@@@@@@@@@@  oooooooo  ****    ******  %%%%**  ******  ****%%  %%%%****    ****  ++oooooo  @@@@@@@@@@@@@@@@  ....",
"  ......                    oo++++&&  %%**    ******  ******  ******  **%%%%  %%******    ****  ++&&$$$$                    ..  ",
"  ......                    oo++++&&  %%**    ******  ******  ******  **%%%%  %%******    ****  ++&&$$$$                    ..  ",
"  ........  OOOOOOOOOOOO  &&oo++++&&  %%**    ******  ******  ******  **%%**  %%******    ****  ++&&$$$$$$  OOOOOOOOOOOO  ++..  ",
"  ........  OOOOOOOOOOOO  &&oo++++&&  %%**    ******  ******  ******  **%%**  %%******    ****  ++&&$$$$$$  OOOOOOOOOOOO  ++..  ",
"  ......                    oo++++&&  %%**    ******  ******  ******  ******  ********    ****  ++&&$$$$                    ..  ",
"  ......                    oo++++&&  %%**    ******  ******  ******  ******  ********    ****  ++&&$$$$                    ..  ",
"    ....  @@@@@@@@@@@@@@@@            %%        ****  ******  ******  ******  ******        **            @@@@@@@@@@@@@@@@  ....",
"    ....  @@@@@@@@@@@@@@@@            %%        ****  ******  ******  ******  ******        **            @@@@@@@@@@@@@@@@  ....",
"    ....  @@@@@@@@@@@@@@@@            **        ****  ******  ******  ******  ******        **            @@@@@@@@@@@@@@@@  oo..",
"    ....  @@@@@@@@@@@@@@@@            **        ****  ******  ******  ******  ******        **            @@@@@@@@@@@@@@@@  oo..",
"  ......                              **    **  ****  ******  ******  ******  %%****  **    **                              oo..",
"  ......                              **    **  ****  ******  ******  ******  %%****  **    **                              oo..",
"  ..$$$$$$  OOOOOOOOOOOO              %%    **  ****  ******  ******  **%%%%  %%****  **    **              OOOOOOOOOOOO  oo$$..",
"  ..$$$$$$  OOOOOOOOOOOO              %%    **  ****  ******  ******  **%%%%  %%****  **    **              OOOOOOOOOOOO  oo$$..",
"  ..$$$$                        oo&&  %%%%************%%%%%%**********%%%%%%%%****************  oo$$                        oo..",
"  ..$$$$                        oo&&  %%%%************%%%%%%**********%%%%%%%%****************  oo$$                        oo..",
"  ..oooo  @@@@@@@@@@@@@@@@      oooo  %%%%%%****%%%%%%%%%%%%%%%%******%%%%%%%%****************  oo&&      @@@@@@@@@@@@@@@@  oo..",
"  ..oooo  @@@@@@@@@@@@@@@@      oooo  %%%%%%****%%%%%%%%%%%%%%%%******%%%%%%%%****************  oo&&      @@@@@@@@@@@@@@@@  oo..",
"  ..oooo  @@@@@@@@@@@@@@@@      oooo                                                            oo&&      @@@@@@@@@@@@@@@@  oo..",
"  ..oooo  @@@@@@@@@@@@@@@@      oooo                                                            oo&&      @@@@@@@@@@@@@@@@  oo..",
"  ..oooo                    ++oooooo            oooooooooo++oo++oooo++++++oo++oooooo            oo&&&&&&                    oo..",
"  ..oooo                    ++oooooo            oooooooooo++oo++oooo++++++oo++oooooo            oo&&&&&&                    oo..",
"  ........  OOOOOOOOOOOO  ++oooo++oo++++          oo++++++&&++++oo++&&&&&&++++oooo          oooooooooooooo  OOOOOOOOOOOO  oooo..",
"  ........  OOOOOOOOOOOO  ++oooo++oo++++          oo++++++&&++++oo++&&&&&&++++oooo          oooooooooooooo  OOOOOOOOOOOO  oooo..",
"    ....                    $$&&++&&oooooo        $$$$$$$$$$$$$$$$$$$$$$$$$$$$&&++        ++++&&++++                        ....",
"    ....                    $$&&++&&oooooo        $$$$$$$$$$$$$$$$$$$$$$$$$$$$&&++        ++++&&++++                        ....",
"  ......  @@@@@@@@@@@@@@@@        oo&&&&            &&&&&&$$$$&&&&&&$$$$$$$$==$$            oo&&$$$$      @@@@@@@@@@@@@@@@  ..  ",
"  ......  @@@@@@@@@@@@@@@@        oo&&&&            &&&&&&$$$$&&&&&&$$$$$$$$==$$            oo&&$$$$      @@@@@@@@@@@@@@@@  ..  ",
"  ..oooo  @@@@@@@@@@@@@@@@                          &&&&&&&&&&&&&&&&&&&&&&&&$$$$                          @@@@@@@@@@@@@@@@  ..  ",
"  ..oooo  @@@@@@@@@@@@@@@@                          &&&&&&&&&&&&&&&&&&&&&&&&$$$$                          @@@@@@@@@@@@@@@@  ..  ",
"  ..oooo                                            $$$$$$$$&&&&&&&&&&&&&&&&&&&&                      &&                    ..  ",
"  ..oooo                                            $$$$$$$$&&&&&&&&&&&&&&&&&&&&                      &&                    ..  ",
"  ........  OOOOOOOOOOOO  oooo                    &&&&&&&&$$$$&&&&&&&&&&&&&&&&++oo                    &&&&  OOOOOOOOOOOO  oo..  ",
"  ........  OOOOOOOOOOOO  oooo                    &&&&&&&&$$$$&&&&&&&&&&&&&&&&++oo                    &&&&  OOOOOOOOOOOO  oo..  ",
"  ......                    oooo                &&&&&&&&&&$$$$&&&&&&&&&&&&&&&&++oo&&                &&&&                    ..  ",
"  ......                    oooo                &&&&&&&&&&$$$$&&&&&&&&&&&&&&&&++oo&&                &&&&                    ..  ",
"  ......  @@@@@@@@@@@@@@@@  oooooooo&&&&&&&&&&&&&&&&&&&&&&$$$$&&&&&&&&&&&&&&&&++oo&&&&&&&&$$&&&&&&&&&&&&  @@@@@@@@@@@@@@@@  ..  ",
"  ......  @@@@@@@@@@@@@@@@  oooooooo&&&&&&&&&&&&&&&&&&&&&&$$$$&&&&&&&&&&&&&&&&++oo&&&&&&&&$$&&&&&&&&&&&&  @@@@@@@@@@@@@@@@  ..  ",
"    ....  @@@@@@@@@@@@@@@@  oooooooooooooooooooooooooooooo++&&oooooo++++++&&oooooooooooooo&&oooo&&&&&&&&  @@@@@@@@@@@@@@@@  ..  ",
"    ....  @@@@@@@@@@@@@@@@  oooooooooooooooooooooooooooooo++&&oooooo++++++&&oooooooooooooo&&oooo&&&&&&&&  @@@@@@@@@@@@@@@@  ..  ",
"            @@@@@@@@@@@@    oo......oooooooooooooooooooooooooooooooooooooooooo..oooooooooooooooooooooooo    @@@@@@@@@@@@        ",
"            @@@@@@@@@@@@    oo......oooooooooooooooooooooooooooooooooooooooooo..oooooooooooooooooooooooo    @@@@@@@@@@@@        ",
"                            ....  ......................................................................                        ",
"                            ....  ......................................................................                        "
};
