/* XPM */
static char *_663713365164267a30d766861b72e85OWW891TkNwBOn5iL[] = {
/* columns rows colors chars-per-pixel */
"128 128 14 1 ",
"  c black",
". c #383830",
"X c #402230",
"o c #484848",
"O c gray38",
"+ c #707060",
"@ c #AD5F0A",
"# c #804A2C",
"$ c #FF931C",
"% c gray62",
"& c #D0A898",
"* c #B0BEC5",
"= c #C0C0C0",
"- c white",
/* pixels */
"                          ................  ........        ........      ..........................................            ",
"                          ................  ........        ........      ..........................................            ",
"          ..................oo####oo..........##++............++##..........++####&&++++++..####..########++++####........      ",
"          ..................oo####oo..........##++............++##..........++####&&++++++..####..########++++####........      ",
"  ..........####&&++######++++++++++&&&&&&++##&&&&&&oooooooo++&&&&oooooooo++&&&&            ++&&&&++++++++&&++##&&XX......      ",
"  ..........####&&++######++++++++++&&&&&&++##&&&&&&oooooooo++&&&&oooooooo++&&&&            ++&&&&++++++++&&++##&&XX......      ",
"  ..........####&&++######++++++++++&&&&&&++##&&&&&&oooooooo++&&&&oooooooo++&&&&    @@  $$  ++&&&&++++++++&&++##&&XX......      ",
"  ..........####&&++######++++++++++&&&&&&++##&&&&&&oooooooo++&&&&oooooooo++&&&&    @@  $$  ++&&&&++++++++&&++##&&XX......      ",
"  ..........####&&++######++++++++++&&&&&&++##&&&&&&                                    $$  ++&&&&++++++++&&++##&&XX......      ",
"  ..........####&&++######++++++++++&&&&&&++##&&&&&&                                    $$  ++&&&&++++++++&&++##&&XX......      ",
"  ..######&&##&&&&&&&&&&&&++++##&&++&&&&&&&&++        @@@@@@@@$$@@$$$$$$$$$$$$$$  $$    $$  XX&&&&++######&&##++&&++......      ",
"  ..######&&##&&&&&&&&&&&&++++##&&++&&&&&&&&++        @@@@@@@@$$@@$$$$$$$$$$$$$$  $$    $$  XX&&&&++######&&##++&&++......      ",
"  ..&&&&&&&&++&&&&&&++++++++++&&&&##&&&&&&##++  $$$$$$@@@@@@@@@@@@$$              $$    $$  ++++++++XXXXXX++++++++XX......      ",
"  ..&&&&&&&&++&&&&&&++++++++++&&&&##&&&&&&##++  $$$$$$@@@@@@@@@@@@$$              $$    $$  ++++++++XXXXXX++++++++XX......      ",
"  ..++++++####++++++######++++++XX++########++  $$$$      @@@@$$$$$$$$$$$$$$$$$$  $$    $$  XX++####XXXXXX++##++++XX......      ",
"  ..++++++####++++++######++++++XX++########++  $$$$      @@@@$$$$$$$$$$$$$$$$$$  $$    $$  XX++####XXXXXX++##++++XX......      ",
"  ..XXXXXX++XX################XX####XXXXXX##++        $$    $$$$$$$$$$$$$$$$$$$$  $$    $$  XX######XXXXXXXXXX####XX......      ",
"  ..XXXXXX++XX################XX####XXXXXX##++        $$    $$$$$$$$$$$$$$$$$$$$  $$    $$  XX######XXXXXXXXXX####XX......      ",
"  ..XXXXXX++##XXXXXXXXXXXXXXXXXXXXXXXXXXXXXXXXXX  XX  $$$$                        $$    $$  XXXXXXXXXXXXXXXXXXXXXXoo..........  ",
"  ..XXXXXX++##XXXXXXXXXXXXXXXXXXXXXXXXXXXXXXXXXX  XX  $$$$                        $$    $$  XXXXXXXXXXXXXXXXXXXXXXoo..........  ",
"  ........XXXXXXXXXXXXXXXXXXXXoo##XXooooooXXXX    XX  $$$$$$$$$$$$$$$$$$$$$$$$$$  $$$$@@@@  oo++oo&&oooooo++++++++&&&&&&&&##..  ",
"  ........XXXXXXXXXXXXXXXXXXXXoo##XXooooooXXXX    XX  $$$$$$$$$$$$$$$$$$$$$$$$$$  $$$$@@@@  oo++oo&&oooooo++++++++&&&&&&&&##..  ",
"  ........XXXXXXXXXXXXXXXXXXXXoo##XXooooooXX    ooXX                              $$@@@@@@  oo++oo&&oooooo++++++++&&&&&&&&##..  ",
"  ........XXXXXXXXXXXXXXXXXXXXoo##XXooooooXX    ooXX                              $$@@@@@@  oo++oo&&oooooo++++++++&&&&&&&&##..  ",
"  ........XXXXXXXXXXXXXXXXXXXXoo##XXooooooXX  XXooXX######  %%%%%%%%%%  XXoo##oo  @@@@@@@@  oo++oo&&oooooo++++++++&&&&&&&&##..  ",
"  ........XXXXXXXXXXXXXXXXXXXXoo##XXooooooXX  XXooXX######  %%%%%%%%%%  XXoo##oo  @@@@@@@@  oo++oo&&oooooo++++++++&&&&&&&&##..  ",
"..........++++XX++##++++++XXXX##XXoooooooo##    XX++++++++              ++######            XX##++++++++++++##++##++&&&&&&##..  ",
"..........++++XX++##++++++XXXX##XXoooooooo##    XX++++++++              ++######            XX##++++++++++++##++##++&&&&&&##..  ",
"..++&&&&&&++++####&&++++++++++++&&##XXXXXX&&##    ++++        %%%%  ++++++##ooXX++##++++++++XXXX++++++++++##XXXX####++++++&&....",
"..++&&&&&&++++####&&++++++++++++&&##XXXXXX&&##    ++++        %%%%  ++++++##ooXX++##++++++++XXXX++++++++++##XXXX####++++++&&....",
"..&&++++++##++##XX##++++++##++####++XXXXXX++++++        ++++    %%    XXXXXX##XX++##++++++++++XX##XXXXXXXXXX##++++##++++++++....",
"..&&++++++##++##XX##++++++##++####++XXXXXX++++++        ++++    %%    XXXXXX##XX++##++++++++++XX##XXXXXXXXXX##++++##++++++++....",
"..&&++++++++##++++XX######++++++##++######++######++++++++++##  %%%%    ++XXXXoo++++++++++XX++++XX++++++++++##++++++++++++##XX..",
"..&&++++++++##++++XX######++++++##++######++######++++++++++##  %%%%    ++XXXXoo++++++++++XX++++XX++++++++++##++++++++++++##XX..",
"..++############++++XXXXXX########XX################++++++####            XX##XX##########XX++##XXXX++++++################XX....",
"..++############++++XXXXXX########XX################++++++####            XX##XX##########XX++##XXXX++++++################XX....",
"..XX############++##########XX####XXooooooXX##############XX      %%%%    XXXXXXXXoo######XX######XXXXXXXXXXooooooXXXXXXXX......",
"..XX############++##########XX####XXooooooXX##############XX      %%%%    XXXXXXXXoo######XX######XXXXXXXXXXooooooXXXXXXXX......",
"..XX############++##########XX####XXooooooXX##############    %%%%%%    XXXXXXXXXXoo######XX######XXXXXXXXXXooooooXXXXXXXX....  ",
"..XX############++##########XX####XXooooooXX##############    %%%%%%    XXXXXXXXXXoo######XX######XXXXXXXXXXooooooXXXXXXXX....  ",
"..XX############++##########XX####XXooooooXX##########      %%%%%%    XXXXXXXXXXXXoo######XX######XXXXXXXXXXooooooXXXXXXXX....  ",
"..XX############++##########XX####XXooooooXX##########      %%%%%%    XXXXXXXXXXXXoo######XX######XXXXXXXXXXooooooXXXXXXXX....  ",
"..XXXXXXXX##################XXXXXXXXXXXXXXXXXXXXXX      %%%%%%%%    XXXXXXooooooooXXXXXXXXXXXXXXXXXXXXXXXXXXXXXXXXXXoooooo..    ",
"..XXXXXXXX##################XXXXXXXXXXXXXXXXXXXXXX      %%%%%%%%    XXXXXXooooooooXXXXXXXXXXXXXXXXXXXXXXXXXXXXXXXXXXoooooo..    ",
"....ooooooXXXXXXXXXXXXXXXXXXoooooooo########++++    %%%%%%%%      ##ooooooXXoooo++++++++++##ooooXXoooooooooooo##oooooooooo....  ",
"....ooooooXXXXXXXXXXXXXXXXXXoooooooo########++++    %%%%%%%%      ##ooooooXXoooo++++++++++##ooooXXoooooooooooo##oooooooooo....  ",
"  ........##XX++ooXXXXXXXXoooo##XX&&&&&&                                                  ##XX##oo++++++++++++++++&&&&&&&&##..  ",
"  ........##XX++ooXXXXXXXXoooo##XX&&&&&&                                                  ##XX##oo++++++++++++++++&&&&&&&&##..  ",
"....&&&&&&++++##++++ooooooXX##++++++++    $$$$$$@@$$$$$$$$$$$$@@@@@@$$$$$$$$$$$$$$$$$$$$    oooo####++++++++++++++++&&&&&&&&..  ",
"....&&&&&&++++##++++ooooooXX##++++++++    $$$$$$@@$$$$$$$$$$$$@@@@@@$$$$$$$$$$$$$$$$$$$$    oooo####++++++++++++++++&&&&&&&&..  ",
"..++&&&&&&++++++++++########XX++++XX                                                        XXXX++++########XXXX####&&&&&&++..  ",
"..++&&&&&&++++++++++########XX++++XX                                                        XXXX++++########XXXX####&&&&&&++..  ",
"..&&XXXXXX++##############XXoo++++  OO  @@@@$$                  $$$$$$$$$$$$$$$$@@@@$$$$$$  XX##++########XX++######++++++XX..  ",
"..&&XXXXXX++##############XXoo++++  OO  @@@@$$                  $$$$$$$$$$$$$$$$@@@@$$$$$$  XX##++########XX++######++++++XX..  ",
"..&&XXXXXX++##############XXoo++++  OO  @@@@$$  %%%%%%%%%%%%%%                        $$$$  XX##        ##XX++######++++++XX..  ",
"..&&XXXXXX++##############XXoo++++  OO  @@@@$$  %%%%%%%%%%%%%%                        $$$$  XX##        ##XX++######++++++XX..  ",
"..&&XXXXXX++##############XXoo++  OOOO  @@@@$$  %%%%%%%%  %%%%  --    ----    ----                  %%  ##XX++######++++++XX..  ",
"..&&XXXXXX++##############XXoo++  OOOO  @@@@$$  %%%%%%%%  %%%%  --    ----    ----                  %%  ##XX++######++++++XX..  ",
"..++&&&&&&XX++######XXXXXXXXXX    OO    @@@@@@            %%%%      ----    ----                    %%  XX++##XXXX++XXXXXX....  ",
"..++&&&&&&XX++######XXXXXXXXXX    OO    @@@@@@            %%%%      ----    ----                    %%  XX++##XXXX++XXXXXX....  ",
"....XXXXXX++XX####XXXXXXXXXXoo  OOOO    @@@@@@  %%%%%%%%  %%%%    ----    ----    --  $$@@  oo##  %%%%  XXXXXXXXXXXXXXXXXX....  ",
"....XXXXXX++XX####XXXXXXXXXXoo  OOOO    @@@@@@  %%%%%%%%  %%%%    ----    ----    --  $$@@  oo##  %%%%  XXXXXXXXXXXXXXXXXX....  ",
"  ..XXXXXXXXXXXXXXXXooooooXXXX  OO  XX  @@@@@@  %%%%%%%%%%%%%%                        $$@@  XX    %%    XXXXXXXXoo########++....",
"  ..XXXXXXXXXXXXXXXXooooooXXXX  OO  XX  @@@@@@  %%%%%%%%%%%%%%                        $$@@  XX    %%    XXXXXXXXoo########++....",
"  ........XXooooXXoooooooo##  OOOO  oo  @@@@$$                  @@@@$$$$$$$$$$  $$$$$$$$$$  &&          ooooXXXXXXXX&&&&&&&&##..",
"  ........XXooooXXoooooooo##  OOOO  oo  @@@@$$                  @@@@$$$$$$$$$$  $$$$$$$$$$  &&          ooooXXXXXXXX&&&&&&&&##..",
"  ........####oo##########  OOOO  ++++  @@@@$$$$$$$$$$$$$$$$$$$$@@@@@@$$$$$$$$              ++++++++######oo&&++++XX######&&++..",
"  ........####oo##########  OOOO  ++++  @@@@$$$$$$$$$$$$$$$$$$$$@@@@@@$$$$$$$$              ++++++++######oo&&++++XX######&&++..",
"  ..++++++&&++++++++&&&&&&  OO    ++++  @@$$$$$$$$$$$$$$$$$$$$$$@@@@@@@@$$$$$$$$$$  %%  $$  ######++oooooo++##++++XXXXXXXX++XX..",
"  ..++++++&&++++++++&&&&&&  OO    ++++  @@$$$$$$$$$$$$$$$$$$$$$$@@@@@@@@$$$$$$$$$$  %%  $$  ######++oooooo++##++++XXXXXXXX++XX..",
"  ..++++++&&++++++++&&&&&&  OO  ##++++  $$$$$$$$            $$$$@@@@@@@@@@@@@@@@$$  %%  $$  ######++oooooo++##++++XXXXXXXX++XX..",
"  ..++++++&&++++++++&&&&&&  OO  ##++++  $$$$$$$$            $$$$@@@@@@@@@@@@@@@@$$  %%  $$  ######++oooooo++##++++XXXXXXXX++XX..",
"  ..++++++&&++++++++&&&&&&  OO  ##++++  $$$$$$                $$$$@@@@@@@@@@@@@@$$  %%  $$  ######++oooooo++##++++XXXXXXXX++XX..",
"  ..++++++&&++++++++&&&&&&  OO  ##++++  $$$$$$                $$$$@@@@@@@@@@@@@@$$  %%  $$  ######++oooooo++##++++XXXXXXXX++XX..",
"  ..&&&&&&++++######++++++  OO  ++####  $$$$      OO  $$        $$$$$$@@@@@@@@$$$$  %%  $$  ++######XXXXXXoo++####XXXXXXXX&&++..",
"  ..&&&&&&++++######++++++  OO  ++####  $$$$      OO  $$        $$$$$$@@@@@@@@$$$$  %%  $$  ++######XXXXXXoo++####XXXXXXXX&&++..",
"  ..++++++++++++++++######  OO  XX++    $$      OO  OO  $$        $$$$@@@@@@@@@@$$  %%  $$  ########XXXXXXoo++######XXXXXX++##..",
"  ..++++++++++++++++######  OO  XX++    $$      OO  OO  $$        $$$$@@@@@@@@@@$$  %%  $$  ########XXXXXXoo++######XXXXXX++##..",
"  ..XXXXXX##XXXX####++++++  OO  XX##              OO  OO  $$        $$$$@@@@@@@@$$  %%  $$  ####XXXXooooooooXX############XX++..",
"  ..XXXXXX##XXXX####++++++  OO  XX##              OO  OO  $$        $$$$@@@@@@@@$$  %%  $$  ####XXXXooooooooXX############XX++..",
"  ..XXXXXXXX##++##########  OO    ##  $$      $$$$  $$  OO  $$        $$$$$$$$@@@@  %%  $$  XXXXXXXXooooooooXXXXXXXXXXXXXXXXXX..",
"  ..XXXXXXXX##++##########  OO    ##  $$      $$$$  $$  OO  $$        $$$$$$$$@@@@  %%  $$  XXXXXXXXooooooooXXXXXXXXXXXXXXXXXX..",
"  ..XXXXXXXXXXXXXXXXXXXXXX  OOOO            $$$$$$$$$$$$  OO  $$        $$$$$$$$$$  %%  $$  ooXXooXXXXXXXXooooXXXXXXoooooooo....",
"  ..XXXXXXXXXXXXXXXXXXXXXX  OOOO            $$$$$$$$$$$$  OO  $$        $$$$$$$$$$  %%  $$  ooXXooXXXXXXXXooooXXXXXXoooooooo....",
"  ........XXXX##++##++++++    OOOO  $$      $$@@@@$$$$$$$$  OO  $$        $$$$$$$$  %%  $$  XX##oo##++++++++XXXXXX++XXXXXXoo..  ",
"  ........XXXX##++##++++++    OOOO  $$      $$@@@@$$$$$$$$  OO  $$        $$$$$$$$  %%  $$  XX##oo##++++++++XXXXXX++XXXXXXoo..  ",
"  ........XXXX##++##++++++##    OO        $$@@@@@@@@$$$$$$$$  OO  $$      $$$$$$$$  %%  $$  XX##oo##++++++++XXXXXX++XXXXXXoo..  ",
"  ........XXXX##++##++++++##    OO        $$@@@@@@@@$$$$$$$$  OO  $$      $$$$$$$$  %%  $$  XX##oo##++++++++XXXXXX++XXXXXXoo..  ",
"  ........XXXX##++##++++++##XX                            $$$$  OO  $$      $$$$$$  %%  $$  XX##oo##++++++++XXXXXX++XXXXXXoo..  ",
"  ........XXXX##++##++++++##XX                            $$$$  OO  $$      $$$$$$  %%  $$  XX##oo##++++++++XXXXXX++XXXXXXoo..  ",
"    ......XX++++++++XXXXXX++++++        ================  $$$$$$  OO  $$      $$$$  %%  @@  ##XXXX++&&&&&&++##&&&&++########....",
"    ......XX++++++++XXXXXX++++++        ================  $$$$$$  OO  $$      $$$$  %%  @@  ##XXXX++&&&&&&++##&&&&++########....",
"    ......++##++##++XXXXXX++####                          @@$$$$$$  OO  $$      $$          ##ooXX++######XX++++++++++++++++XX..",
"    ......++##++##++XXXXXX++####                          @@$$$$$$  OO  $$      $$          ##ooXX++######XX++++++++++++++++XX..",
"  ........XX++######++++++XX##          ================  @@@@$$$$$$      $$      $$@@@@@@  ##ooXXXXXXXXXXXX++######++++++XXXX..",
"  ........XX++######++++++XX##          ================  @@@@$$$$$$      $$      $$@@@@@@  ##ooXXXXXXXXXXXX++######++++++XXXX..",
"  ..++++++XX##############XX        ##    ==============  @@@@@@$$  OOOOOO          $$@@@@  ##XXXXXXXXXXXXXXXX####XXXXXXXXXX++..",
"  ..++++++XX##############XX        ##    ==============  @@@@@@$$  OOOOOO          $$@@@@  ##XXXXXXXXXXXXXXXX####XXXXXXXXXX++..",
"  ..++++++XX########XXXXXX                                @@        OOOOOO  $$        $$@@  ####XX++########++####XXXXXXXX##XX..",
"  ..++++++XX########XXXXXX                                @@        OOOOOO  $$        $$@@  ####XX++########++####XXXXXXXX##XX..",
"  ..XXXXXXXXXXXXXXXXXXXX          OO      OO    $$@@@@$$$$@@  ****  OOOOOO    $$        $$  ####XX################++######XXXX..",
"  ..XXXXXXXXXXXXXXXXXXXX          OO      OO    $$@@@@$$$$@@  ****  OOOOOO    $$        $$  ####XX################++######XXXX..",
"  ..XXXXXXXXXXXXXXXXXXXX      OOOOOO      OOOOOO              ****                          ####XX################++######XXXX..",
"  ..XXXXXXXXXXXXXXXXXXXX      OOOOOO      OOOOOO              ****                          ####XX################++######XXXX..",
"  ..XXXXXXXXXXXXXXXXXX      OOOOOOOO      OOOOOOOO  XXXX    **********    XXooXXXXXX        ####XX################++######XXXX..",
"  ..XXXXXXXXXXXXXXXXXX      OOOOOOOO      OOOOOOOO  XXXX    **********    XXooXXXXXX        ####XX################++######XXXX..",
"  ........ooooXXXXXXoo      OOOO              OOOO  oooo    **********    ooooXXXXXXXX        XXXXXXXXXXXXXXXXXXXXXXXXXXXXXXXX..",
"  ........ooooXXXXXXoo      OOOO              OOOO  oooo    **********    ooooXXXXXXXX        XXXXXXXXXXXXXXXXXXXXXXXXXXXXXXXX..",
"    ......ooXX++XXXX      OOOOOO              OOOOOO  ++    **********    ++++##ooXXoooo        ooooXXXXXX##++##++##XXXXXXXX....",
"    ......ooXX++XXXX      OOOOOO              OOOOOO  ++    **********    ++++##ooXXoooo        ooooXXXXXX##++##++##XXXXXXXX....",
"  ........####++&&&&                                  ##                  ++&&++oo########        ++++++++++XX++++++++++++XX..  ",
"  ........####++&&&&                                  ##                  ++&&++oo########        ++++++++++XX++++++++++++XX..  ",
"  ..XXXXXX++++++++++                                  ##    ##########    ##++++ooXXXX              ######++XX++##++######++..  ",
"  ..XXXXXX++++++++++                                  ##    ##########    ##++++ooXXXX              ######++XX++##++######++..  ",
"  ..XXXXXXXX++######                                          ########    ##            OO  OO        ####XX++######++++++XX..  ",
"  ..XXXXXXXX++######                                          ########    ##            OO  OO        ####XX++######++++++XX..  ",
"  ........XXXXXX####      OOOOOO              OOOOOO                                  OOOO  OOOO        ##XX##############XX..  ",
"  ........XXXXXX####      OOOOOO              OOOOOO                                  OOOO  OOOO        ##XX##############XX..  ",
"  ........XXXXXX####        OOOO              OOOO                                  OOOO      OOOO      ##XX##############XX..  ",
"  ........XXXXXX####        OOOO              OOOO                                  OOOO      OOOO      ##XX##############XX..  ",
"  ........XXXXXX####XX      OOOOOOOO      OOOOOOOO            ##############                            ##XX##############XX..  ",
"  ........XXXXXX####XX      OOOOOOOO      OOOOOOOO            ##############                            ##XX##############XX..  ",
"    ........XXXXXXXXXX        OOOOOO      OOOOOO  XXXXXXXXoo##XXXXXXoooooo##XXXXXX  OOOO      OOOO      ##XX##XXXXXXXXXXXX....  ",
"    ........XXXXXXXXXX        OOOOOO      OOOOOO  XXXXXXXXoo##XXXXXXoooooo##XXXXXX  OOOO      OOOO      ##XX##XXXXXXXXXXXX....  ",
"          ....XXooooXXXX          OO      OO                                          OOOO  OOOO        XXXXXXXXXXoo........    ",
"          ....XXooooXXXX          OO      OO                                          OOOO  OOOO        XXXXXXXXXXoo........    ",
"            ..............                                                                            ....................      ",
"            ..............                                                                            ....................      "
};
