/* XPM */
static char *c29e2574c1fc48c1e74a501d43f5819dLenWu6Srs0GDrlgM[] = {
/* columns rows colors chars-per-pixel */
"128 128 8 1 ",
"  c black",
". c #3F202F",
"X c #393931",
"o c #402230",
"O c #484848",
"+ c #707060",
"@ c #804A2C",
"# c #D0A898",
/* pixels */
"                        XXXXXXXXXXXXXXXX   XXXXXXXXXX      XXXXXXXXXX   XXXXXXXXXXXXXXXXXXXXXXXXXXXXXXXXXXXXXXXXXXXXX           ",
"                        XXXXXXXXXXXXXXXX   XXXXXXXXXX      XXXXXXXXXX   XXXXXXXXXXXXXXXXXXXXXXXXXXXXXXXXXXXXXXXXXXXXX           ",
"                        XXXXXXXXXXXXXXXX   XXXXXXXXXX      XXXXXXXXXX   XXXXXXXXXXXXXXXXXXXXXXXXXXXXXXXXXXXXXXXXXXXXX           ",
"        XXXXXXXXXXXXXXXXXXXOO@@@@@@OOXXXXXXXX@@@+++XXXXXXXXXX+++@@@XXXXXXXX++@@@@@@##+++XXX@@@@@XXX@@@@@+++++@@@@@@XXXXX        ",
"        XXXXXXXXXXXXXXXXXXXOO@@@@@@OOXXXXXXXX@@@+++XXXXXXXXXX+++@@@XXXXXXXX++@@@@@@##+++XXX@@@@@XXX@@@@@+++++@@@@@@XXXXX        ",
"   XXXXXXXX@@@@@###++@@@+++++++++++++###+++@@########OOOOOO++######OOOOO+++##########+++OOO++######+++++###++@@@###ooXXX        ",
"   XXXXXXXX@@@@@###++@@@+++++++++++++###+++@@########OOOOOO++######OOOOO+++##########+++OOO++######+++++###++@@@###ooXXX        ",
"   XXXXXXXX@@@@@###++@@@+++++++++++++###+++@@########OOOOOO++######OOOOO+++##########+++OOO++######+++++###++@@@###ooXXX        ",
"   XX@@@###@@###########+++++@@@###++######++###+++##@@@OOO++###+++++OOO+++##+++########OOOoo######++@@@###@@+++###++XXX        ",
"   XX@@@###@@###########+++++@@@###++######++###+++##@@@OOO++###+++++OOO+++##+++########OOOoo######++@@@###@@+++###++XXX        ",
"   XX@@@###@@###########+++++@@@###++######++###+++##@@@OOO++###+++++OOO+++##+++########OOOoo######++@@@###@@+++###++XXX        ",
"   XX######++########++++++++######@@###@@@++###+++++@@@@@@++++++++++OOO++++++++++++++++OOO++++++++++ooo+++++++++++ooXXX        ",
"   XX######++########++++++++######@@###@@@++###+++++@@@@@@++++++++++OOO++++++++++++++++OOO++++++++++ooo+++++++++++ooXXX        ",
"   XX+++@@@@@++++++++@@@++++++++ooo++@@@@@@++++++++++@@@@@@+++++@@@ooooo+++++@@@@@@++@@@ooooo+++@@@@@ooo+++@@++++++ooXXX        ",
"   XX+++@@@@@++++++++@@@++++++++ooo++@@@@@@++++++++++@@@@@@+++++@@@ooooo+++++@@@@@@++@@@ooooo+++@@@@@ooo+++@@++++++ooXXX        ",
"   XX+++@@@@@++++++++@@@++++++++ooo++@@@@@@++++++++++@@@@@@+++++@@@ooooo+++++@@@@@@++@@@ooooo+++@@@@@ooo+++@@++++++ooXXX        ",
"   XXooo+++oo@@@@@@@@@@@@@@@@ooo@@@@@ooo@@@++@@@@@@@@ooo@@@@@@@@@@@oooooooo@@@@@@@@@@oooooooo@@@@@@@@oooooooo@@@@@@ooXXX        ",
"   XXooo+++oo@@@@@@@@@@@@@@@@ooo@@@@@ooo@@@++@@@@@@@@ooo@@@@@@@@@@@oooooooo@@@@@@@@@@oooooooo@@@@@@@@oooooooo@@@@@@ooXXX        ",
"   XXooo+++oo@@@@@@@@@@@@@@@@ooo@@@@@ooo@@@++@@@@@@@@ooo@@@@@@@@@@@oooooooo@@@@@@@@@@oooooooo@@@@@@@@oooooooo@@@@@@ooXXX        ",
"   XXooo+++@@oooooooooooooooooooooooooooooooooooooooooooOOOooooooooooOOOoooooooooooooooooooooooooooooooooooooooooooOOXXXXXXXX   ",
"   XXooo+++@@oooooooooooooooooooooooooooooooooooooooooooOOOooooooooooOOOoooooooooooooooooooooooooooooooooooooooooooOOXXXXXXXX   ",
"   XXXXXoooooooooooooooooooooOOO@@@ooOOOooooooooOOOoo@@@oooOO@@@OOO@@oooOOO@@OOOoooOO@@@oooOO+++OOO##OOO+++++++++++#####@@@XX   ",
"   XXXXXoooooooooooooooooooooOOO@@@ooOOOooooooooOOOoo@@@oooOO@@@OOO@@oooOOO@@OOOoooOO@@@oooOO+++OOO##OOO+++++++++++#####@@@XX   ",
"   XXXXXoooooooooooooooooooooOOO@@@ooOOOooooooooOOOoo@@@oooOO@@@OOO@@oooOOO@@OOOoooOO@@@oooOO+++OOO##OOO+++++++++++#####@@@XX   ",
"XXXXXXXX+++++ooo+++@@+++ooooo@@@oooOOOOO@@@++oooooo+++++++++++++@@@+++++@@@@@@@@+++#####+++oo@@@+++++++++++@@+++@@@++###@@@XX   ",
"XXXXXXXX+++++ooo+++@@+++ooooo@@@oooOOOOO@@@++oooooo+++++++++++++@@@+++++@@@@@@@@+++#####+++oo@@@+++++++++++@@+++@@@++###@@@XX   ",
"XXXXXXXX+++++ooo+++@@+++ooooo@@@oooOOOOO@@@++oooooo+++++++++++++@@@+++++@@@@@@@@+++#####+++oo@@@+++++++++++@@+++@@@++###@@@XX   ",
"XXX++###+++++@@@@@@##+++++++++++###@@ooo###@@@@@+++++++++++++@@@@@@+++++@@@OOooo+++@@++++++ooooo++++++++@@@ooooo@@@@@+++###XX   ",
"XXX++###+++++@@@@@@##+++++++++++###@@ooo###@@@@@+++++++++++++@@@@@@+++++@@@OOooo+++@@++++++ooooo++++++++@@@ooooo@@@@@+++###XX   ",
"XXX##+++@@@++@@@ooo@@+++@@@++@@@@@@++ooo++++++++@@@++++++++@@@@@@@@++oooooo@@ooo+++@@++++++++ooo@@@oooooooo@@++++++@@++++++XXXXX",
"XXX##+++@@@++@@@ooo@@+++@@@++@@@@@@++ooo++++++++@@@++++++++@@@@@@@@++oooooo@@ooo+++@@++++++++ooo@@@oooooooo@@++++++@@++++++XXXXX",
"XXX##+++@@@++@@@ooo@@+++@@@++@@@@@@++ooo++++++++@@@++++++++@@@@@@@@++oooooo@@ooo+++@@++++++++ooo@@@oooooooo@@++++++@@++++++XXXXX",
"XXX##++++++@@++++++oo@@@++++++++@@@++@@@+++@@@@@@@@++++++++@@@@@OOO+++++oooooOOO++++++++ooo+++++ooo++++++++@@+++++++++++@@@ooXXX",
"XXX##++++++@@++++++oo@@@++++++++@@@++@@@+++@@@@@@@@++++++++@@@@@OOO+++++oooooOOO++++++++ooo+++++ooo++++++++@@+++++++++++@@@ooXXX",
"XXX##++++++@@++++++oo@@@++++++++@@@++@@@+++@@@@@@@@++++++++@@@@@OOO+++++oooooOOO++++++++ooo+++++ooo++++++++@@+++++++++++@@@ooXXX",
"XXX++@@@@@@@@@@@+++++ooo@@@@@@@@@@@oo@@@@@@@@@@@@@@@@+++@@@@@@@@ooo++@@@ooo@@ooo@@@@@@@@ooo++@@@ooooo+++@@@@@@@@@@@@@@@@oooXXXXX",
"XXX++@@@@@@@@@@@+++++ooo@@@@@@@@@@@oo@@@@@@@@@@@@@@@@+++@@@@@@@@ooo++@@@ooo@@ooo@@@@@@@@ooo++@@@ooooo+++@@@@@@@@@@@@@@@@oooXXXXX",
"XXXoo@@@@@@@@@@@+++@@@@@@@@oo@@@@@@ooOOOooo@@@@@@@@@@@@@ooooooooooo@@ooooooooooooooOO@@@ooo@@@@@@@@ooooooooOOOOOOOOoooooXXXXX   ",
"XXXoo@@@@@@@@@@@+++@@@@@@@@oo@@@@@@ooOOOooo@@@@@@@@@@@@@ooooooooooo@@ooooooooooooooOO@@@ooo@@@@@@@@ooooooooOOOOOOOOoooooXXXXX   ",
"XXXoo@@@@@@@@@@@+++@@@@@@@@oo@@@@@@ooOOOooo@@@@@@@@@@@@@ooooooooooo@@ooooooooooooooOO@@@ooo@@@@@@@@ooooooooOOOOOOOOoooooXXXXX   ",
"XXXooooo@@@@@@@@@@@@@@@@@@@ooooooooooooooooooooooooooooooooOOOOOOOOoooooOOOOOOOOOOOooooooooooooooooooooooooooooooooooOOOXXX     ",
"XXXooooo@@@@@@@@@@@@@@@@@@@ooooooooooooooooooooooooooooooooOOOOOOOOoooooOOOOOOOOOOOooooooooooooooooooooooooooooooooooOOOXXX     ",
"XXXooooo@@@@@@@@@@@@@@@@@@@ooooooooooooooooooooooooooooooooOOOOOOOOoooooOOOOOOOOOOOooooooooooooooooooooooooooooooooooOOOXXX     ",
"XXXXXOOOoooooooooooooooooooOOOOOOOOOO@@@@@@+++++@@@@@@@@+++ooOOOOOO@@OOOoooOOOOO++++++++@@@OOOOOoooOOOOOOOOOO@@@OOOOOOOOXXXXX   ",
"XXXXXOOOoooooooooooooooooooOOOOOOOOOO@@@@@@+++++@@@@@@@@+++ooOOOOOO@@OOOoooOOOOO++++++++@@@OOOOOoooOOOOOOOOOO@@@OOOOOOOOXXXXX   ",
"   XXXXX@@@oo+++OOOoooooOOOOO@@@ooo#####+++++++++++++++++++++@@@###++++++++@@########+++@@@oo@@@OOO++++++++++++++++#####@@@XX   ",
"   XXXXX@@@oo+++OOOoooooOOOOO@@@ooo#####+++++++++++++++++++++@@@###++++++++@@########+++@@@oo@@@OOO++++++++++++++++#####@@@XX   ",
"   XXXXX@@@oo+++OOOoooooOOOOO@@@ooo#####+++++++++++++++++++++@@@###++++++++@@########+++@@@oo@@@OOO++++++++++++++++#####@@@XX   ",
"XXXXX###+++++@@@+++++OOOooo@@+++++++++++@@@+++++++++++++@@@+++++@@@++++++++++@@@@@@+++++oooOOOOO@@@@@++++++++++++++++######XX   ",
"XXXXX###+++++@@@+++++OOOooo@@+++++++++++@@@+++++++++++++@@@+++++@@@++++++++++@@@@@@+++++oooOOOOO@@@@@++++++++++++++++######XX   ",
"XXXXX###+++++@@@+++++OOOooo@@+++++++++++@@@+++++++++++++@@@+++++@@@++++++++++@@@@@@+++++oooOOOOO@@@@@++++++++++++++++######XX   ",
"XXX++###+++++++++++++@@@@@@oo++++++oo@@@+++@@@@@@@@+++++@@@@@@@@@@@++@@@@@@@@@@@++++++++oooooooo+++++@@@@@@ooooo@@@@@###+++XX   ",
"XXX++###+++++++++++++@@@@@@oo++++++oo@@@+++@@@@@@@@+++++@@@@@@@@@@@++@@@@@@@@@@@++++++++oooooooo+++++@@@@@@ooooo@@@@@###+++XX   ",
"XXX##ooo+++@@@@@@@@@@@@@oooOO++++++++ooo+++@@@@@@@@@@+++++++++++@@@++@@@@@@@@@@@@@@++oooooooo@@@+++@@@@@ooo++@@@@@@@@+++oooXX   ",
"XXX##ooo+++@@@@@@@@@@@@@oooOO++++++++ooo+++@@@@@@@@@@+++++++++++@@@++@@@@@@@@@@@@@@++oooooooo@@@+++@@@@@ooo++@@@@@@@@+++oooXX   ",
"XXX##ooo+++@@@@@@@@@@@@@oooOO++++++++ooo+++@@@@@@@@@@+++++++++++@@@++@@@@@@@@@@@@@@++oooooooo@@@+++@@@@@ooo++@@@@@@@@+++oooXX   ",
"XXX++###ooo++@@@@@@@@oooooooo+++@@@@@+++ooo++@@@+++@@@@@@@@@@+++@@@@@@@@ooo++@@@++++++++ooooo+++oooooooo+++@@oooooo++oooXXXXX   ",
"XXX++###ooo++@@@@@@@@oooooooo+++@@@@@+++ooo++@@@+++@@@@@@@@@@+++@@@@@@@@ooo++@@@++++++++ooooo+++oooooooo+++@@oooooo++oooXXXXX   ",
"XXX++###ooo++@@@@@@@@oooooooo+++@@@@@+++ooo++@@@+++@@@@@@@@@@+++@@@@@@@@ooo++@@@++++++++ooooo+++oooooooo+++@@oooooo++oooXXXXX   ",
"XXXXXooo+++oo@@@@@@ooooooooOOoooooo@@@@@ooooo@@@@@@@@@@@+++@@@@@@@@@@ooo+++@@@@@@@@@@@@@ooo++@@@ooooooooooooooooooooooooXXXXX   ",
"XXXXXooo+++oo@@@@@@ooooooooOOoooooo@@@@@ooooo@@@@@@@@@@@+++@@@@@@@@@@ooo+++@@@@@@@@@@@@@ooo++@@@ooooooooooooooooooooooooXXXXX   ",
"   XXooooooooooooooooOOOooooooooooooooooooooooooooooooooooooooooooooooooooooooooooooooooooooo+++ooo@@oooooooooooOOO@@@@@+++XXXXX",
"   XXooooooooooooooooOOOooooooooooooooooooooooooooooooooooooooooooooooooooooooooooooooooooooo+++ooo@@oooooooooooOOO@@@@@+++XXXXX",
"   XXooooooooooooooooOOOooooooooooooooooooooooooooooooooooooooooooooooooooooooooooooooooooooo+++ooo@@oooooooooooOOO@@@@@+++XXXXX",
"   XXXXXoooOOOOOoooOOOOO@@@ooooooooOOOOOOOOOOOOO+++++OOOOOOOO@@@+++OOOOOOOO@@++++++++@@@+++##+++ooo@@OOOOOOoooooooo..######@@XXX",
"   XXXXXoooOOOOOoooOOOOO@@@ooooooooOOOOOOOOOOOOO+++++OOOOOOOO@@@+++OOOOOOOO@@++++++++@@@+++##+++ooo@@OOOOOOoooooooo..######@@XXX",
"   XXXXXoooOOOOOoooOOOOO@@@ooooooooOOOOOOOOOOOOO+++++OOOOOOOO@@@+++OOOOOOOO@@++++++++@@@+++##+++ooo@@OOOOOOoooooooo..######@@XXX",
"   XXXXX@@@@@OOO@@@@@@@@ooo@@++++++++++++++++++++++##++++++++++++++++@@@ooo++++++++##ooo+++++++++++++@@@OOO##++++++oo@@@###++XXX",
"   XXXXX@@@@@OOO@@@@@@@@ooo@@++++++++++++++++++++++##++++++++++++++++@@@ooo++++++++##ooo+++++++++++++@@@OOO##++++++oo@@@###++XXX",
"   XX+++###++++++++++###@@@+++++@@@+++++++++++++@@@++++++++++++++++++OOOOOO++++++++++ooo+++@@@@@@@@++OOO+++@@++++++ooooo+++ooXXX",
"   XX+++###++++++++++###@@@+++++@@@+++++++++++++@@@++++++++++++++++++OOOOOO++++++++++ooo+++@@@@@@@@++OOO+++@@++++++ooooo+++ooXXX",
"   XX+++###++++++++++###@@@+++++@@@+++++++++++++@@@++++++++++++++++++OOOOOO++++++++++ooo+++@@@@@@@@++OOO+++@@++++++ooooo+++ooXXX",
"   XX###+++++@@@@@@@@+++ooooo++++++@@@@@@@@@@@@@+++@@@@@+++OO+++@@@@@OOOOOO++@@@+++@@ooo+++++@@@@@@@@oooOOO++@@@@@@ooooo###++XXX",
"   XX###+++++@@@@@@@@+++ooooo++++++@@@@@@@@@@@@@+++@@@@@+++OO+++@@@@@OOOOOO++@@@+++@@ooo+++++@@@@@@@@oooOOO++@@@@@@ooooo###++XXX",
"   XX###+++++@@@@@@@@+++ooooo++++++@@@@@@@@@@@@@+++@@@@@+++OO+++@@@@@OOOOOO++@@@+++@@ooo+++++@@@@@@@@oooOOO++@@@@@@ooooo###++XXX",
"   XX++++++++++++++++@@@++++++++ooo++@@@@@@@@@@@@@@@@@@@OOO@@@@@@@@@@OOOooo@@@@@+++++ooo@@@@@@@@@@@@@oooOOO++@@@@@@@@ooo+++@@XXX",
"   XX++++++++++++++++@@@++++++++ooo++@@@@@@@@@@@@@@@@@@@OOO@@@@@@@@@@OOOooo@@@@@+++++ooo@@@@@@@@@@@@@oooOOO++@@@@@@@@ooo+++@@XXX",
"   XXooo@@@ooooo@@@@@+++@@@@@+++ooo@@@@@@@@oo@@@@@@@@oooOOOooooooooooOOOoooooooo+++@@ooo@@@@@@@@oooooOOOOOOoo@@@@@@@@@@@ooo++XXX",
"   XXooo@@@ooooo@@@@@+++@@@@@+++ooo@@@@@@@@oo@@@@@@@@oooOOOooooooooooOOOoooooooo+++@@ooo@@@@@@@@oooooOOOOOOoo@@@@@@@@@@@ooo++XXX",
"   XXooo@@@ooooo@@@@@+++@@@@@+++ooo@@@@@@@@oo@@@@@@@@oooOOOooooooooooOOOoooooooo+++@@ooo@@@@@@@@oooooOOOOOOoo@@@@@@@@@@@ooo++XXX",
"   XXoooooo@@+++@@@@@@@@@@@@@@@@ooo@@@@@@@@ooooooooooOOOoooOOooooooOOoooOOOooooooooooooooooooooooooooOOOOOOooooooooooooooooooXXX",
"   XXoooooo@@+++@@@@@@@@@@@@@@@@ooo@@@@@@@@ooooooooooOOOoooOOooooooOOoooOOOooooooooooooooooooooooooooOOOOOOooooooooooooooooooXXX",
"   XXoooooo@@+++@@@@@@@@@@@@@@@@ooo@@@@@@@@ooooooooooOOOoooOOooooooOOoooOOOooooooooooooooooooooooooooOOOOOOooooooooooooooooooXXX",
"   XXooooooooooooooooooooooooooooooooooooooooooooooooOOOOOO@@OOOoooOOOOO@@@OOooooooooooooooOOoooOOOoooooOOOOOooooooooOOOOOOXXXXX",
"   XXooooooooooooooooooooooooooooooooooooooooooooooooOOOOOO@@OOOoooOOOOO@@@OOooooooooooooooOOoooOOOoooooOOOOOooooooooOOOOOOXXXXX",
"   XXXXXooooo@@@+++@@+++@@@ooOOOOOO@@OOOOOOOOoooOOO@@+++++++++++++++++++++++++++OOO++++++++oo@@@OOO@@++++++oooooooo++oooOOOXX+++",
"   XXXXXooooo@@@+++@@+++@@@ooOOOOOO@@OOOOOOOOoooOOO@@+++++++++++++++++++++++++++OOO++++++++oo@@@OOO@@++++++oooooooo++oooOOOXX+++",
"   XXXXXooooo@@@+++@@+++@@@ooOOOOOO@@OOOOOOOOoooOOO@@+++++++++++++++++++++++++++OOO++++++++oo@@@OOO@@++++++oooooooo++oooOOOXX+++",
"     XXXooo++++++++++ooo+++++++++++@@ooo+++@@@@@OOO++###+++++@@@@@@@@++++++@@@@@@@@@@###+++@@oooooo++###+++@@######++@@@@@@XXXXX",
"     XXXooo++++++++++ooo+++++++++++@@ooo+++@@@@@OOO++###+++++@@@@@@@@++++++@@@@@@@@@@###+++@@oooooo++###+++@@######++@@@@@@XXXXX",
"     XXXooo++++++++++ooo+++++++++++@@ooo+++@@@@@OOO++###+++++@@@@@@@@++++++@@@@@@@@@@###+++@@oooooo++###+++@@######++@@@@@@XXXXX",
"     XXX+++@@+++@@@++ooo+++@@@@@+++@@@@@+++oooooOOO+++++@@@@@@@@@@@@@@@@@@@@@@@@@@@oooooooo@@OOOooo++@@@ooo++++++++++++++++ooXXX",
"     XXX+++@@+++@@@++ooo+++@@@@@+++@@@@@+++oooooOOO+++++@@@@@@@@@@@@@@@@@@@@@@@@@@@oooooooo@@OOOooo++@@@ooo++++++++++++++++ooXXX",
"   XXXXXooo++@@@@@@@@+++ooo@@@@@@@@++@@@++++++++ooo@@@@@@@@@@@@@@@@@@@@@+++++++++++++++++++@@OOOooooooooooo++@@@@@@@@+++oooooXXX",
"   XXXXXooo++@@@@@@@@+++ooo@@@@@@@@++@@@++++++++ooo@@@@@@@@@@@@@@@@@@@@@+++++++++++++++++++@@OOOooooooooooo++@@@@@@@@+++oooooXXX",
"   XXXXXooo++@@@@@@@@+++ooo@@@@@@@@++@@@++++++++ooo@@@@@@@@@@@@@@@@@@@@@+++++++++++++++++++@@OOOooooooooooo++@@@@@@@@+++oooooXXX",
"   XX+++ooo@@@@@@@@@@@@@ooo@@@@@@@@@@@@@+++@@@@@oooOO@@@@@@@@@@@@@@@@++++++@@@@@@@@@@@@@@@@@@oooooooooooooooo@@@@@@oooooooo++XXX",
"   XX+++ooo@@@@@@@@@@@@@ooo@@@@@@@@@@@@@+++@@@@@oooOO@@@@@@@@@@@@@@@@++++++@@@@@@@@@@@@@@@@@@oooooooooooooooo@@@@@@oooooooo++XXX",
"   XX+++ooo@@@@@@@@@@@@@ooo@@@@@@@@@@@@@+++@@@@@oooOO@@@@@@@@@@@@@@@@++++++@@@@@@@@@@@@@@@@@@oooooooooooooooo@@@@@@oooooooo++XXX",
"   XX+++ooo@@@@@@@@@@oooOOOOOoooooo@@@@@@@@oo@@@+++ooooooooOOoooooooooooOOOoo@@@@@@@@ooo@@@@@@@@ooo++@@@@@@++@@@@@@ooooo@@@ooXXX",
"   XX+++ooo@@@@@@@@@@oooOOOOOoooooo@@@@@@@@oo@@@+++ooooooooOOoooooooooooOOOoo@@@@@@@@ooo@@@@@@@@ooo++@@@@@@++@@@@@@ooooo@@@ooXXX",
"   XXoooooooooooooooooooOOOOOoooooooooooooooooooooooooooOOOooOOOoooooOOOoooOOooooooooooo@@@@@@@@ooo@@@@@@@@@@@@@@@@++@@@oooooXXX",
"   XXoooooooooooooooooooOOOOOoooooooooooooooooooooooooooOOOooOOOoooooOOOoooOOooooooooooo@@@@@@@@ooo@@@@@@@@@@@@@@@@++@@@oooooXXX",
"   XXoooooooooooooooooooOOOOOoooooooooooooooooooooooooooOOOooOOOoooooOOOoooOOooooooooooo@@@@@@@@ooo@@@@@@@@@@@@@@@@++@@@oooooXXX",
"   XXXXXOOOOOooooooooOOOOOOoooooOOOooOOOoooooooooooooOOO@@@OOOOOoooOO@@@OOOOOooooooooooooooooooooooooooooooooooooooooooooooooXXX",
"   XXXXXOOOOOooooooooOOOOOOoooooOOOooOOOoooooooooooooOOO@@@OOOOOoooOO@@@OOOOOooooooooooooooooooooooooooooooooooooooooooooooooXXX",
"   XXXXXOOOOOooooooooOOOOOOoooooOOOooOOOoooooooooooooOOO@@@OOOOOoooOO@@@OOOOOooooooooooooooooooooooooooooooooooooooooooooooooXXX",
"     XXXOOOoo+++oooooooo+++++@@@OOO@@ooo++++++++OOO++++++++++++++++++++++++++@@@OOOooOOOOOOOO@@@OOOOOooo@@@++@@@+++@@ooooooXXXXX",
"     XXXOOOoo+++oooooooo+++++@@@OOO@@ooo++++++++OOO++++++++++++++++++++++++++@@@OOOooOOOOOOOO@@@OOOOOooo@@@++@@@+++@@ooooooXXXXX",
"   XXXXX@@@@@+++#####@@@+++##+++ooooo@@@+++##@@@@@@@@@@@+++++@@@@@@@@++++++##+++OOO@@@@@+++oo@@@+++++++++++oo+++++++++++oooXX   ",
"   XXXXX@@@@@+++#####@@@+++##+++ooooo@@@+++##@@@@@@@@@@@+++++@@@@@@@@++++++##+++OOO@@@@@+++oo@@@+++++++++++oo+++++++++++oooXX   ",
"   XXXXX@@@@@+++#####@@@+++##+++ooooo@@@+++##@@@@@@@@@@@+++++@@@@@@@@++++++##+++OOO@@@@@+++oo@@@+++++++++++oo+++++++++++oooXX   ",
"   XXooo++++++++++++++++ooo@@+++oooOO@@@oooooooo@@@@@@@@@@@@@@@@@@@@@@@@@@@+++++OOOooooo+++@@@@@+++@@@@@+++oo+++@@@++@@@+++XX   ",
"   XXooo++++++++++++++++ooo@@+++oooOO@@@oooooooo@@@@@@@@@@@@@@@@@@@@@@@@@@@+++++OOOooooo+++@@@@@+++@@@@@+++oo+++@@@++@@@+++XX   ",
"   XXooo++++++++++++++++ooo@@+++oooOO@@@oooooooo@@@@@@@@@@@@@@@@@@@@@@@@@@@+++++OOOooooo+++@@@@@+++@@@@@+++oo+++@@@++@@@+++XX   ",
"   XXoooooo++@@@@@@@@+++oooooooooooOO@@@+++++++++++++++++++@@@@@@@@@@@@@@@@@@@@@ooo++++++++@@+++@@@@@@@@ooo++@@@@@@@@+++oooXX   ",
"   XXoooooo++@@@@@@@@+++oooooooooooOO@@@+++++++++++++++++++@@@@@@@@@@@@@@@@@@@@@ooo++++++++@@+++@@@@@@@@ooo++@@@@@@@@+++oooXX   ",
"   XXXXXoooooooo@@@@@oooooooooooooooo@@@@@@@@@@@@@@@@@@@+++++@@@@@@@@@@@@@@@@OOOooo@@@@@+++@@@@@@@@@@@@@ooo@@@@@@@@@@@@@oooXX   ",
"   XXXXXoooooooo@@@@@oooooooooooooooo@@@@@@@@@@@@@@@@@@@+++++@@@@@@@@@@@@@@@@OOOooo@@@@@+++@@@@@@@@@@@@@ooo@@@@@@@@@@@@@oooXX   ",
"   XXXXXoooooooo@@@@@oooooooooooooooo@@@@@@@@@@@@@@@@@@@+++++@@@@@@@@@@@@@@@@OOOooo@@@@@+++@@@@@@@@@@@@@ooo@@@@@@@@@@@@@oooXX   ",
"     XXXXXXoooooooooooooooooooooooooooooooooooooooooooooOOO@@ooooooooOOO@@@ooooooooooooo@@@ooooo@@@@@@@@ooo@@oooooooooooXXXXX   ",
"     XXXXXXoooooooooooooooooooooooooooooooooooooooooooooOOO@@ooooooooOOO@@@ooooooooooooo@@@ooooo@@@@@@@@ooo@@oooooooooooXXXXX   ",
"     XXXXXXoooooooooooooooooooooooooooooooooooooooooooooOOO@@ooooooooOOO@@@ooooooooooooo@@@ooooo@@@@@@@@ooo@@oooooooooooXXXXX   ",
"        XXXXXoooOOOOOooooooooXXXXXXXXooooooooooooooooooooooooooooooooooooooooXXXoooooooooooooooooooooooooooooooooooOOXXXXXX     ",
"        XXXXXoooOOOOOooooooooXXXXXXXXooooooooooooooooooooooooooooooooooooooooXXXoooooooooooooooooooooooooooooooooooOOXXXXXX     ",
"           XXXXXXXXXXXXXXXXXXXXX   XXXXXXXXXXXXXXXXXXXXXXXXXXXXXXXXXXXXXXXXXXXXXXXXXXXXXXXXXXXXXXXXXXXXXXXXXXXXXXXXXXXXX        ",
"           XXXXXXXXXXXXXXXXXXXXX   XXXXXXXXXXXXXXXXXXXXXXXXXXXXXXXXXXXXXXXXXXXXXXXXXXXXXXXXXXXXXXXXXXXXXXXXXXXXXXXXXXXXX        ",
"           XXXXXXXXXXXXXXXXXXXXX   XXXXXXXXXXXXXXXXXXXXXXXXXXXXXXXXXXXXXXXXXXXXXXXXXXXXXXXXXXXXXXXXXXXXXXXXXXXXXXXXXXXXX        "
};
