/* XPM */
static char *_383d77564bd43eeb264ae2471197ae1jsVu6vbEsjn603Sx[] = {
/* columns rows colors chars-per-pixel */
"128 128 13 1 ",
"  c black",
". c #383830",
"X c #402230",
"o c #464646",
"O c #484848",
"+ c #707060",
"@ c #990030",
"# c #AD5F0A",
"$ c #804A2C",
"% c #FF7E00",
"& c #B1916F",
"* c #B4B4B4",
"= c #D0A898",
/* pixels */
"                          ................  ........        ........      ..........................................            ",
"                          ................  ........        ........      ..........................................            ",
"          ..................OO$$$$OO..........$$++............++$$..........++$$$$==++++++..$$$$..$$$$$$$$++++$$$$........      ",
"          ..................OO$$$$OO..........$$++............++$$..........++$$$$==++++++..$$$$..$$$$$$$$++++$$$$........      ",
"  ..........$$$$==++$$$$$$++++++++++======++$$======OOOOOOOO++====OOOOOOOO++========++++++OO++====++++++++==++$$==XX......      ",
"  ..........$$$$==++$$$$$$++++++++++======++$$======OOOOOOOO++====OOOOOOOO++========++++++OO++====++++++++==++$$==XX......      ",
"  ..........$$$$==++$$$$$$++++++++++======++$$======OOOOOOOO++====OOOOOOOO++========++++++OO++====++++++++==++$$==XX......      ",
"  ..........$$$$==++$$$$$$++++++++++======++$$======OOOOOOOO++====OOOOOOOO++========++++++OO++====++++++++==++$$==XX......      ",
"  ..........$$$$==++$$$$$$++++++++++======++$$======OOOOOOOO++====OOOOOOOO++========++++++OO++====++++++++==++$$==XX......      ",
"  ..........$$$$==++$$$$$$++++++++++======++$$======OOOOOOOO++====OOOOOOOO++========++++++OO++====++++++++==++$$==XX......      ",
"  ..$$$$$$==$$============++++$$==++========++==++==$$$$$$OO++==++++OOOOOO++==++==========OOXX====++$$$$$$==$$++==++......      ",
"  ..$$$$$$==$$============++++$$==++========++==++==$$$$$$OO++==++++OOOOOO++==++==========OOXX====++$$$$$$==$$++==++......      ",
"  ..========++======++++++++++====$$======$$++==++++$$$$$$$$++++++++OOOOOO++++++++++++++++OO++++++++XXXXXX++++++++XX......      ",
"  ..========++======++++++++++====$$======$$++==++++$$$$$$$$++++++++OOOOOO++++++++++++++++OO++++++++XXXXXX++++++++XX......      ",
"  ..++++++$$$$++++++$$$$$$++++++XX++$$$$$$$$++++++++$$$$$$$$++++$$XXXXXXXX++++$$$$++$$$$$$XXXX++$$$$XXXXXX++$$++++XX......      ",
"  ..++++++$$$$++++++$$$$$$++++++XX++$$$$$$$$++++++++$$$$$$$$++++$$XXXXXXXX++++$$$$++$$$$$$XXXX++$$$$XXXXXX++$$++++XX......      ",
"  ..XXXXXX++XX$$$$$$$$$$$$$$$$XX$$$$XXXXXX$$++$$$$$$XXXXXX$$$$$$$$XXXXXXXXXX$$$$$$$$XXXXXXXXXX$$$$$$XXXXXXXXXX$$$$XX......      ",
"  ..XXXXXX++XX$$$$$$$$$$$$$$$$XX$$$$XXXXXX$$++$$$$$$XXXXXX$$$$$$$$XXXXXXXXXX$$$$$$$$XXXXXXXXXX$$$$$$XXXXXXXXXX$$$$XX......      ",
"  ..XXXXXX++$$XXXXXXXXXXXXXXXXXXXXXXXXXXXXXXXXXXXXXXXXXXXXOOXXXXXXXXOOOOOOXXXXXXXXXXXXXXXXXXXXXXXXXXXXXXXXXXXXXXXXOO..........  ",
"  ..XXXXXX++$$XXXXXXXXXXXXXXXXXXXXXXXXXXXXXXXXXXXXXXXXXXXXOOXXXXXXXXOOOOOOXXXXXXXXXXXXXXXXXXXXXXXXXXXXXXXXXXXXXXXXOO..........  ",
"  ........XXXXXXXXXXXXXXXXXXXXOO$$XXOOOOOOXXXXXXOOXX$$$$$$XXOO$$OO$$XXXXXXOO$$OOXXOO$$$$$$XXOO++OO==OOOOOO++++++++========$$..  ",
"  ........XXXXXXXXXXXXXXXXXXXXOO$$XXOOOOOOXXXXXXOOXX$$$$$$XXOO$$OO$$XXXXXXOO$$OOXXOO$$$$$$XXOO++OO==OOOOOO++++++++========$$..  ",
"  ........XXXXXXXXXXXXXXXXXXXXOO$$XXOOOOOOXXXXXXOOXX$$$$$$XXOO$$OO$$XXXXXXOO$$OOXXOO$$$$$$XXOO++OO==OOOOOO++++++++========$$..  ",
"  ........XXXXXXXXXXXXXXXXXXXXOO$$XXOOOOOOXXXXXXOOXX$$$$$$XXOO$$OO$$XXXXXXOO$$OOXXOO$$$$$$XXOO++OO==OOOOOO++++++++========$$..  ",
"  ........XXXXXXXXXXXXXXXXXXXXOO$$XXOOOOOOXXXXXXOOXX$$$$$$XXOO$$OO$$XXXXXXOO$$OOXXOO$$$$$$XXOO++OO==OOOOOO++++++++========$$..  ",
"  ........XXXXXXXXXXXXXXXXXXXXOO$$XXOOOOOOXXXXXXOOXX$$$$$$XXOO$$OO$$XXXXXXOO$$OOXXOO$$$$$$XXOO++OO==OOOOOO++++++++========$$..  ",
"..........++++XX++$$++++++XXXX$$XXOOOOOOOO$$++XXXX++++++++++++++$$++++++++$$$$$$++========++XX$$++++++++++++$$++$$++======$$..  ",
"..........++++XX++$$++++++XXXX$$XXOOOOOOOO$$++XXXX++++++++++++++$$++++++++$$$$$$++========++XX$$++++++++++++$$++$$++======$$..  ",
"..++======++++$$$$==++++++++++++==$$XXXXXX==$$$$++++++++++++++$$$$++++++++$$OOXX++$$++++++++XXXX++++++++++$$XXXX$$$$++++++==....",
"..++======++++$$$$==++++++++++++==$$XXXXXX==$$$$++++++++++++++$$$$++++++++$$OOXX++$$++++++++XXXX++++++++++$$XXXX$$$$++++++==....",
"..==++++++$$++$$XX$$++++++$$++$$$$++XXXXXX++++++$$++++++++++$$$$$$++XXXXXXXX$$XX++$$++++++++++XX$$XXXXXXXXXX$$++++$$++++++++....",
"..==++++++$$++$$XX$$++++++$$++$$$$++XXXXXX++++++$$++++++++++$$$$$$++XXXXXXXX$$XX++$$++++++++++XX$$XXXXXXXXXX$$++++$$++++++++....",
"..==++++++++$$++++XX$$$$$$++++++$$++$$$$$$++$$$$$$++++++++++$$$$OO++++++++XXXXOO++++++++++XX++++XX++++++++++$$++++++++++++$$XX..",
"..==++++++++$$++++XX$$$$$$++++++$$++$$$$$$++$$$$$$++++++++++$$$$OO++++++++XXXXOO++++++++++XX++++XX++++++++++$$++++++++++++$$XX..",
"..++$$$$$$$$$$$$++++XXXXXX$$$$$$$$XX$$$$$$$$$$$$$$$$++++++$$$$$$XX++$$$$$$XX$$XX$$$$$$$$$$XX++$$XXXX++++++$$$$$$$$$$$$$$$$XX....",
"..++$$$$$$$$$$$$++++XXXXXX$$$$$$$$XX$$$$$$$$$$$$$$$$++++++$$$$$$XX++$$$$$$XX$$XX$$$$$$$$$$XX++$$XXXX++++++$$$$$$$$$$$$$$$$XX....",
"..XX$$$$$$$$$$$$++$$$$$$$$$$XX$$$$XXOOOOOOXX$$$$$$$$$$$$$$XXXXXXXX$$XXXXXXXXXXXXXXOO$$$$$$XX$$$$$$XXXXXXXXXXOOOOOOXXXXXXXX......",
"..XX$$$$$$$$$$$$++$$$$$$$$$$XX$$$$XXOOOOOOXX$$$$$$$$$$$$$$XXXXXXXX$$XXXXXXXXXXXXXXOO$$$$$$XX$$$$$$XXXXXXXXXXOOOOOOXXXXXXXX......",
"..XX$$$$$$$$$$$$++$$$$$$$$$$XX$$$$XXOOOOOOXX$$$$$$$$$$$$$$XXXXXXXX$$XXXXXXXXXXXXXXOO$$$$$$XX$$$$$$XXXXXXXXXXOOOOOOXXXXXXXX....  ",
"..XX$$$$$$$$$$$$++$$$$$$$$$$XX$$$$XXOOOOOOXX$                                      O$$$$$$XX$$$$$$XXXXXXXXXXOOOOOOXXXXXXXX....  ",
"..XX$$$$$$$$$$$$++$$$$$$$$$$XX$$$$XXOOOOOOXX  oooooooooooooooooooooooooooooooooooo  $$$$$$XX$$$$$$XXXXXXXXXXOOOOOOXXXXXXXX....  ",
"..XX$$$$$$$$$$$$++$$$$$$$$$$XX$$$$XXOOOOOOX  oooooooooooooooooooooooooooooooooooooo  $$$$$XX$$$$$$XXXXXXXXXXOOOOOOXXXXXXXX....  ",
"..XXXXXXXX$$$$$$$$$$$$$$$$$$XXXXXXXXXXXXXX  oooooooooooooooooooooooooooooooooooooooo  XXXXXXXXXXXXXXXXXXXXXXXXXXXXXXOOOOOO..    ",
"..XXXXXXXX$$$$$$$$$$$$$$$$$$XXXXXXXXXXXXX  oooooooooooooooooooooooooooooooooooooooooo  XXXXXXXXXXXXXXXXXXXXXXXXXXXXXOOOOOO..    ",
"....OOOOOOXXXXXXXXXXXXXXXXXXOOOOOOOO$$$$  oooooooooooooooooooooooooooooooooooooooooooo  ++$$OOOOXXOOOOOOOOOOOO$$OOOOOOOOOO....  ",
"....OOOOOOXXXXXXXXXXXXXXXXXXOOOOOOOO$$$$ oooooooooooooooooooooooooooooooooooooooooooooo ++$$OOOOXXOOOOOOOOOOOO$$OOOOOOOOOO....  ",
"  ........$$XX++OOXXXXXXXXOOOO$$XX====== oo                                          oo ++$$XX$$OO++++++++++++++++========$$..  ",
"  ........$$XX++OOXXXXXXXXOOOO$$XX====== oo %%%%%%%  ooo  ooo  ooo  ooo  oo  %%##### oo ++$$XX$$OO++++++++++++++++========$$..  ",
"....======++++$$++++OOOOOOXX$$++++++++++    %%%%%%%%  ooo  ooo  ooo  ooo    %%%#####    ++XXOOOO$$$$++++++++++++++++========..  ",
"....======++++$$++++OOOOOOXX$$++++++++++  %%%%%%%%%%%                      %##########  ++XXOOOO$$$$++++++++++++++++========..  ",
"..++======++++++++++$$$$$$$$XX++++XX$$$  %%%%%%%%%%%%%%%%%%%%%%%%%%%%%%%%%%%####%%#####  +XXXXXX++++$$$$$$$$XXXX$$$$======++..  ",
"..++======++++++++++$$$$$$$$XX++++XX$$  %%%%%%%%%%%%%%%%%%%%%%%%%%%%%%%%%%%%##%%%%%#####  XXXXXX++++$$$$$$$$XXXX$$$$======++..  ",
"..==XXXXXX++$$$$$$$$$$$$$$XXOO++++++X  %%%%%%%%%%                              %%%%######  XXX$$++$$$$$$$$XX++$$$$$$++++++XX..  ",
"..==XXXXXX++$$$$$$$$$$$$$$XXOO++++++  %%%%%%%%%%                                %%%#######  XX$$++$$$$$$$$XX++$$$$$$++++++XX..  ",
"..==XXXXXX++$$$$$$$$$$$$$$XXOO+++++  %%%%%%%%%%                                  %%%#######  X$$++$$$$$$$$XX++$$$$$$++++++XX..  ",
"..==XXXXXX++$$$$$$$$$$$$$$XXOO++++  %%%%%%%%%%                                    %%########  $$++$$$$$$$$XX++$$$$$$++++++XX..  ",
"..==XXXXXX++$$$$$$$$$$$$$$XXOO+++  %%%%%%%%%%                                      %%#######%  $++$$$$$$$$XX++$$$$$$++++++XX..  ",
"..==XXXXXX++$$$$$$$$$$$$$$XXOO++  %%%%%%%%%%                                        %%%%%###%%  ++$$$$$$$$XX++$$$$$$++++++XX..  ",
"..++======XX++$$$$$$XXXXXXXXXX+  %%%%%%%%%%                                          %%%%%%%%%%  XXXXXXXXX++$$XXXX++XXXXXX....  ",
"..++======XX++$$$$$$XXXXXXXXXX  %%%%%%%%%%                                            %%%%%%%%%%  XXXXXXXX++$$XXXX++XXXXXX....  ",
"....XXXXXX++XX$$$$XXXXXXXXXXO  %%%%%%%%%%                                              %%%%%%%%%%  XXXXXXXXXXXXXXXXXXXXXXX....  ",
"....XXXXXX++XX$$$$XXXXXXXXXX  %%%%%%%%%%                                                %%%%%%%%%%  XXXXXXXXXXXXXXXXXXXXXX....  ",
"  ..XXXXXXXXXXXXXXXXOOOOOO   %%%%%%%%%%                                                  %%%%%%%%%%   XXXXXXXXXXOO$$$$$$$$++....",
"  .                  OOOOO  %%%%%%%%%%                                                    %%%%%%%%%%  XXXXX                  ...",
"                      OOOO %%%%%%%%%%                                                      %%%%%%%%%% OOOO                    ..",
"                      OOOO %%%%%%%%%                                                        %%%%%%%%% OOOO                    ..",
"                      $$$$ ##%%%%%%%                                                        %%%%%%%%% $$$$                    ..",
"                      $$$$ ###%%%%%%                                                        %%%%%%%%% $$$$                    ..",
"  . OO    OOO    OOO ===== ###%%##%%                                                        %%%%%%%%% OOOO+ OOO    OOO    OO X..",
"  . OOOOOOOOOOOOOOOO ===== %##%%##%%                                                        %%%%%%%%% OOOO+ OOOOOOOOOOOOOOOO X..",
"       OO     OO      ==== %##%###%%                                                        %%%%%%%%% OOOO      OO     OO     ..",
"                      ==== ##%####%%                                                        %%%%%%%## OOOO                    ..",
"                      ==== ######%%%                                                        %%%%%%### OOOO                    ..",
"                      ==== ######%%%                                                        %%%%%%### OOOO                    ..",
"                      ++++ ####%%%%%                                                        %%%%%%##% XXXX                    ..",
"                      ++++ ###%%%%%%                                                        %%%%%%##% XXXX                    ..",
"                      $$$$ ###%%%%%%                                                        %%%%%###% XXXX                    ..",
"                      $$$$ ###%%%%%%                                                        %%%%##### XXXX                    ..",
"  . OO    OOO    OOO +++++ ####%%%%%                                                        %%%###### OOOOO OOO    OOO    OO +..",
"  . OOOOOOOOOOOOOOOO +++++ ####%%%%%                                                        %%%###### OOOOO OOOOOOOOOOOOOOOO +..",
"       OO     OO      $$$$ ####%%%%%                                                        %%%###### OOOO      OO     OO     ..",
"                      $$$$ ###%%%%%%                                                        %%%%####% OOOO                    ..",
"                      XXXX ###%%%%%%                                                        %%%#####% XXXX                    ..",
"                      XXXX ##%%%%%%%                                                        %%%#####% XXXX                    ..",
"                      ++++ ##%%%%%%%                                                        %%####### ++++                      ",
"                      ++++ ##%%%%%%%                                                        %%####### ++++                      ",
"                      ++++ %%%%%%%%%                                                        %%####%## ++++                      ",
"                      ++++ %%%%%%%%%                                                        %%####%## ++++                      ",
"  . OO    OOO    OOO +++++ %%%%%%%%%                                                        %%####%## +++++ OOO    OOO    OO .  ",
"  . OOOOOOOOOOOOOOOO +++++ %%%%%%%%%%                                                      %%%%###%## +++++ OOOOOOOOOOOOOOOO .  ",
"       OO     OO      XXXX %%%%%%%%%%%                                                    %%%%%%##%## ====      OO     OO     ..",
"                      XXXX %%%%%%%%%%%%                                                  %%%%%%%%%### ====                    ..",
"                      XXXX %%%%%%%%%%%%%                                                %%%%%%%%##### $$$$                    ..",
"                      XXXX %%%%%%%%%%%%%%                                              %%%%%%%%%####% $$$$                    ..",
"                      ++++ %%%%%%%%%%%%%%%                                            %%%%%%%%%%####% XXXX                    ..",
"                                        %%%                                          %%%                                      ..",
"                   **** *&&&***********  %%%                                        %%%  *************** ****                 ..",
"                  *&&&* *&&&   ****   ** %%%%                                      ##%% **   ****   **** *****                ..",
"  . OO    OOO     *&&&* &&* @@@ ** @@@ * %%%%                                      ##%% * @@@ ** @@@ *** **&&*     OOO    OO X..",
"  . OOOOOOOOOOOOO &&&** &&* @@@ ** @@@ * %%%%                                      ##%% * @@@ ** @@@ *** **&&& OOOOOOOOOOOOO X..",
"       OO     OO  &&*** *** @@@ ** @@@ * %%%%                                      ##%% * @@@ ** @@@ *** **&&&  OO     OO     ..",
"                  &&*** ****   *&&*   ** %%%%                                      ###% **   ****   *&&& ***&&                ..",
"                  ***** ********&&&***** %%%%                                      ###% ***********&&&&& *****                ..",
"                  ***** ********&&&***** %%%%                                      %##% *****&&&&&&&&&&* *****                ..",
"                   **** ***************  %%%%                                      %##%  ****&&&&&&&&*** ****                 ..",
"                                        %%%%%                                      %##%%                                      ..",
"                      OOOO %%%%%%%%%%%%%%%%%%%%%%%%%%%%%%%%%%###%%%%%%%%%%%%%%%%%%%%##%%%%%%%%%%%%%%% XXXX                    ..",
"                      OOOO ##%%%%%%%%%%%%%%%%%%%%%%%%%%%%##########%%%%%%%%%%%%%%%%###%%%%%%%%%%%%%## XXXX                    ..",
"    OO    OOOO    OO XXXXX ####%%%%%%%%%%######%%%%%%%#############%%%%%%%%%%%%%######%%%%%%%%%%%#### XXXX$ OO    OOOO    OO ...",
"    OOOOOOOOOOOOOOOO XXXXX %#######%%%%%###########################%%%%%%%%%%%%######%%%%%%%%#######% XXXX$ OOOOOOOOOOOOOOOO ...",
"       OO      OO     $$$$  #######%%%%%###%%######################%%%%%%%%%%%%###%%%%%%%%%%%#######  ++++     OO      OO       ",
"                      $$$$+                                                                          +++++                      ",
"                      ++++XX$$++XXOO$$$$$$XXXXXX$$$$$$$$$$$$$$$$$$$$$$$$$$$$++++OOXXXXXXXX++$$$$++$$$$$$$$                      ",
"                      ++++XX$$++XXOO$$$$$$XXXXXX$$$$$$$$$$$$$$$$$$$$$$$$$$$$++++OOXXXXXXXX++$$$$++$$$$$$$$                      ",
"  .                  +++++XXXXXXXXOO$$$$$$++++++++++++++++++$$$$$$$$$$$$$$$$$$$$XX++++++++++$$++$$$$$$$$$$X                  .  ",
"  ..XXXXXXXX++$$$$$$++++++XXXXXXXXOO$$$$$$++++++++++++++++++$$$$$$$$$$$$$$$$$$$$XX++++++++++$$++$$$$$$$$$$XX++$$$$$$++++++XX..  ",
"  ........XXXXXX$$$$XXXXXXXXXXXXXXXX$$$$$$$$$$$$$$$$$$$$$$++++$$$$$$$$$$$$$$$$OOXX$$$$$$$$++$$$$$$$$$$$$$$XX$$$$$$$$$$$$$$XX..  ",
"  ........XXXXXX$$$$XXXXXXXXXXXXXXXX$$$$$$$$$$$$$$$$$$$$$$++++$$$$$$$$$$$$$$$$OOXX$$$$$$$$++$$$$$$$$$$$$$$XX$$$$$$$$$$$$$$XX..  ",
"  ........XXXXXX$$$$XXXXXXXXXXXXXXXX$$$$$$$$$$$$$$$$$$$$$$++++$$$$$$$$$$$$$$$$OOXX$$$$$$$$++$$$$$$$$$$$$$$XX$$$$$$$$$$$$$$XX..  ",
"  ........XXXXXX$$$$XXXXXXXXXXXXXXXX$$$$$$$$$$$$$$$$$$$$$$++++$$$$$$$$$$$$$$$$OOXX$$$$$$$$++$$$$$$$$$$$$$$XX$$$$$$$$$$$$$$XX..  ",
"  ........XXXXXX$$$$XXXXXXXXXXXXXXXX$$$$$$$$$$$$$$$$$$$$$$++++$$$$$$$$$$$$$$$$OOXX$$$$$$$$++$$$$$$$$$$$$$$XX$$$$$$$$$$$$$$XX..  ",
"  ........XXXXXX$$$$XXXXXXXXXXXXXXXX$$$$$$$$$$$$$$$$$$$$$$++++$$$$$$$$$$$$$$$$OOXX$$$$$$$$++$$$$$$$$$$$$$$XX$$$$$$$$$$$$$$XX..  ",
"    ........XXXXXXXXXXXXXXXXXXXXXXXXXXXXXXXXXXXXXXXXXXXXXXOO$$XXXXXXOOOOOO$$XXXXXXXXXXXXXX$$XXXX$$$$$$$$$$XX$$XXXXXXXXXXXX....  ",
"    ........XXXXXXXXXXXXXXXXXXXXXXXXXXXXXXXXXXXXXXXXXXXXXXOO$$XXXXXXOOOOOO$$XXXXXXXXXXXXXX$$XXXX$$$$$$$$$$XX$$XXXXXXXXXXXX....  ",
"          ....XXOOOOXXXXXXXXXX......XXXXXXXXXXXXXXXXXXXXXXXXXXXXXXXXXXXXXXXXXX..XXXXXXXXXXXXXXXXXXXXXXXXXXXXXXXXXXOO........    ",
"          ....XXOOOOXXXXXXXXXX......XXXXXXXXXXXXXXXXXXXXXXXXXXXXXXXXXXXXXXXXXX..XXXXXXXXXXXXXXXXXXXXXXXXXXXXXXXXXXOO........    ",
"            ....................  ........................................................................................      ",
"            ....................  ........................................................................................      "
};
