/* XPM */
static char *_50800a33b6b4553baced304c1b38df2zjPXyIyqE3ACrzBs[] = {
/* columns rows colors chars-per-pixel */
"128 128 14 1 ",
"  c black",
". c #1C1B1C",
"X c #383830",
"o c #402230",
"O c #464646",
"+ c #484848",
"@ c #707060",
"# c #990030",
"$ c #AD510A",
"% c #804A2C",
"& c #FF7E00",
"* c #B29A93",
"= c #B4B4B4",
"- c #D0A898",
/* pixels */
"                          XXXXXXXXXXXXXXXX  XXXXXXXX        XXXXXXXX      XXXXXXXXXXXXXXXXXXXXXXXXXXXXXXXXXXXXXXXXXX            ",
"                          XXXXXXXXXXXXXXXX  XXXXXXXX        XXXXXXXX      XXXXXXXXXXXXXXXXXXXXXXXXXXXXXXXXXXXXXXXXXX            ",
"          XXXXXXXXXXXXXXXXXX++%%%%++XXXXXXXXXX%%@@XXXXXXXXXXXX@@%%XXXXXXXXXX@@%%%%--@@@@@@XX%%%%XX%%%%%%%%@@@@%%%%XXXXXXXX      ",
"          XXXXXXXXXXXXXXXXXX++%%%%++XXXXXXXXXX%%@@XXXXXXXXXXXX@@%%XXXXXXXXXX@@%%%%--@@@@@@XX%%%%XX%%%%%%%%@@@@%%%%XXXXXXXX      ",
"  XXXXXXXXXX%%%%--@@%%%%%%@@@@@@@@@@------@@%%------++++++++@@----++++++++@@--------@@@@@@++@@----@@@@@@@@--@@%%--ooXXXXXX      ",
"  XXXXXXXXXX%%%%--@@%%%%%%@@@@@@@@@@------@@%%------++++++++@@----++++++++@@--------@@@@@@++@@----@@@@@@@@--@@%%--ooXXXXXX      ",
"  XXXXXXXXXX%%%%--@@%%%%%%@@@@@@@@@@------@@%%------++++++++@@----++++++++@@--------@@@@@@++@@----@@@@@@@@--@@%%--ooXXXXXX      ",
"  XXXXXXXXXX%%%%--@@%%%%%%@@@@@@@@@@------@@%%------++++++++@@----++++++++@@--------@@@@@@++@@----@@@@@@@@--@@%%--ooXXXXXX      ",
"  XXXXXXXXXX%%%%--@@%%%%%%@@@@@@@@@@------@@%%------++++++++@@----++++++++@@--------@@@@@@++@@----@@@@@@@@--@@%%--ooXXXXXX      ",
"  XXXXXXXXXX%%%%--@@%%%%%%@@@@@@@@@@------@@%%------++++++++@@----++++++++@@--------@@@@@@++@@----@@@@@@@@--@@%%--ooXXXXXX      ",
"  XX%%%%%%--%%------------@@@@%%--@@--------@@--@@--%%%%%%++@@--@@@@++++++@@--@@----------++oo----@@%%%%%%--%%@@--@@XXXXXX      ",
"  XX%%%%%%--%%------------@@@@%%--@@--------@@--@@--%%%%%%++@@--@@@@++++++@@--@@----------++oo----@@%%%%%%--%%@@--@@XXXXXX      ",
"  XX--------@@------@@@@@@@@@@----%%------%%@@--@@@@%%%%%%%%@@@@@@@@++++++@@@@@@@@@@@@@@@@++@@@@@@@@oooooo@@@@@@@@ooXXXXXX      ",
"  XX--------@@------@@@@@@@@@@----%%------%%@@--@@@@%%%%%%%%@@@@@@@@++++++@@@@@@@@@@@@@@@@++@@@@@@@@oooooo@@@@@@@@ooXXXXXX      ",
"  XX@@@@@@%%%%@@@@@@%%%%%%@@@@@@oo@@%%%%%%%%@@@@@@@@%%%%%%%%@@@@%%oooooooo@@@@%%%%@@%%%%%%oooo@@%%%%oooooo@@%%@@@@ooXXXXXX      ",
"  XX@@@@@@%%%%@@@@@@%%%%%%@@@@@@oo@@%%%%%%%%@@@@@@@@%%%%%%%%@@@@%%oooooooo@@@@%%%%@@%%%%%%oooo@@%%%%oooooo@@%%@@@@ooXXXXXX      ",
"  XXoooooo@@oo%%%%%%%%%%%%%%%%oo%%%%oooooo%%@@%%%%%%oooooo%%%%%%%%oooooooooo%%%%%%%%oooooooooo%%%%%%oooooooooo%%%%ooXXXXXX      ",
"  XXoooooo@@oo%%%%%%%%%%%%%%%%oo%%%%oooooo%%@@%%%%%%oooooo%%%%%%%%oooooooooo%%%%%%%%oooooooooo%%%%%%oooooooooo%%%%ooXXXXXX      ",
"  XXoooooo@@%%oooooooooooooooooooooooooooooooooooooooooooo++oooooooo++++++oooooooooooooooooooooooooooooooooooooooo++XXXXXXXXXX  ",
"  XXoooooo@@%%oooooooooooooooooooooooooooooooooooooooooooo++oooooooo++++++oooooooooooooooooooooooooooooooooooooooo++XXXXXXXXXX  ",
"  XXXXXXXXoooooooooooooooooooo++%%oo++++++oooooo++oo%%%%%%oo++%%++%%oooooo++%%++oo++%%%%%%oo++@@++--++++++@@@@@@@@--------%%XX  ",
"  XXXXXXXXoooooooooooooooooooo++%%oo++++++oooooo++oo%%%%%%oo++%%++%%oooooo++%%++oo++%%%%%%oo++@@++--++++++@@@@@@@@--------%%XX  ",
"  XXXXXXXXoooooooooooooooooooo++%%oo++++++oooooo++oo%%%%%%oo++%%++%%oooooo++%%++oo++%%%%%%oo++@@++--++++++@@@@@@@@--------%%XX  ",
"  XXXXXXXXoooooooooooooooooooo++%%oo++++++oooooo++oo%%%%%%oo++%%++%%oooooo++%%++oo++%%%%%%oo++@@++--++++++@@@@@@@@--------%%XX  ",
"  XXXXXXXXoooooooooooooooooooo++%%oo++++++oooooo++oo%%%%%%oo++%%++%%oooooo++%%++oo++%%%%%%oo++@@++--++++++@@@@@@@@--------%%XX  ",
"  XXXXXXXXoooooooooooooooooooo++%%oo++++++oooooo++oo%%%%%%oo++%%++%%oooooo++%%++oo++%%%%%%oo++@@++--++++++@@@@@@@@--------%%XX  ",
"XXXXXXXXXX@@@@oo@@%%@@@@@@oooo%%oo++++++++%%@@oooo@@@@@@@@@@@@@@%%@@@@@@@@%%%%%%@@--------@@oo%%@@@@@@@@@@@@%%@@%%@@------%%XX  ",
"XXXXXXXXXX@@@@oo@@%%@@@@@@oooo%%oo++++++++%%@@oooo@@@@@@@@@@@@@@%%@@@@@@@@%%%%%%@@--------@@oo%%@@@@@@@@@@@@%%@@%%@@------%%XX  ",
"XX@@------@@@@%%%%--@@@@@@@@@@@@--%%oooooo--%%%%@@@@@@@@@@@@@@%%%%@@@@@@@@%%++oo@@%%@@@@@@@@oooo@@@@@@@@@@%%oooo%%%%@@@@@@--XXXX",
"XX@@------@@@@%%%%--@@@@@@@@@@@@--%%oooooo--%%%%@@@@@@@@@@@@@@%%%%@@@@@@@@%%++oo@@%%@@@@@@@@oooo@@@@@@@@@@%%oooo%%%%@@@@@@--XXXX",
"XX--@@@@@@%%@@%%oo%%@@@@@@%%@@%%%%@@oooooo@@@@@@%%@@@@@@@@@@%%%%%%@@oooooooo%%oo@@%%@@@@@@@@@@oo%%oooooooooo%%@@@@%%@@@@@@@@XXXX",
"XX--@@@@@@%%@@%%oo%%@@@@@@%%@@%%%%@@oooooo@@@@@@%%@@@@@@@@@@%%%%%%@@oooooooo%%oo@@%%@@@@@@@@@@oo%%oooooooooo%%@@@@%%@@@@@@@@XXXX",
"XX--@@@@@@@@%%@@@@oo%%%%%%@@@@@@%%@@%%%%%%@@%%%%%%@@@@@@@@@@%%%%++@@@@@@@@oooo++@@@@@@@@@@oo@@@@oo@@@@@@@@@@%%@@@@@@@@@@@@%%ooXX",
"XX--@@@@@@@@%%@@@@oo%%%%%%@@@@@@%%@@%%%%%%@@%%%%%%@@@@@@@@@@%%%%++@@@@@@@@oooo++@@@@@@@@@@oo@@@@oo@@@@@@@@@@%%@@@@@@@@@@@@%%ooXX",
"XX@@%%%%%%%%%%%%@@@@oooooo%%%%%%%%oo%%%%%%%%%%%%%%%%@@@@@@%%%%%%oo@@%%%%%%oo%%oo%%%%%%%%%%oo@@%%oooo@@@@@@%%%%%%%%%%%%%%%%ooXXXX",
"XX@@%%%%%%%%%%%%@@@@oooooo%%%%%%%%oo%%%%%%%%%%%%%%%%@@@@@@%%%%%%oo@@%%%%%%oo%%oo%%%%%%%%%%oo@@%%oooo@@@@@@%%%%%%%%%%%%%%%%ooXXXX",
"XXoo%%%%%%%%%%%%@@%%%%%%%%%%oo%%%%oo++++++oo%%%%%%%%%%%%%%oooooooo%%oooooooooooooo++%%%%%%oo%%%%%%oooooooooo++++++ooooooooXXXXXX",
"XXoo%%%%%%%%%%%%@@%%%%%%%%%%oo%%%%oo++++++oo%%%%%%%%%%%%%%oooooooo%%oooooooooooooo++%%%%%%oo%%%%%%oooooooooo++++++ooooooooXXXXXX",
"XXoo%%%%%%%%%%%%@@%%%%%%%%%%oo%%%%oo++++++oo%%%%%%%%%%%%%%oooooooo%%oooooooooooooo++%%%%%%oo%%%%%%oooooooooo++++++ooooooooXXXX  ",
"XXoo%%%%%%%%%%%%@@%%%%%%%%%%oo%%%%oo++++++oo%                                      +%%%%%%oo%%%%%%oooooooooo++++++ooooooooXXXX  ",
"XXoo%%%%%%%%%%%%@@%%%%%%%%%%oo%%%%oo++++++oo  OOOOOOOOOOOOOOOOOOOOOOOOOOOOOOOOOOOO  %%%%%%oo%%%%%%oooooooooo++++++ooooooooXXXX  ",
"XXoo%%%%%%%%%%%%@@%%%%%%%%%%oo%%%%oo++++++o  OOOOOOOOOOOOOOOOOOOOOOOOOOOOOOOOOOOOOO  %%%%%oo%%%%%%oooooooooo++++++ooooooooXXXX  ",
"XXoooooooo%%%%%%%%%%%%%%%%%%oooooooooooooo  OOOOOOOOOOOOOOOOOOOOOOOOOOOOOOOOOOOOOOOO  oooooooooooooooooooooooooooooo++++++XX    ",
"XXoooooooo%%%%%%%%%%%%%%%%%%ooooooooooooo  OOOOOOOOOOOOOOOOOOOOOOOOOOOOOOOOOOOOOOOOOO  ooooooooooooooooooooooooooooo++++++XX    ",
"XXXX++++++oooooooooooooooooo++++++++%%%%  OOOOOOOOOOOOOOOOOOOOOOOOOOOOOOOOOOOOOOOOOOOO  @@%%++++oo++++++++++++%%++++++++++XXXX  ",
"XXXX++++++oooooooooooooooooo++++++++%%%% OOOOOOOOOOOOOOOOOOOOOOOOOOOOOOOOOOOOOOOOOOOOOO @@%%++++oo++++++++++++%%++++++++++XXXX  ",
"  XXXXXXXX%%oo@@++oooooooo++++%%oo------ OO                                          OO @@%%oo%%++@@@@@@@@@@@@@@@@--------%%XX  ",
"  XXXXXXXX%%oo@@++oooooooo++++%%oo------ OO &&&&&&&  OOO  OOO  OOO  OOO  OO  &&&$$$$ OO @@%%oo%%++@@@@@@@@@@@@@@@@--------%%XX  ",
"XXXX------@@@@%%@@@@++++++oo%%@@@@@@@@@@    $$$&&&&&  OOO  OOO  OOO  OOO    &$$$$$$$    @@oo++++%%%%@@@@@@@@@@@@@@@@--------XX  ",
"XXXX------@@@@%%@@@@++++++oo%%@@@@@@@@@@  $$$$$&&&&&&                      &$$&&&&$$$&  @@oo++++%%%%@@@@@@@@@@@@@@@@--------XX  ",
"XX@@------@@@@@@@@@@%%%%%%%%oo@@@@oo%%%  $$$$$$$$$&&&&&&&&&&&&&&&&&&&&$&&&&$$&&&&&&&$$&  @oooooo@@@@%%%%%%%%oooo%%%%------@@XX  ",
"XX@@------@@@@@@@@@@%%%%%%%%oo@@@@oo%%  $$$$$$$$&&&&&&&&&&&&&&&&&&&&&&$$$$$$&&&&&&&&&$$&  oooooo@@@@%%%%%%%%oooo%%%%------@@XX  ",
"XX--oooooo@@%%%%%%%%%%%%%%oo++@@@@@@o  &$$$$$$&&&..............................&&&&&&&&&&  ooo%%@@%%%%%%%%oo@@%%%%%%@@@@@@ooXX  ",
"XX--oooooo@@%%%%%%%%%%%%%%oo++@@@@@@  $$$$$$$&&&................................&&&&&&&&&&  oo%%@@%%%%%%%%oo@@%%%%%%@@@@@@ooXX  ",
"XX--oooooo@@%%%%%%%%%%%%%%oo++@@@@@  $$$$$$&&&&..................................&&&&&&&&&&  o%%@@%%%%%%%%oo@@%%%%%%@@@@@@ooXX  ",
"XX--oooooo@@%%%%%%%%%%%%%%oo++@@@@  &&$$$$$&&&....................................&&&&&&&&&&  %%@@%%%%%%%%oo@@%%%%%%@@@@@@ooXX  ",
"XX--oooooo@@%%%%%%%%%%%%%%oo++@@@  &&&&$&&&&&......................................&&&&&&&&&&  %@@%%%%%%%%oo@@%%%%%%@@@@@@ooXX  ",
"XX--oooooo@@%%%%%%%%%%%%%%oo++@@  &&&&&&&&&&........................................&&&&&&&&&&  @@%%%%%%%%oo@@%%%%%%@@@@@@ooXX  ",
"XX@@------oo@@%%%%%%oooooooooo@  &&&&&&&&&&..........................................&&&&&&&&&&  ooooooooo@@%%oooo@@ooooooXXXX  ",
"XX@@------oo@@%%%%%%oooooooooo  &&&&&&&&&&............................................&&&&&&$&&&  oooooooo@@%%oooo@@ooooooXXXX  ",
"XXXXoooooo@@oo%%%%oooooooooo+  &&&&&&&&&&..............................................&&&$$$$&&&  oooooooooooooooooooooooXXXX  ",
"XXXXoooooo@@oo%%%%oooooooooo  &&&&&&&&&&................................................&&$$$$$&&&  ooooooooooooooooooooooXXXX  ",
"  XXoooooooooooooooo++++++   &&&&&&&&&&..................................................&&&$$$$$&&   oooooooooo++%%%%%%%%@@XXXX",
"  X                  +++++  &&&&&&&&&&....................................................&&&$$$$$&&  ooooo                  XXX",
"                      ++++ &&&&&&&&&&......................................................&&$$$$$&&& ++++                    XX",
"                      ++++ &&&&&&&&&........................................................&$$$$$$&& ++++                    XX",
"                      %%%% &&&&&&&&&........................................................$$$$$$$&& %%%%                    XX",
"                      %%%% &&&&&&&&&........................................................$$&$$$&&& %%%%                    XX",
"  X ++    +++    +++ ----- &&&&&&&&&........................................................&&&$$$&&& ++++@ +++    +++    ++ oXX",
"  X ++++++++++++++++ ----- &&&&&&&&&........................................................&&&&&&&&& ++++@ ++++++++++++++++ oXX",
"       ++     ++      ---- &&&&&&&&&........................................................&&&&&&&&& ++++      ++     ++     XX",
"                      ---- &&&&&&&&&........................................................&&&&&&&&& ++++                    XX",
"                      ---- &&&&&&&&&........................................................&&&&&&&&& ++++                    XX",
"                      ---- &&&&&&&&&........................................................&&&&&&&&& ++++                    XX",
"                      @@@@ &&&&&&&&&........................................................&&&&&&&&& oooo                    XX",
"                      @@@@ &&$$$&&&&........................................................&&&&&&&&& oooo                    XX",
"                      %%%% &&$$$&&&&........................................................&&&&&&&&$ oooo                    XX",
"                      %%%% $$$$$&&&&........................................................&&&&&&&&$ oooo                    XX",
"  X ++    +++    +++ @@@@@ $$$$$&&&&........................................................&&&&&&&$$ +++++ +++    +++    ++ @XX",
"  X ++++++++++++++++ @@@@@ $$$$$&&&&........................................................&&&&&&&$$ +++++ ++++++++++++++++ @XX",
"       ++     ++      %%%% $$$&&&&&&........................................................&&&&&&$$$ ++++      ++     ++     XX",
"                      %%%% $$$$&&&&&........................................................&&&&&$$$$ ++++                    XX",
"                      oooo $$$$&&&&&........................................................&&&&$$$$$ oooo                    XX",
"                      oooo $$$$&&&&&........................................................&&&&$$$$$ oooo                    XX",
"                      @@@@ &$$$&&&&&........................................................&&&&$$$$$ @@@@                      ",
"                      @@@@ &$$$$&&&&........................................................&&&&$$$$$ @@@@                      ",
"                      @@@@ &$$$$$&&&........................................................&&&&$$$$$ @@@@                      ",
"                      @@@@ &$$$$$&&&........................................................&&&&&$$$$ @@@@                      ",
"  X ++    +++    +++ @@@@@ &&$$$$&&&........................................................&&&&&$$$$ @@@@@ +++    +++    ++ X  ",
"  X ++++++++++++++++ @@@@@ &$$$$&&&&&......................................................&&&&&&$$$$ @@@@@ ++++++++++++++++ X  ",
"       ++     ++      oooo $$$$$&&&&&&....................................................&&&&&&&$$$$ ----      ++     ++     XX",
"                      oooo $$$$$&&&&&&&..................................................&&&&&&&&$$$$ ----                    XX",
"                      oooo $$$$&&&&&&&&&................................................&&&&&&&$$$&&& %%%%                    XX",
"                      oooo &&&&&&&&&&&&&&..............................................&&&&&&$$$$$$&& %%%%                    XX",
"                      @@@@ &&&&&&&&&&&&&&&............................................&&&&&$$$$$&$$$$ oooo                    XX",
"                                        &&&..........................................&&&                                      XX",
"                   ==== *****==========  &&&........................................&&&  =============== =***                 XX",
"                  ===== *===   ====   == &&&&......................................&&&& ==   ====   ==== ==***                XX",
"  X ++    +++     ===== **= ### == ### = &&&&......................................$&&& = ### == ### === ===**     +++    ++ oXX",
"  X +++++++++++++ ===== === ### == ### = &&&&......................................$&&& = ### == ### === ===** +++++++++++++ oXX",
"       ++     ++  ===== === ### == ### = &&&&......................................$$&& = ### == ### === =====  ++     ++     XX",
"                  **=== ====   ====   == &&&&......................................$$&& ==   ====   ==== =====                XX",
"                  *==*= ================ &&&&......................................$$$& ================ =====                XX",
"                  ****= ================ &&&&......................................&$&& ============**** =====                XX",
"                   ***= ===============  &&&&......................................&&&&  =========****** ====                 XX",
"                                        &&&&&......................................&&&&&                                      XX",
"                      ++++ $$$$$$$$$$$&&&&&  =======.=======.======.=======.=======  &&&&&&&&&&&&&&&$ oooo                    XX",
"                      ++++ &$&&&$&&$&&&&&  ======== ======= ======== ======= ========  &&&&&&&&&&&$$$ oooo                    XX",
"    ++    ++++    ++ ooooo &$&&&$&&$&&&  ========= ======== ======== ======== =========  &&&&&&&&&$$$ oooo% ++    ++++    ++ XXX",
"    ++++++++++++++++ ooooo &&&&&$&&&&& ========== ======== ========== ======== ========== &&&&&&&&$$$ oooo% ++++++++++++++++ XXX",
"       ++      ++     %%%%  &&&&$&&&  ========== ========= ========== ========= ==========  &&&&$$$$  @@@@     ++      ++       ",
"                      %%%%@          ========== ========== ========== ========== ==========          @@@@@                      ",
"                      @@@@oo%%@@  ============ ========== ============ ========== ============  @@%%%%%%%%                      ",
"                      @@@@oo%%  ============= =========== ============ =========== =============  %%%%%%%%                      ",
"  X                  @@@@@ooo ============== =========== ============== =========== ============== %%%%%%%o                  X  ",
"  XXoooooooo@@%%%%%%@@@@@@o  ============== ============ ============== ============ ==============  %%%%%oo@@%%%%%%@@@@@@ooXX  ",
"  XXXXXXXXoooooo%%%%ooooo  ==============  ============= ============== =============  ==============  %%%oo%%%%%%%%%%%%%%ooXX  ",
"  XXXXXXXXoooooo%%%%ooo  =============== ============== ================ ============== ===============  %oo%%%%%%%%%%%%%%ooXX  ",
"  XXXXXXXXoooooo%%%%oo ================ =============== ================ =============== ================ oo%%%%%%%%%%%%%%ooXX  ",
"  XXXXXXXXoooooo%%%%  ================ ================ ================ ================ ================  %%%%%%%%%%%%%%ooXX  ",
"  XXXXXXXXoooooo%%  ================= ================ ================== ================ =================  %%%%%%%%%%%%ooXX  ",
"  XXXXXXXXoooooo  ================== ================= ================== ================= ==================  %%%%%%%%%%ooXX  ",
"    XXXXXXXXoo  =================== ================= ==================== ================= ===================  ooooooooXXXX  ",
"    XXXXXXXXo ==================== ================== ==================== ================== ==================== oooooooXXXX  ",
"          X  ==================== =================== ==================== =================== ====================  XXXXXXX    ",
"           ===================== =================== ====================== =================== =====================  XXXXX    ",
"         ====================== ==================== ====================== ==================== ======================  X      ",
"       ======================= ==================== ======================== ==================== =======================       "
};
