/* XPM */
static char *fb7de3d335e840f7b1855c2bcfead953eB9AgXaClHNcVnrb[] = {
/* columns rows colors chars-per-pixel */
"128 128 7 1 ",
"  c black",
". c #383830",
"X c #402230",
"o c #484848",
"O c #707060",
"+ c #804A2C",
"@ c #D0A898",
/* pixels */
"                          ................  ........        ........      ..........................................            ",
"                          ................  ........        ........      ..........................................            ",
"          ..................oo++++oo..........++OO............OO++..........OO++++@@OOOOOO..++++..++++++++OOOO++++........      ",
"          ..................oo++++oo..........++OO............OO++..........OO++++@@OOOOOO..++++..++++++++OOOO++++........      ",
"  ..........++++@@OO++++++OOOOOOOOOO@@@@@@OO++@@@@@@ooooooooOO@@@@ooooooooOO@@@@@@@@OOOOOOooOO@@@@OOOOOOOO@@OO++@@XX......      ",
"  ..........++++@@OO++++++OOOOOOOOOO@@@@@@OO++@@@@@@ooooooooOO@@@@ooooooooOO@@@@@@@@OOOOOOooOO@@@@OOOOOOOO@@OO++@@XX......      ",
"  ..........++++@@OO++++++OOOOOOOOOO@@@@@@OO++@@@@@@ooooooooOO@@@@ooooooooOO@@@@@@@@OOOOOOooOO@@@@OOOOOOOO@@OO++@@XX......      ",
"  ..........++++@@OO++++++OOOOOOOOOO@@@@@@OO++@@@@@@ooooooooOO@@@@ooooooooOO@@@@@@@@OOOOOOooOO@@@@OOOOOOOO@@OO++@@XX......      ",
"  ..........++++@@OO++++++OOOOOOOOOO@@@@@@OO++@@@@@@ooooooooOO@@@@ooooooooOO@@@@@@@@OOOOOOooOO@@@@OOOOOOOO@@OO++@@XX......      ",
"  ..........++++@@OO++++++OOOOOOOOOO@@@@@@OO++@@@@@@ooooooooOO@@@@ooooooooOO@@@@@@@@OOOOOOooOO@@@@OOOOOOOO@@OO++@@XX......      ",
"  ..++++++@@++@@@@@@@@@@@@OOOO++@@OO@@@@@@@@OO@@OO@@++++++ooOO@@OOOOooooooOO@@OO@@@@@@@@@@ooXX@@@@OO++++++@@++OO@@OO......      ",
"  ..++++++@@++@@@@@@@@@@@@OOOO++@@OO@@@@@@@@OO@@OO@@++++++ooOO@@OOOOooooooOO@@OO@@@@@@@@@@ooXX@@@@OO++++++@@++OO@@OO......      ",
"  ..@@@@@@@@OO@@@@@@OOOOOOOOOO@@@@++@@@@@@++OO@@OOOO++++++++OOOOOOOOooooooOOOOOOOOOOOOOOOOooOOOOOOOOXXXXXXOOOOOOOOXX......      ",
"  ..@@@@@@@@OO@@@@@@OOOOOOOOOO@@@@++@@@@@@++OO@@OOOO++++++++OOOOOOOOooooooOOOOOOOOOOOOOOOOooOOOOOOOOXXXXXXOOOOOOOOXX......      ",
"  ..OOOOOO++++OOOOOO++++++OOOOOOXXOO++++++++OOOOOOOO++++++++OOOO++XXXXXXXXOOOO++++OO++++++XXXXOO++++XXXXXXOO++OOOOXX......      ",
"  ..OOOOOO++++OOOOOO++++++OOOOOOXXOO++++++++OOOOOOOO++++++++OOOO++XXXXXXXXOOOO++++OO++++++XXXXOO++++XXXXXXOO++OOOOXX......      ",
"  ..XXXXXXOOXX++++++++++++++++XX++++XXXXXX++OO++++++XXXXXX++++++++XXXXXXXXXX++++++++XXXXXXXXXX++++++XXXXXXXXXX++++XX......      ",
"  ..XXXXXXOOXX++++++++++++++++XX++++XXXXXX++OO++++++XXXXXX++++++++XXXXXXXXXX++++++++XXXXXXXXXX++++++XXXXXXXXXX++++XX......      ",
"  ..XXXXXXOO++XXXXXXXXXXXXXXXXXXXXXXXXXXXXXXXXXXXXXXXXXXXXooXXXXXXXXooooooXXXXXXXXXXXXXXXXXXXXXXXXXXXXXXXXXXXXXXXXoo..........  ",
"  ..XXXXXXOO++XXXXXXXXXXXXXXXXXXXXXXXXXXXXXXXXXXXXXXXXXXXXooXXXXXXXXooooooXXXXXXXXXXXXXXXXXXXXXXXXXXXXXXXXXXXXXXXXoo..........  ",
"  ........XXXXXXXXXXXXXXXXXXXXoo++XXooooooXXXXXXooXX++++++XXoo++oo++XXXXXXoo++ooXXoo++++++XXooOOoo@@ooooooOOOOOOOO@@@@@@@@++..  ",
"  ........XXXXXXXXXXXXXXXXXXXXoo++XXooooooXXXXXXooXX++++++XXoo++oo++XXXXXXoo++ooXXoo++++++XXooOOoo@@ooooooOOOOOOOO@@@@@@@@++..  ",
"  ........XXXXXXXXXXXXXXXXXXXXoo++XXooooooXXXXXXooXX++++++XXoo++oo++XXXXXXoo++ooXXoo++++++XXooOOoo@@ooooooOOOOOOOO@@@@@@@@++..  ",
"  ........XXXXXXXXXXXXXXXXXXXXoo++XXooooooXXXXXXooXX++++++XXoo++oo++XXXXXXoo++ooXXoo++++++XXooOOoo@@ooooooOOOOOOOO@@@@@@@@++..  ",
"  ........XXXXXXXXXXXXXXXXXXXXoo++XXooooooXXXXXXooXX++++++XXoo++oo++XXXXXXoo++ooXXoo++++++XXooOOoo@@ooooooOOOOOOOO@@@@@@@@++..  ",
"  ........XXXXXXXXXXXXXXXXXXXXoo++XXooooooXXXXXXooXX++++++XXoo++oo++XXXXXXoo++ooXXoo++++++XXooOOoo@@ooooooOOOOOOOO@@@@@@@@++..  ",
"..........OOOOXXOO++OOOOOOXXXX++XXoooooooo++OOXXXXOOOOOOOOOOOOOO++OOOOOOOO++++++OO@@@@@@@@OOXX++OOOOOOOOOOOO++OO++OO@@@@@@++..  ",
"..........OOOOXXOO++OOOOOOXXXX++XXoooooooo++OOXXXXOOOOOOOOOOOOOO++OOOOOOOO++++++OO@@@@@@@@OOXX++OOOOOOOOOOOO++OO++OO@@@@@@++..  ",
"..OO@@@@@@OOOO++++@@OOOOOOOOOOOO@@++XXXXXX@@++++OOOOOOOOOOOOOO++++OOOOOOOO++ooXXOO++OOOOOOOOXXXXOOOOOOOOOO++XXXX++++OOOOOO@@....",
"..OO@@@@@@OOOO++++@@OOOOOOOOOOOO@@++XXXXXX@@++++OOOOOOOOOOOOOO++++OOOOOOOO++ooXXOO++OOOOOOOOXXXXOOOOOOOOOO++XXXX++++OOOOOO@@....",
"..@@OOOOOO++OO++XX++OOOOOO++OO++++OOXXXXXXOOOOOO++OOOOOOOOOO++++++OOXXXXXXXX++XXOO++OOOOOOOOOOXX++XXXXXXXXXX++OOOO++OOOOOOOO....",
"..@@OOOOOO++OO++XX++OOOOOO++OO++++OOXXXXXXOOOOOO++OOOOOOOOOO++++++OOXXXXXXXX++XXOO++OOOOOOOOOOXX++XXXXXXXXXX++OOOO++OOOOOOOO....",
"..@@OOOOOOOO++OOOOXX++++++OOOOOO++OO++++++OO++++++OOOOOOOOOO++++ooOOOOOOOOXXXXooOOOOOOOOOOXXOOOOXXOOOOOOOOOO++OOOOOOOOOOOO++XX..",
"..@@OOOOOOOO++OOOOXX++++++OOOOOO++OO++++++OO++++++OOOOOOOOOO++++ooOOOOOOOOXXXXooOOOOOOOOOOXXOOOOXXOOOOOOOOOO++OOOOOOOOOOOO++XX..",
"..OO++++++++++++OOOOXXXXXX++++++++XX++++++++++++++++OOOOOO++++++XXOO++++++XX++XX++++++++++XXOO++XXXXOOOOOO++++++++++++++++XX....",
"..OO++++++++++++OOOOXXXXXX++++++++XX++++++++++++++++OOOOOO++++++XXOO++++++XX++XX++++++++++XXOO++XXXXOOOOOO++++++++++++++++XX....",
"..XX++++++++++++OO++++++++++XX++++XXooooooXX++++++++++++++XXXXXXXX++XXXXXXXXXXXXXXoo++++++XX++++++XXXXXXXXXXooooooXXXXXXXX......",
"..XX++++++++++++OO++++++++++XX++++XXooooooXX++++++++++++++XXXXXXXX++XXXXXXXXXXXXXXoo++++++XX++++++XXXXXXXXXXooooooXXXXXXXX......",
"..XX++++++++++++OO++++++++++XX++++XXooooooXX++++++++++++++XXXXXXXX++XXXXXXXXXXXXXXoo++++++XX++++++XXXXXXXXXXooooooXXXXXXXX....  ",
"..XX++++++++++++OO++++++++++XX++++XXooooooXX++++++++++++++XXXXXXXX++XXXXXXXXXXXXXXoo++++++XX++++++XXXXXXXXXXooooooXXXXXXXX....  ",
"..XX++++++++++++OO++++++++++XX++++XXooooooXX++++++++++++++XXXXXXXX++XXXXXXXXXXXXXXoo++++++XX++++++XXXXXXXXXXooooooXXXXXXXX....  ",
"..XX++++++++++++OO++++++++++XX++++XXooooooXX++++++++++++++XXXXXXXX++XXXXXXXXXXXXXXoo++++++XX++++++XXXXXXXXXXooooooXXXXXXXX....  ",
"..XXXXXXXX++++++++++++++++++XXXXXXXXXXXXXXXXXXXXXXXXXXXXXXXXooooooXXXXXXXXooooooooXXXXXXXXXXXXXXXXXXXXXXXXXXXXXXXXXXoooooo..    ",
"..XXXXXXXX++++++++++++++++++XXXXXXXXXXXXXXXXXXXXXXXXXXXXXXXXooooooXXXXXXXXooooooooXXXXXXXXXXXXXXXXXXXXXXXXXXXXXXXXXXoooooo..    ",
"....ooooooXXXXXXXXXXXXXXXXXXoooooooo++++++++OOOO++++++++++ooXXoooo++ooooooXXooooOOOOOOOOOO++ooooXXoooooooooooo++oooooooooo....  ",
"....ooooooXXXXXXXXXXXXXXXXXXoooooooo++++++++OOOO++++++++++ooXXoooo++ooooooXXooooOOOOOOOOOO++ooooXXoooooooooooo++oooooooooo....  ",
"  ........++XXOOooXXXXXXXXoooo++XX@@@@@@@@OOOOOOOOOOOOOOOOOOOO++@@OOOOOOOOOO++@@@@@@OOOOOO++XX++ooOOOOOOOOOOOOOOOO@@@@@@@@++..  ",
"  ........++XXOOooXXXXXXXXoooo++XX@@@@@@@@OOOOOOOOOOOOOOOOOOOO++@@OOOOOOOOOO++@@@@@@OOOOOO++XX++ooOOOOOOOOOOOOOOOO@@@@@@@@++..  ",
"....@@@@@@OOOO++OOOOooooooXX++OOOOOOOOOOOO++OOOOOOOOOOOOOO++OOOO++OOOOOOOOOOOO++++OOOOOOOOXXoooo++++OOOOOOOOOOOOOOOO@@@@@@@@..  ",
"....@@@@@@OOOO++OOOOooooooXX++OOOOOOOOOOOO++OOOOOOOOOOOOOO++OOOO++OOOOOOOOOOOO++++OOOOOOOOXXoooo++++OOOOOOOOOOOOOOOO@@@@@@@@..  ",
"..OO@@@@@@OOOOOOOOOO++++++++XXOOOOXX++++++OO++++++OOOOOOOO++++++++OO++++++++++++OOOOOOOOOOXXXXXXOOOO++++++++XXXX++++@@@@@@OO..  ",
"..OO@@@@@@OOOOOOOOOO++++++++XXOOOOXX++++++OO++++++OOOOOOOO++++++++OO++++++++++++OOOOOOOOOOXXXXXXOOOO++++++++XXXX++++@@@@@@OO..  ",
"..@@XXXXXXOO++++++++++++++XXooOOOOOOXXXXXXOO++++++++OOOOOOOOOOOO++OO++++++++++++++OOXXXXXXXXXX++OO++++++++XXOO++++++OOOOOOXX..  ",
"..@@XXXXXXOO++++++++++++++XXooOOOOOOXXXXXXOO++++++++OOOOOOOOOOOO++OO++++++++++++++OOXXXXXXXXXX++OO++++++++XXOO++++++OOOOOOXX..  ",
"..@@XXXXXXOO++++++++++++++XXooOOOOOOXXXXXXOO++++++++OOOOOOOOOOOO++OO++++++++++++++OOXXXXXXXXXX++OO++++++++XXOO++++++OOOOOOXX..  ",
"..@@XXXXXXOO++++++++++++++XXooOOOOOOXXXXXXOO++++++++OOOOOOOOOOOO++OO++++++++++++++OOXXXXXXXXXX++OO++++++++XXOO++++++OOOOOOXX..  ",
"..@@XXXXXXOO++++++++++++++XXooOOOOOOXXXXXXOO++++++++OOOOOOOOOOOO++OO++++++++++++++OOXXXXXXXXXX++OO++++++++XXOO++++++OOOOOOXX..  ",
"..@@XXXXXXOO++++++++++++++XXooOOOOOOXXXXXXOO++++++++OOOOOOOOOOOO++OO++++++++++++++OOXXXXXXXXXX++OO++++++++XXOO++++++OOOOOOXX..  ",
"..OO@@@@@@XXOO++++++XXXXXXXXXXOO++++OOOOOOXXOO++OO++++++++++++OO++++++++++XXOO++OOOOOOOOOOXXXXooXXXXXXXXXXOO++XXXXOOXXXXXX....  ",
"..OO@@@@@@XXOO++++++XXXXXXXXXXOO++++OOOOOOXXOO++OO++++++++++++OO++++++++++XXOO++OOOOOOOOOOXXXXooXXXXXXXXXXOO++XXXXOOXXXXXX....  ",
"....XXXXXXOOXX++++XXXXXXXXXXooXXXX++++++++XXXX++++++++++++OO++++++++XXXXXXOO++++++++++++++XXoo++XXXXXXXXXXXXXXXXXXXXXXXXXX....  ",
"....XXXXXXOOXX++++XXXXXXXXXXooXXXX++++++++XXXX++++++++++++OO++++++++XXXXXXOO++++++++++++++XXoo++XXXXXXXXXXXXXXXXXXXXXXXXXX....  ",
"  ..XXXXXXXXXXXXXXXXooooooXXXXXXXXXXXXXXXXXXXXXXXXXXXXXXXXXXXXXXXXXXXXXXXXXXXXXXXXXXXXXXXXXXXXooXX++XXXXXXXXXXXXoo++++++++OO....",
"  ..XXXXXXXXXXXXXXXXooooooXXXXXXXXXXXXXXXXXXXXXXXXXXXXXXXXXXXXXXXXXXXXXXXXXXXXXXXXXXXXXXXXXXXXooXX++XXXXXXXXXXXXoo++++++++OO....",
"  ........XXooooXXoooooooo++XXXXXXooooooooooooooOOOOoooooooooo++OOoooooooooo++OOOOOO++++++OO@@OOXX++ooooooooXXXXXXXX@@@@@@@@++..",
"  ........XXooooXXoooooooo++XXXXXXooooooooooooooOOOOoooooooooo++OOoooooooooo++OOOOOO++++++OO@@OOXX++ooooooooXXXXXXXX@@@@@@@@++..",
"  ........++++oo++++++++++XX++OOOOOOOOOOOOOOOOOOOO@@OOOOOOOOOOOOOOOO++++++XXOOOOOO@@XXXXXXOOOOOOOOOO++++++oo@@OOOOXX++++++@@OO..",
"  ........++++oo++++++++++XX++OOOOOOOOOOOOOOOOOOOO@@OOOOOOOOOOOOOOOO++++++XXOOOOOO@@XXXXXXOOOOOOOOOO++++++oo@@OOOOXX++++++@@OO..",
"  ..OOOOOO@@OOOOOOOO@@@@@@++OOOO++OOOOOOOOOOOOOO++OOOOOOOOOOOOOOOOOOooooooooOOOOOOOOXXXXXXOO++++++OOooooooOO++OOOOXXXXXXXXOOXX..",
"  ..OOOOOO@@OOOOOOOO@@@@@@++OOOO++OOOOOOOOOOOOOO++OOOOOOOOOOOOOOOOOOooooooooOOOOOOOOXXXXXXOO++++++OOooooooOO++OOOOXXXXXXXXOOXX..",
"  ..OOOOOO@@OOOOOOOO@@@@@@++OOOO++OOOOOOOOOOOOOO++OOOOOOOOOOOOOOOOOOooooooooOOOOOOOOXXXXXXOO++++++OOooooooOO++OOOOXXXXXXXXOOXX..",
"  ..OOOOOO@@OOOOOOOO@@@@@@++OOOO++OOOOOOOOOOOOOO++OOOOOOOOOOOOOOOOOOooooooooOOOOOOOOXXXXXXOO++++++OOooooooOO++OOOOXXXXXXXXOOXX..",
"  ..OOOOOO@@OOOOOOOO@@@@@@++OOOO++OOOOOOOOOOOOOO++OOOOOOOOOOOOOOOOOOooooooooOOOOOOOOXXXXXXOO++++++OOooooooOO++OOOOXXXXXXXXOOXX..",
"  ..OOOOOO@@OOOOOOOO@@@@@@++OOOO++OOOOOOOOOOOOOO++OOOOOOOOOOOOOOOOOOooooooooOOOOOOOOXXXXXXOO++++++OOooooooOO++OOOOXXXXXXXXOOXX..",
"  ..@@@@@@OOOO++++++OOOOOOXXXXOOOO++++++++++++++OO++++++++OOooOO++++ooooooooOO++OO++XXXXXXOOOO++++++XXXXXXooOO++++XXXXXXXX@@OO..",
"  ..@@@@@@OOOO++++++OOOOOOXXXXOOOO++++++++++++++OO++++++++OOooOO++++ooooooooOO++OO++XXXXXXOOOO++++++XXXXXXooOO++++XXXXXXXX@@OO..",
"  ..OOOOOOOOOOOOOOOO++++++OOOOOOXXOO++++++++++++++++++++++oo++++++++ooooooXX++++OOOOXXXXXX++++++++++XXXXXXooOO++++++XXXXXXOO++..",
"  ..OOOOOOOOOOOOOOOO++++++OOOOOOXXOO++++++++++++++++++++++oo++++++++ooooooXX++++OOOOXXXXXX++++++++++XXXXXXooOO++++++XXXXXXOO++..",
"  ..XXXXXX++XXXX++++OOOOOO++++OOXX++++++++++XX++++++XXXXXXooXXXXXXXXooooooXXXXXXOO++XXXXXX++++++XXXXooooooooXX++++++++++++XXOO..",
"  ..XXXXXX++XXXX++++OOOOOO++++OOXX++++++++++XX++++++XXXXXXooXXXXXXXXooooooXXXXXXOO++XXXXXX++++++XXXXooooooooXX++++++++++++XXOO..",
"  ..XXXXXXXX++OO++++++++++++++++XX++++++++++XXXXXXXXooooooXXooXXXXooXXXXXXooXXXXXXXXXXXXXXXXXXXXXXXXooooooooXXXXXXXXXXXXXXXXXX..",
"  ..XXXXXXXX++OO++++++++++++++++XX++++++++++XXXXXXXXooooooXXooXXXXooXXXXXXooXXXXXXXXXXXXXXXXXXXXXXXXooooooooXXXXXXXXXXXXXXXXXX..",
"  ..XXXXXXXXXXXXXXXXXXXXXXXXXXXXXXXXXXXXXXXXXXXXXXXXoooooooo++ooXXoooooooo++ooXXXXXXXXXXXXXXooXXooXXXXXXXXooooXXXXXXoooooooo....",
"  ..XXXXXXXXXXXXXXXXXXXXXXXXXXXXXXXXXXXXXXXXXXXXXXXXoooooooo++ooXXoooooooo++ooXXXXXXXXXXXXXXooXXooXXXXXXXXooooXXXXXXoooooooo....",
"  ........XXXX++OO++OOOOOO++XXoooo++ooooooooooXXoo++OOOOOOOOOOOOOOOOOOOOOOOOOOOOooOOOOOOOOOOXX++oo++OOOOOOOOXXXXXXOOXXXXXXoo..  ",
"  ........XXXX++OO++OOOOOO++XXoooo++ooooooooooXXoo++OOOOOOOOOOOOOOOOOOOOOOOOOOOOooOOOOOOOOOOXX++oo++OOOOOOOOXXXXXXOOXXXXXXoo..  ",
"  ........XXXX++OO++OOOOOO++XXoooo++ooooooooooXXoo++OOOOOOOOOOOOOOOOOOOOOOOOOOOOooOOOOOOOOOOXX++oo++OOOOOOOOXXXXXXOOXXXXXXoo..  ",
"  ........XXXX++OO++OOOOOO++XXoooo++ooooooooooXXoo++OOOOOOOOOOOOOOOOOOOOOOOOOOOOooOOOOOOOOOOXX++oo++OOOOOOOOXXXXXXOOXXXXXXoo..  ",
"  ........XXXX++OO++OOOOOO++XXoooo++ooooooooooXXoo++OOOOOOOOOOOOOOOOOOOOOOOOOOOOooOOOOOOOOOOXX++oo++OOOOOOOOXXXXXXOOXXXXXXoo..  ",
"  ........XXXX++OO++OOOOOO++XXoooo++ooooooooooXXoo++OOOOOOOOOOOOOOOOOOOOOOOOOOOOooOOOOOOOOOOXX++oo++OOOOOOOOXXXXXXOOXXXXXXoo..  ",
"    ......XXOOOOOOOOXXXXXXOOOOOOOO++XXXXXXOO++++ooOO@@@@@@OOOO++++++OOOOOOOO++++++++@@@@@@OO++XXXXOO@@@@@@OO++@@@@OO++++++++....",
"    ......XXOOOOOOOOXXXXXXOOOOOOOO++XXXXXXOO++++ooOO@@@@@@OOOO++++++OOOOOOOO++++++++@@@@@@OO++XXXXOO@@@@@@OO++@@@@OO++++++++....",
"    ......OO++OO++OOXXXXXXOO++++OO++++++++OOXXXXooOOOOOOOO++++++++++++++++++++++++XXXXXXXXXX++ooXXOO++++++XXOOOOOOOOOOOOOOOOXX..",
"    ......OO++OO++OOXXXXXXOO++++OO++++++++OOXXXXooOOOOOOOO++++++++++++++++++++++++XXXXXXXXXX++ooXXOO++++++XXOOOOOOOOOOOOOOOOXX..",
"  ........XXOO++++++OOOOOOXX++++++OO++++++OOOOOOXX++++++++++++++++++++++++OOOOOOOOOOOOOOOOOO++ooXXXXXXXXXXXXOO++++++OOOOOOXXXX..",
"  ........XXOO++++++OOOOOOXX++++++OO++++++OOOOOOXX++++++++++++++++++++++++OOOOOOOOOOOOOOOOOO++ooXXXXXXXXXXXXOO++++++OOOOOOXXXX..",
"  ..OOOOOOXX++++++++++++++XX++++++++++++++OO++++XXoo++++++++++++++++OOOOOOOO++++++++++++++++++XXXXXXXXXXXXXXXX++++XXXXXXXXXXOO..",
"  ..OOOOOOXX++++++++++++++XX++++++++++++++OO++++XXoo++++++++++++++++OOOOOOOO++++++++++++++++++XXXXXXXXXXXXXXXX++++XXXXXXXXXXOO..",
"  ..OOOOOOXX++++++++XXXXXXooooXXXX++++++++++XX++OOXXXXXXXXXXooXXXXXXXXXXXXooXX++++++XXXXXX++++++XXOO++++++++OO++++XXXXXXXX++XX..",
"  ..OOOOOOXX++++++++XXXXXXooooXXXX++++++++++XX++OOXXXXXXXXXXooXXXXXXXXXXXXooXX++++++XXXXXX++++++XXOO++++++++OO++++XXXXXXXX++XX..",
"  ..XXXXXXXXXXXXXXXXXXXXXXooooXXXXXXXXXXXXXXXXXXXXXXXXXXXXooXXooXXXXooooooXXooXXXXXXXXXXXX++++++XX++++++++++++++++OO++++++XXXX..",
"  ..XXXXXXXXXXXXXXXXXXXXXXooooXXXXXXXXXXXXXXXXXXXXXXXXXXXXooXXooXXXXooooooXXooXXXXXXXXXXXX++++++XX++++++++++++++++OO++++++XXXX..",
"  ..XXXXXXXXXXXXXXXXXXXXXXooooXXXXXXXXXXXXXXXXXXXXXXXXXXXXooXXooXXXXooooooXXooXXXXXXXXXXXX++++++XX++++++++++++++++OO++++++XXXX..",
"  ..XXXXXXXXXXXXXXXXXXXXXXooooXXXXXXXXXXXXXXXXXXXXXXXXXXXXooXXooXXXXooooooXXooXXXXXXXXXXXX++++++XX++++++++++++++++OO++++++XXXX..",
"  ..XXXXXXXXXXXXXXXXXXXXXXooooXXXXXXXXXXXXXXXXXXXXXXXXXXXXooXXooXXXXooooooXXooXXXXXXXXXXXX++++++XX++++++++++++++++OO++++++XXXX..",
"  ..XXXXXXXXXXXXXXXXXXXXXXooooXXXXXXXXXXXXXXXXXXXXXXXXXXXXooXXooXXXXooooooXXooXXXXXXXXXXXX++++++XX++++++++++++++++OO++++++XXXX..",
"  ........ooooXXXXXXooooooooXXXXooXXooooooXXXXXXXXXXoooooo++ooooXXoo++++++ooooXXXXXXXXXXXXXXXXXXXXXXXXXXXXXXXXXXXXXXXXXXXXXXXX..",
"  ........ooooXXXXXXooooooooXXXXooXXooooooXXXXXXXXXXoooooo++ooooXXoo++++++ooooXXXXXXXXXXXXXXXXXXXXXXXXXXXXXXXXXXXXXXXXXXXXXXXX..",
"    ......ooXXOOXXXXXXXXXXOOOO++oo++XXXXXXOOOOOOooOOOOOOOOOOOOOOOOOOOOOOOOOOOO++ooXXoooooooooo++ooooXXXXXX++OO++OO++XXXXXXXX....",
"    ......ooXXOOXXXXXXXXXXOOOO++oo++XXXXXXOOOOOOooOOOOOOOOOOOOOOOOOOOOOOOOOOOO++ooXXoooooooooo++ooooXXXXXX++OO++OO++XXXXXXXX....",
"  ........++++OO@@@@++++++OO@@OOXXXX++++++OO@@++++++++++++OOOO++++++OOOOOOOO@@OOoo++++++++OOXX++OOOOOOOOOOOOXXOOOOOOOOOOOOXX..  ",
"  ........++++OO@@@@++++++OO@@OOXXXX++++++OO@@++++++++++++OOOO++++++OOOOOOOO@@OOoo++++++++OOXX++OOOOOOOOOOOOXXOOOOOOOOOOOOXX..  ",
"  ..XXXXXXOOOOOOOOOOOOOOOOXX++OOXXoo++++++XXXXXX++++++++++++++++++++++++++++OOOOooXXXXXXXXOO++++OO++++++++OOXXOO++OO++++++OO..  ",
"  ..XXXXXXOOOOOOOOOOOOOOOOXX++OOXXoo++++++XXXXXX++++++++++++++++++++++++++++OOOOooXXXXXXXXOO++++OO++++++++OOXXOO++OO++++++OO..  ",
"  ..XXXXXXXXOO++++++OOOOOOXXXXXXXXoo++++++OOOOOOOOOOOOOOOOOO++++++++++++++++++++XXOOOOOOOOOO++OO++++++++++XXOO++++++OOOOOOXX..  ",
"  ..XXXXXXXXOO++++++OOOOOOXXXXXXXXoo++++++OOOOOOOOOOOOOOOOOO++++++++++++++++++++XXOOOOOOOOOO++OO++++++++++XXOO++++++OOOOOOXX..  ",
"  ........XXXXXX++++XXXXXXXXXXXXXXXX++++++++++++++++++++++OOOO++++++++++++++++ooXX++++++++OO++++++++++++++XX++++++++++++++XX..  ",
"  ........XXXXXX++++XXXXXXXXXXXXXXXX++++++++++++++++++++++OOOO++++++++++++++++ooXX++++++++OO++++++++++++++XX++++++++++++++XX..  ",
"  ........XXXXXX++++XXXXXXXXXXXXXXXX++++++++++++++++++++++OOOO++++++++++++++++ooXX++++++++OO++++++++++++++XX++++++++++++++XX..  ",
"  ........XXXXXX++++XXXXXXXXXXXXXXXX++++++++++++++++++++++OOOO++++++++++++++++ooXX++++++++OO++++++++++++++XX++++++++++++++XX..  ",
"  ........XXXXXX++++XXXXXXXXXXXXXXXX++++++++++++++++++++++OOOO++++++++++++++++ooXX++++++++OO++++++++++++++XX++++++++++++++XX..  ",
"  ........XXXXXX++++XXXXXXXXXXXXXXXX++++++++++++++++++++++OOOO++++++++++++++++ooXX++++++++OO++++++++++++++XX++++++++++++++XX..  ",
"    ........XXXXXXXXXXXXXXXXXXXXXXXXXXXXXXXXXXXXXXXXXXXXXXoo++XXXXXXoooooo++XXXXXXXXXXXXXX++XXXX++++++++++XX++XXXXXXXXXXXX....  ",
"    ........XXXXXXXXXXXXXXXXXXXXXXXXXXXXXXXXXXXXXXXXXXXXXXoo++XXXXXXoooooo++XXXXXXXXXXXXXX++XXXX++++++++++XX++XXXXXXXXXXXX....  ",
"          ....XXooooXXXXXXXXXX......XXXXXXXXXXXXXXXXXXXXXXXXXXXXXXXXXXXXXXXXXX..XXXXXXXXXXXXXXXXXXXXXXXXXXXXXXXXXXoo........    ",
"          ....XXooooXXXXXXXXXX......XXXXXXXXXXXXXXXXXXXXXXXXXXXXXXXXXXXXXXXXXX..XXXXXXXXXXXXXXXXXXXXXXXXXXXXXXXXXXoo........    ",
"            ....................  ........................................................................................      ",
"            ....................  ........................................................................................      "
};
