/* XPM */
static char *a5d1c767b0bc47e6cd6bb2ab75fa202eP64jUe0ftXKTTKZj[] = {
/* columns rows colors chars-per-pixel */
"64 64 195 2 ",
"   c #140E27",
".  c #1A142B",
"X  c #1A1A31",
"o  c #25182A",
"O  c #391428",
"+  c #241B30",
"@  c #1F2137",
"#  c #2A2234",
"$  c #292538",
"%  c #372334",
"&  c #332D3D",
"*  c #3C333D",
"=  c #4F172B",
"-  c #6E1527",
";  c #7B1428",
":  c #751E2B",
">  c #412937",
",  c #542D32",
"<  c #55383B",
"1  c #6F2B38",
"2  c #57413F",
"3  c #353244",
"4  c #3A3544",
"5  c #3A3847",
"6  c #3C3C4C",
"7  c #3F3D51",
"8  c #443D4B",
"9  c #573C4D",
"0  c #3F4050",
"q  c #48424D",
"w  c #424352",
"e  c #4A4A56",
"r  c #4C4D5A",
"t  c #524C56",
"y  c #4E525E",
"u  c #5E5552",
"i  c #52525E",
"p  c #604659",
"a  c #4C4F60",
"s  c #555661",
"d  c #565863",
"f  c #5A5A65",
"g  c #575C69",
"h  c #5B5E6A",
"j  c #625B68",
"k  c #5E626C",
"l  c #6D6363",
"z  c #62646D",
"x  c #616672",
"c  c #656A74",
"v  c #696D77",
"b  c #686D79",
"n  c #746E76",
"m  c #6D737C",
"M  c #6F787E",
"N  c #74757C",
"B  c #8B1829",
"V  c #951529",
"C  c #961729",
"Z  c #9C192A",
"A  c #A41D2B",
"S  c #AA1E2C",
"D  c #88222D",
"F  c #9B242D",
"G  c #912D35",
"H  c #982932",
"J  c #A2272E",
"K  c #AC222C",
"L  c #B4242D",
"P  c #BA262E",
"I  c #B3282C",
"U  c #BE292E",
"Y  c #AA2C31",
"T  c #B72D31",
"R  c #B63235",
"E  c #C52B2F",
"W  c #C92D2F",
"Q  c #C62C30",
"!  c #C82E30",
"~  c #C03132",
"^  c #B57237",
"/  c #F96312",
"(  c #F97614",
")  c #E85125",
"_  c #F45E25",
"`  c #F36228",
"'  c #F77432",
"]  c #943842",
"[  c #A13940",
"{  c #864E5B",
"}  c #92545C",
"|  c #866C58",
" . c #997352",
".. c #92636D",
"X. c #8D7276",
"o. c #F57347",
"O. c #A39039",
"+. c #FA8D1A",
"@. c #FB9418",
"#. c #FBA923",
"$. c #FAD631",
"%. c #FAF03A",
"&. c #F48C6E",
"*. c #F49173",
"=. c #6F7A81",
"-. c #757783",
";. c #737A82",
":. c #7C7C85",
">. c #797C89",
",. c #817A81",
"<. c #76828A",
"1. c #7C848B",
"2. c #83848D",
"3. c #838B8F",
"4. c #858E94",
"5. c #898B93",
"6. c #8A8C96",
"7. c #869297",
"8. c #8A9296",
"9. c #879398",
"0. c #8C9499",
"q. c #8E999D",
"w. c #959397",
"e. c #92949C",
"r. c #939B9F",
"t. c #A58D95",
"y. c #B1A79A",
"u. c #9B9CA4",
"i. c #9A9EA6",
"p. c #AC9EA6",
"a. c #95A4A6",
"s. c #9DA1A5",
"d. c #9BA5A9",
"f. c #9EABAB",
"g. c #A3A4AB",
"h. c #A2AAAB",
"j. c #B7AAAE",
"k. c #A6A6B0",
"l. c #ABADB3",
"z. c #A4B2B2",
"x. c #ACB6B6",
"c. c #AABBB9",
"v. c #B2B3BA",
"b. c #B6B8BA",
"n. c #B3BCBB",
"m. c #F69880",
"M. c #F8AE98",
"N. c #E9B59E",
"B. c #F8B19B",
"V. c #F6BDAD",
"C. c #AFC0BD",
"Z. c #B2C1BE",
"A. c #F6C5B7",
"S. c #BBBCC1",
"D. c #C9BCC3",
"F. c #B5C4C1",
"G. c #BBC5C3",
"H. c #BFCBC8",
"J. c #C3C9C6",
"K. c #C5C4CA",
"L. c #C9CACD",
"P. c #C9D0CD",
"I. c #CCCCD0",
"U. c #CED4D3",
"Y. c #D1D5D4",
"T. c #D5D5D9",
"R. c #DBDBDE",
"E. c #F5D9D1",
"W. c #F6E1DC",
"Q. c #DEDEE1",
"!. c #E0DFE0",
"~. c #DFE2E5",
"^. c #E3E4E5",
"/. c #EAECE7",
"(. c #E6E6E8",
"). c #EBECED",
"_. c #F4EAE8",
"`. c #F5F4EE",
"'. c #EEEFF0",
"]. c #F0F1F1",
"[. c gray95",
"{. c #F3F4F3",
"}. c #F4F4F4",
"|. c gray96",
" X c gray97",
".X c #F9F6F5",
"XX c #F7F8F7",
"oX c #F7F7F8",
"OX c #F7F8F8",
"+X c #F8F8F8",
"@X c gray98",
"#X c #FBFCFB",
"$X c #FBFBFC",
"%X c #FBFCFC",
"&X c gray99",
/* pixels */
"&X&X@X|.|.|.@X@X|.|.|.@X@XOXXXXX|.|.|.|.@X|.|.|.|.OX|.|.|.|.|.@X&X@X[.[.[.|.OX|.|.|.|.@XOX|.|.|.@X@X|.|.|.@X@X@X|.|.|.|.|.@X%X&X",
"&X&X@X[.[.|.&X&X|.[.[.&X&X&X&X&X|.[.[.@X&X@X[.[.@X&X&X|.[.[.[.@X&X%X[.[.|.&X&X|.[.[.@X&X%X[.[.|.&X&X|.[.[.@X&X@X[.[.[.[.[.@X&X&X",
"&X&X@X[.[.|.&X&X|.[.[.&X&X&X&X&X|.[.[.@X&X@X[.[.@X&X%X|.[.[.[.@X&X$X[.[.|.&X&X|.[.[.@X&X@X[.[.|.&X&X|.[.[.@X&X@X[.[.[.[.[.@X&X&X",
"|.|.|.@X@X|.|.|.@X@X@X|.|.|.|.|.OX@X@X|.|.|.@X@X@X&X$X@X@X@X@X|.|.|.@X@X@X|.|.|.@X@X|.|.|.@X@X@X|.|.[.[.[.@XOX|.[.[.|.@X@X|.|.|.",
"[.[.|.&X&XOX[.[.@X&X%X[.[.[.[.[.@X&X%X{.[.|.&X&X&X&X&X&X&X%X&X|.[.[.@X&X@X[.[.|.&X&X|.[.[.#X&X@X[.[.[.[.[.|.|.[.[.[.OX&X&X|.[.[.",
"[.[.|.%X&XXX[.[.@X&X@X|.[.[.[.[.@X&X@X|.[.|.#X#X@X@X@X@X@X@X@X|.[.[.@X#X@X[.[.|.&X&X|.[.{.@X&X@X[.[.[.[.[.XX|.|.|.[.XX&X%X|.[.[.",
"@X$X@X{.[.|.$X@X|.[.|.@X@X@X@X@X|.[.|.@X@X@X|.|.|.[.{.@X&X@X[.@X@X@X|.[.|.@X@X@X&X&X@X@X@X&X&X@X[.[.|.$X@X%X&X@X$X&XXX[.[.@X&X%X",
"&X&X@X[.[.|.&X&X|.[.[.&X&X&X&X&X|.[.[.@X&X@X[.|.[.[.[.@XoX).(.).&X&X[.[.|.&X&X%X&X&X&X&X&X&X&X@X[.[.@X&X&X&X&X&X&X&X|.[.[.@X&X&X",
"@X@X@X|.|.|.@X@X|.|.|.#X&X@X@X@X|.|.|.@X@X@X|.|.|.|.|.@Xi.5.i.5.l.@X|.|.|.#X%X@X@X@X@X&X$X@X@X@X|.|.@X@X@X&X&X&X&X&XOX[.{.@X@X@X",
"[.[.|.&X&XOX[.[.@X&X&X&X&X@X[.[.@X&X@X{.[.|.%X#X&X&X@Xl.4.n.Z.c.;.l.[.&X&X&X&X|.[.[.@X&X@X{.[.|.&X&X|.[.[.@X&X%X&X&XXX[.[.[.[.[.",
"[.[.|.&X&X@X[.[.@X&X&X&X&X@X[.[.@X&X#X[.[.|.&X&X'.L.g.m 0.Z.c.Z.2.:.e.i.T.@X&X|.[.[.@X&X@X[.[.|.&X&X|.[.[.@X&X&X&X&XOX[.[.[.[.[.",
"|.|.|.@X@X|.[.[.@X&X$X@X@X|.|.|.|.|.|.|.|.@X@XT.g.h.n.h.1.n.J.G.5.F.G.l.h.l.Q.@X|.|.|.|.|.|.|.|.@XOX|.|.|.@X@X@X&X&X|.[.[.|.|.|.",
"&X&X@X[.[.[.[.[.|.&X@X[.[.|.&X&X|.[.[.@X&X@Xv.e.J.C.c.a.0.z.z.n.;.c.c.Z.Y.L.l.R.&X&X|.[.[.@X&X@X[.[.@X&X&X[.[.|.&X&X|.[.[.@X&X&X",
"&X&X@X[.[.[.[.[.|.&X@X[.[.|.&X&X|.[.[.@XOXS.b.F.c.c.c.a.r.Z.c.h.7.c.c.P.`./.P.v.R.&X|.[.[.@X&X@X[.[.@X&X&X[.[.|.&X&X|.[.[.@X&X&X",
"|.|.|.@X@X@X@X@X|.|.@X@X@XOX|.|.|.@X@X&XK.0.G.c.c.c.c.a.0.F.F.h.9.c.c.F./.`.J.x.6.).OX@X@X|.|.|.@X@X|.|.|.@X@X@X|.|.|.@X@X|.|.|.",
"[.[.|.&X&X&X&X&X|.|.@X&X&X@X[.[.@X&X&X[.g.n.c.c.c.c.c.a.1.x.G.h.9.c.c.c.J.U.G.n.s.b.@X&X@X[.[.|.&X&X|.[.[.@X&X@X[.[.|.&X&X|.[.[.",
"[.[.|.%X&X&X&X&X|.|.@X&X&X@X[.[.@X&X&XT.s.Z.c.c.c.c.c.a.<.z.z.h.7.c.c.c.c.c.Z.c.n.2.).&X@X[.[.|.@X@X|.[.[.@X&X@X[.[.|.&X$X|.[.[.",
"@X@X@X|.|.@X&X&X|.[.|.@X&X@X[.[.@X&X@Xk.x.c.c.c.c.c.c.a.<.c.c.h.7.c.c.c.c.c.c.c.G.e.R.&X@X@X@X@X[.[.oX@X@X|.[.|.@X%XoX[.[.@X%X$X",
"@X@XOX|.|.@X&X&X|.[.[.%X&X@X[.[.@X&X).2.n.c.c.c.c.c.c.a.<.c.c.h.9.c.c.c.c.c.c.c.Z.5.v.&X&X&X#X@X[.[.OX&X%X[.[.|.&X&X|.[.[.@X&X&X",
"|.|.|.@X@X@X@X@X|.|.|.@X@XOX|.|.OX|.b.6.F.c.c.c.c.c.c.a.<.z.n.h.7.c.c.c.c.c.c.c.Z.:.-.oX&X@X@XoX|.|.XX@X@X|.|.|.@X@X|.|.|.@X@X@X",
"&X&X@X[.[.[.[.[.@X&X@X[.[.|.&X&X|.l.0.e.F.c.c.c.c.c.c.a.<.8.8.h.9.c.c.c.c.c.c.c.Z.r.e.l.@X|.[.|.&X&X|.[.[.@X&X@X[.[.|.&X&X|.[.[.",
"&X&X@X[.[.[.[.[.@X&X@X[.[.|.&X&X|.i.b.0.Z.c.c.c.c.c.c.a.<.c.c.h.9.c.c.c.c.c.c.c.c.8.J.g.`._.[.|.&X&X|.[.[.@X&X@X[.[.|.&X&X|.[.[.",
"|.|.|.|.|.|.XX|.|.|.|.|.|.|.|.|.|.e.4.M c.c.c.c.c.c.c.a.<.c.c.h.7.c.c.c.c.c.c.c.c.=.0.e._.V.|.|.|.|.|.|.oX|.|.|.XXXX|.|.|.|.|.|.",
"[.[.|.&X&X&X&X&X|.[.[.$X&X@X[.[.@X3.r g 3.z.c.c.c.c.c.a.<.f.n.h.7.c.c.c.c.c.c.z.4.k r -.`.B..X@X[.[.OX&X%X|.[.{.&X&XXX[.[.@X&X&X",
"[.[.|.&X&X&X&X&X|.[.[.@X&X@X[.[.@Xv.i h z M r.c.c.c.c.a.<.q.r.a.7.c.c.c.c.c.d.N j k r 5.W.M.@X@X[.[.OX&X$X[.[.|.&X&XXX[.[.@X&X&X",
"@X@X@X&X&X@X|.|.@X@X@X|.|.|.@X@X|.(.e.x c i f 1.0.f.z.q.m z.h.M 1.z.z.f.0.;.z d f z 6.!.E.m.A.W.@X@X|.|.|.@X@X@X|.|.|.@X@X|.|.|.",
"&X&X&X&X&X|.[.[.@X&X@X[.[.|.&X&X|.[.).1.v d d d d z z d 0 z z w r z z z d d d d z ;.!.A.A.o.&.V.&X&X|.[.[.@X&X@X[.[.|.&X&X|.[.[.",
"&X&X%X@X@XXX|.|.@X@X@X|.[.|.@X@X|.[.|.v.;.f d d d d d r 6 d f w w d d d d d d d v e.[.B.' ( _ E.%X@X|.{.|.@X@X@X{.[.|.#X@X|.[.[.",
"&X&X@X[.[.|.&X%X|.[.|.@X%X@X[.[.OX#X&X(.b z d d d d d r 6 f k w w d d d d d d z g b..XM.( @./ *.[.[.OX%X@X|.[.|.%X&XXX[.[.@X&X&X",
"&X&X@X[.[.|.&X&X|.[.[.%X&X@X[.[.@X&X&XT.s c h r e e r w 5 w 8 6 5 e r r r i d M a g.A.) +.#.( ` A.|.@X&X&X{.[.|.&X&XXX[.[.@X&X&X",
"@X@XOX|.|.|.@X@X|.|.|.@X@X|.|.|.|.@X@Xs.4.b g k v v :.:.-.c x x x c N 2.2.g d ;.v.n ) / #.$.@.( *.|.oX@X@X|.|.|.@X@X|.|.|.@X@X@X",
"[.[.|.&X&XXX[.[.@X&X@X[.[.|.&X&X|.[.|.R.e.M d f i r i r r r r r r r r i f d d m r.j.` @.$.%.$.( B.&X|.[.[.@X&X@X[.[.|.&X&X|.[.[.",
"[.[.|.&X&XXX[.[.@X&X@X[.[.|.&X&X|.[.[.&XS.1.z r 5 X @ 6 w w w w 0 5 + X 5 y m k i.|.N.^ O.O.O.^ E.&X|.[.[.@X&X@X[.[.|.&X&X|.[.[.",
"@X@X|.|.|.|.@X@X|.|.|.OXOX|.|.|.|.@XOXY.h.H.H.z.h # O 9 j j j j f % = & M c.U.J.y.L.K.|  . . .| ^.|.|.OX|.|.|.|.@X@X|.|.|.oX@X@X",
"&X&X@X[.[.|.&X&X|.[.[.%X&X@X[.[.@X&X).2.h.d.f.8.l > C Z B ; ; ; B J ; 4 e 0.f.b.j.w.I.l < < 2 X.(.[.@X&X&X[.[.|.&X&X|.[.[.@X&X&X",
"&X&X@X[.[.|.&X&X|.[.[.@X&X@X[.[.@X&X(.x ;.;.N X.q - C A E E E E U K C = u z 1.N ;.0.^.L.& o i (.|.[.@X&X@X|.[.|.&X&X|.[.[.@X&X&X",
"|.OX@X@X@XXX|.|.@X@X@X|.|.|.@X@X|.|.I.b x y w 5 O K A Z Z S K S Z K L C < w e s y r -.v.t , n |.@X@X|.{.|.@X@X@X|.{.|.@X@X|.|.{.",
"@X@X@X&X&XXX[.[.@X&X@X[.[.|.&X&X|.).i.-.3 & & + : Q L U A C C A L Q A U F o & 4 4 $ h.b 6 * N [.&X&X|.[.[.@X&X@X[.[.|.&X&X|.[.[.",
"@X@X@X&X&X@X|.|.@X@X@X|.|.|.@X@X|.).5.1.3 8 # O I E A P E E E E E P L E Y j 5 & 5 m s.h i.l.g.S.%X@X|.|.|.@X@X@X|.|.|.@X@X|.|.|.",
"[.[.|.&X&X&X&X&X|.[.[.@X&X@X[.[.@XoX>.f d 6 # : ! Q K A Q E E E P A E E U ..h y h 2.3.r.d.n.s.l.|.[.@X&X$X|.[.|.&X&XOX[.[.@X&X&X",
"[.[.|.&X&X&X&X&X|.[.[.%X&X@X[.[.@X&Xv.w w 5 1 T E E P C K E E L A P Q Q E } b.1.r 4 k h 0.0.0.g.|.[.@X&X&X[.[.|.&X&XOX[.[.@X&X&X",
"|.|.|.@X@X@X@X@X|.|.|.@X@X|.|.|.|.@X[.i.w 1 T Q E P L L C C C B L Q Q Q W Y K.I.x e s w i d b g.@X|.XX@XOX|.|.|.@X@X|.|.|.@X@X@X",
"&X&X@X[.[.[.[.[.@X&X@X[.[.|.&X&X|.[.|.~.} ~ E E E A K Q U A A L E U P Q E T t.|.R.L.Q.K.6 # i.).&X&X|.[.[.@X&X@X[.[.|.&X&X|.[.[.",
"&X&X@X[.[.[.[.[.@X&X@X[.[.|.&X&X|.[.[.p.R W E E E Z P Q Q E E E E K L E E E } (.&X&X@X^.q > b.@X&X&X|.[.[.@X&X@X[.[.|.&X&X|.[.[.",
"|.|.|.@X@X@X@X@X|.|.|.@X@X@X&X&X@X&XK.[ ! Q E E L Z E E E E E E E A K Q E E ] T.@X|.@X|.w.,.^.@X|.|.|.@X@X|.|.|.@X@X|.|.|.@X@X@X",
"[.[.|.&X&X&X&X&X|.[.[.%X&X&X&X&X&X%Xt.T ! Q E E Z A Q E E E E E E A K Q E E Y p.|.{.@X&X$X@X&X@X[.[.@X&X&X[.[.|.&X&X|.[.[.@X&X&X",
"[.[.|.&X&X&X&X&X|.[.|.@X&X#X%X%X&XoX..U J H J L C L Q E E E Q E E C K W W W I t.XX{.@X&X#X#X%X@X[.[.@X&X@X|.[.|.&X&XXX[.[.@X&X&X",
"@X@X@X&X&X@X[.|.@X@X@X|.|.|.|.|.@XOX..- j v.j...1 K Q Q Q Q Q E E C B D D G J t.&X@X|.|.|.|.|.|.@X@X|.|.|.@X@X@X|.|.|.@X@X|.|.{.",
"@X@X@X&X&X|.[.[.@X&X@X[.[.[.[.[.@X&XD.p L.@X&X%X5.O D K U E E P F = o $ & :.X.p.&X&X|.[.[.[.[.|.&X&X|.[.[.@X&X@X[.[.|.&X&X|.[.[.",
"|.|.|.@X@X|.|.|.@X@X@X|.|.|.|.|.@X@X@XU.(.|.@X|.:.6 3 % , 1 { l 9 6 5 w d :.^.).@X@X|.|.|.|.|.|.@X@X|.{.|.@X@X@X|.|.|.@X@X|.|.|.",
"&X&X@X[.[.|.&X&X|.[.{.@X&X%X%X%X|.[.{.&X&X@X[.(.-.s c k 3 x ^.(.x w f z 7.8.|.@X[.[.@X&X%X%X&X@X[.[.OX&X%X|.[.|.&X&X|.[.[.@X&X&X",
"&X&X@X[.[.|.&X&X|.[.[.&X&X&X&X&X|.[.[.@X&X@X[.[.i.4.G.F.;.g.|.[.v 5 8 M M G.&XXX[.[.@X&X&X&X&X@X[.[.@X&X&X[.[.|.&X&XXX[.[.@X&X&X",
"@X@XOX|.|.|.@X@X|.|.|.@X@X@X@X@X|.|.|.@X@X|.|.@Xb.1.7.0.q.S.@X[.s   . X r (.@X|.|.|.@X&X@X@X@XoX|.|.oX@X@X|.|.|.@X@X|.|.|.@X@X@X",
"[.[.|.&X&X|.[.[.@X&X@X[.[.[.[.[.@X&X@X[.[.|.&X&XQ.6 & 5 r e.&XXX5.  .   7 Q.[.|.&X&X&X&X@X[.[.|.&X&X|.[.[.@X&X@X[.[.|.&X&X|.[.[.",
"[.[.|.&X&XXX[.[.@X&X@X[.[.[.[.[.@X&X@X{.[.|.&X&XQ.3 + # # z @X@Xl.# # + w ^.[.|.&X&X&X&X$X[.[.|.&X&X|.[.[.@X&X@X[.[.|.&X&X|.[.[.",
"@X@XOX|.|.|.@X@X|.|.|.@X@X|.[.[.@X&X#X@X@X|.|.|.'.v.g.g.i.S.|.@X).v.i.i.K.OX@X@X&X%XXX|.|.@X@XOX|.|.XX@X@X@X@X|.[.[.|.&X&X@X@X@X",
"&X&X@X[.[.|.&X&X|.[.[.&X&X@X[.[.@X&X&X&X&X@X[.[.@X&X&X@X|.|.[.@X&X&X|.|.|.&X&X&X&X&X|.[.[.%X&X@X[.[.@X&X&X@XOX[.[.[.|.&X&X&X&X&X",
"&X&X@X[.[.|.&X&X|.[.|.$X&X@X[.[.@X&X$X$X&X@X[.[.@X&X@X|.[.[.[.@X&X@X|.[.|.&X&X%X&X&X|.[.{.@X&X@X[.[.@X&X&X@X@X|.[.[.|.&X&X&X&X&X",
"|.|.|.@X@X|.|.|.@X@X@X|.|.|.@X@X|.|.|.|.|.|.@X@X|.|.|.@X@X@X@X|.|.|.@X@X@X%X&X@X|.|.@X@X@X|.|.|.@X@X|.|.|.@X%X@X@X@X@X&X&X%X&X&X",
"[.[.|.&X&XOX[.[.@X&X@X[.[.|.&X&X|.[.[.[.[.|.&X&X|.[.[.@X&X&X&X|.[.[.@X&X&X&X&X|.[.[.@X&X$X[.[.|.&X&X|.[.[.@X&X&X&X&X&X&X&X&X&X&X",
"|.|.|.@X@X|.|.|.@X@X@X|.|.|.@X@X|.|.|.|.|.|.%X%X|.|.|.@X@X@X%X|.|.|.@X@X@X%X&X@X|.|.@X@X@X|.[.|.@X@X|.[.[.@X&X#X@X@X@X%X&X&X&X&X",
"@X@X|.[.[.|.&X%X|.[.|.@X&X@X[.[.@X&X@X@X$X@X&X&X@X&X@X|.[.|.@X@X&X@X[.[.|.&X&X$X%X%X|.[.[.@X&X@X[.[.[.[.[.@X&X&X&X&XXX[.|.@X&X&X",
"|.|.|.[.[.|.&X&X|.[.[.%X&X@X[.[.@X&X&X&X&X&X&X&X&X&X&X[.[.|.%X&X&X%X[.[.|.&X&X&X&X&X|.[.[.$X&X@X[.[.[.[.[.@X&X&X&X&XOX[.[.@X&X&X",
"|.|.|.|.|.|.@X@X|.|.|.@X@X|.|.|.OX@X@X@X&X%X&X&X@X@X@X|.|.|.@X@X&X@X|.|.|.@X@X@X@X@X|.|.|.@X@X@X|.|.|.|.|.@X&X&X&X&X@X|.|.@X@X@X"
};
