/* XPM */
static char *_7fba3e3b87640aa92f45916abdd7791Br4DOhj79lo7X8c1[] = {
/* columns rows colors chars-per-pixel */
"64 64 225 2 ",
"   c #00001C",
".  c #0F0B2B",
"X  c #120D2C",
"o  c #14102E",
"O  c #191533",
"+  c #33122A",
"@  c #251C35",
"#  c #262135",
"$  c #25233B",
"%  c #2B253B",
"&  c #2D2A3F",
"*  c #3B2830",
"=  c #362739",
"-  c #322A3C",
";  c #7A041E",
":  c #470A25",
">  c #5A0B24",
",  c #5B1D35",
"<  c #650822",
"1  c #720923",
"2  c #771227",
"3  c #442225",
"4  c #462D36",
"5  c #592B35",
"6  c #483238",
"7  c #4D3A3C",
"8  c #683727",
"9  c #5A4039",
"0  c #71412E",
"q  c #63443A",
"w  c #7E4E36",
"e  c #292640",
"r  c #2D2B42",
"t  c #322F44",
"y  c #3B2F42",
"u  c #333145",
"i  c #3B3445",
"p  c #343349",
"a  c #3A364B",
"s  c #3C3A4D",
"d  c #3E3D51",
"f  c #463A45",
"g  c #433C4B",
"h  c #533043",
"j  c #433F52",
"k  c #3F4358",
"l  c #4D4348",
"z  c #584949",
"x  c #434254",
"c  c #474658",
"v  c #4C4B5C",
"b  c #514D58",
"n  c #52525E",
"m  c #5B5358",
"M  c #67494B",
"N  c #755646",
"B  c #734F51",
"V  c #6C5152",
"C  c #665A59",
"Z  c #6B6255",
"A  c #77675A",
"S  c #4D4E61",
"D  c #514F62",
"F  c #4F5061",
"G  c #545463",
"H  c #575867",
"J  c #5A5B66",
"K  c #5B5C6B",
"L  c #635E68",
"P  c #7B5B6A",
"I  c #5E616D",
"U  c #5F6372",
"Y  c #61626D",
"T  c #6D6868",
"R  c #776C68",
"E  c #636572",
"W  c #656976",
"Q  c #6B6C75",
"!  c #6A6D7B",
"~  c #756C79",
"^  c #6D737D",
"/  c #777273",
"(  c #72747D",
")  c #850A21",
"_  c #901223",
"`  c #AA1B26",
"'  c #A82127",
"]  c #985D33",
"[  c #CC672A",
"{  c #F97D27",
"}  c #F6713B",
"|  c #8A6B4C",
" . c #876B54",
".. c #826C5A",
"X. c #8D745A",
"o. c #91775D",
"O. c #A77846",
"+. c #887565",
"@. c #94746D",
"#. c #897C76",
"$. c #B18A3F",
"%. c #C2923A",
"&. c #F78529",
"*. c #F2932F",
"=. c #F5A836",
"-. c #B3985B",
";. c #9A8268",
":. c #88837C",
">. c #998B77",
",. c #A48A6B",
"<. c #AF8F6F",
"1. c #AB966F",
"2. c #A48D75",
"3. c #B79D79",
"4. c #BEA17A",
"5. c #C6914A",
"6. c #F68746",
"7. c #F58B5C",
"8. c #F5B14C",
"9. c #CD8D72",
"0. c #F09D78",
"q. c #C7AB60",
"w. c #C6A679",
"e. c #D0B77A",
"r. c #EAA17E",
"t. c #FCC454",
"y. c #D8C375",
"u. c #FCD466",
"i. c #6F7680",
"p. c #737582",
"a. c #757B84",
"s. c #7A7C85",
"d. c #797D88",
"f. c #847B87",
"g. c #7A828B",
"h. c #7D848B",
"j. c #7F8A91",
"k. c #83848D",
"l. c #82898E",
"z. c #8A898B",
"x. c #928D84",
"c. c #9B9688",
"v. c #858591",
"b. c #848B92",
"n. c #8A8B94",
"m. c #8B8D99",
"M. c #8B959A",
"N. c #8C959A",
"B. c #9B9896",
"V. c #93949C",
"C. c #929A9D",
"Z. c #A79786",
"A. c #A38893",
"S. c #A59D93",
"D. c #B7A487",
"F. c #ABA299",
"G. c #B2AB97",
"H. c #8F9DA1",
"J. c #9695A0",
"K. c #949DA1",
"L. c #9A9BA3",
"P. c #A29FA7",
"I. c #9BA5A7",
"U. c #9DAAAC",
"Y. c #A4A5AC",
"T. c #A4A8A8",
"R. c #A4ACAC",
"E. c #A6A6B0",
"W. c #ABABB3",
"Q. c #A4B2B3",
"!. c #ABB2B3",
"~. c #AFB0B2",
"^. c #AAB8B7",
"/. c #ABBCBB",
"(. c #B5B5BA",
"). c #B3BDBB",
"_. c #C6AC85",
"`. c #D6B888",
"'. c #D0B998",
"]. c #F5A887",
"[. c #EDB986",
"{. c #F4B698",
"}. c #C6B9A1",
"|. c #C2BCBB",
" X c #AFC0BF",
".X c #B3C1BF",
"XX c #BAC0BC",
"oX c #DDC296",
"OX c #E9C690",
"+X c #FCEB8E",
"@X c #C4C2BB",
"#X c #E7C7A2",
"$X c #F9C2AC",
"%X c #F7CCBB",
"&X c #BDBDC4",
"*X c #B9C5C3",
"=X c #C5C5CB",
"-X c #C5CACB",
";X c #CDD4CF",
":X c #CDCDD2",
">X c #D5D4D6",
",X c #D6D6DA",
"<X c #DBDBDF",
"1X c #E3DDC3",
"2X c #F5D5C7",
"3X c #DFE3DA",
"4X c #F4E9CB",
"5X c #E6E3DB",
"6X c #F5E3DB",
"7X c #DDDEE2",
"8X c #E0DEE0",
"9X c #E3E3E5",
"0X c #E7E8E7",
"qX c #ECECED",
"wX c #F7E9E3",
"eX c #F6F1EE",
"rX c #EFEFF0",
"tX c #F4F4F4",
"yX c #F7F8F7",
"uX c #FBF8F6",
"iX c #F7F7F8",
"pX c #F8F7F8",
"aX c #F7F8F8",
"sX c #FBFBFB",
"dX c #FDFEFE",
/* pixels */
"tXtXtXdXdXtXtXtXdXdXaXtXtXaXdXdXtXtXtXdXdXaXtXtXaXdXdXdXdXaXtXtXaXdXdXdXdXtXtXtXdXdXtXtXtXsXdXaXtXtXaXdXdXtXtXtXdXdXaXtXtXaXdXdX",
"tXtXtXdXdXtXtXtXdXdXaXtXtXaXdXdXtXtXtXdXdXaXtXtXaXdXdXdXdXaXtXtXaXdXdXdXdXtXtXtXdXdXtXtXtXdXdXaXtXtXaXdXdXtXtXtXdXdXaXtXtXaXdXdX",
"tXtXtXaXaXtXtXtXaXaXaXtXtXaXaXaXtXtXtXaXaXaXtXtXaXaXsXaXaXaXtXtXaXdXaXaXaXtXtXtXaXaXtXtXtXaXaXaXtXtXaXaXaXtXtXtXaXaXaXtXtXaXaXaX",
"dXdXaXtXtXaXdXdXtXtXtXdXdXaXtXtXaXdXaXtXtXaXdXdXtXtXaXtXtXtXdXdXaXsXtXtXtXdXdXaXtXtXaXdXdXtXtXtXdXdXaXtXtXaXdXaXtXtXtXdXdXtXtXtX",
"dXdXaXtXtXaXdXdXtXtXtXdXdXaXtXtXsXdXsXtXtXyXdXdXtXtXaXtXtXtXdXdXsXdXtXtXtXdXdXaXtXtXaXdXdXtXtXtXdXdXaXtXtXaXdXsXtXtXtXdXdXtXtXtX",
"aXaXaXaXaXaXaXaXaXaXaXaXaXaXaXaXaXaXaXyXtXaXaXaXaXaXaXtXtXtXaXaXaXdXaXtXyXaXaXaXyXyXaXaXaXyXaXaXaXaXaXaXyXaXaXaXaXtXaXaXaXaXaXyX",
"tXtXtXdXdXtXtXtXdXdXaXtXtXaXdXdXtXtXtXdXdXaXtXtXaXdXsXqXqXqXqXqXaXdXdXdXdXtXtXtXdXdXpXtXtXdXdXaXtXtXaXdXdXtXtXtXdXdXaXtXtXaXdXdX",
"tXtXtXdXdXpXtXtXdXdXaXtXtXaXdXdXtXtXtXdXdXaXtXtXdXdX&XK K K K E =XaXdXdXdXtXtXtXdXdXtXtXtXdXdXaXtXtXaXdXdXtXtXtXdXdXaXtXtXaXdXdX",
"aXaXaXtXtXaXaXaXtXtXtXaXaXaXtXtXaXaXaXtXtXaXdXaX:Xv.! K U b.R.XXV.W.tXtXtXaXaXaXtXtXaXaXaXpXtXtXaXaXaXtXtXaXaXaXtXtXaXaXaXyXtXtX",
"dXdXaXtXtXaXdXdXtXtXtXdXdXaXtXtXaXdXaXtXtXaX<Xn.H Q k.v s E U.;X5Xk.( m.0XdXdXaXtXtXaXdXdXtXtXtXdXdXaXtXtXsXdXsXtXtXpXdXdXtXtXtX",
"dXdXaXtXtXaXdXdXtXtXtXdXdXaXtXtXaXdXaXtXtX&Xp.K.).*X*XU.a.s K Q.-X).s.n.f.:XdXaXtXtXaXdXdXtXtXtXdXdXaXtXtXaXdXaXtXtXtXdXdXtXtXtX",
"tXtXtXdXdXtXtXtXaXdXaXtXtXaXdXaXtXtXtXtXL.k.Q. X*X0X5X*X^.( u ^ j.l.( K.).p.:XaXsXsXiXtXtXaXsXaXtXtXaXdXsXtXtXtXsXdXaXtXtXaXdXdX",
"tXtXtXdXdXtXtXtXdXdXaXtXtXaXdXdXtXtXtX:XC.-X/./.*X3X>X/./.j.a E C.).@X/ B.'.( :XdXdXtXtXtXsXdXaXtXtXaXdXdXtXtXtXdXdXaXtXtXaXdXdX",
"tXtXtXaXaXyXtXtXaXsXaXtXtXaXsXaXtXpX:Xb.*X/./././..X*XM.l.V.R.).K.Q.4XOX2.3._.f.qXdXyXtXtXaXaXaXtXtXaXsXaXtXtXtXaXaXaXtXtXaXaXaX",
"dXdXaXtXtXaXdXdXtXtXtXdXdXyXtXtXaXaXm.a.U././././.H.^ k.(.@XR.R.u a.1Xw.2._.+.+.n.tXaXdXdXtXtXtXdXdXaXtXtXaXdXaXtXtXtXdXdXtXtXtX",
"dXdXaXtXtXaXdXdXtXtXtXdXdXaXtXtXdXtXg.Q l.^.U.^.d.b.I.R.R.t n.W.X ^ 1X;.f oXZ.l D qXaXdXdXtXeXtXdXdXaXtXtXaXdXaXtXtXtXdXdXtXtXtX",
"aXaXaXtXtXaXaXaXtXiXpXaXaXaXtXtXaX:Xp.J K l.h.W g..X^ v L.O k.R.o ^ F.o.g S.+._.b =XaXaXaXaX2X6XaXaXpXtXtXaXaXaXtXtXaXaXaXaXtXtX",
"tXtXtXdXdXtXtXtXsXdXaXtXtXaXdXdXtXV.h.H G n v Q n.I.H p V.O i.I.o ^ x.o.g Z.+.w.R f.0XtXtXsXuXwXeXtXaXdXdXtXtXtXdXdXaXtXtXaXdXdX",
"tXtXtXdXdXtXtXtXdXdXaXtXtXaXdXdXtXm.b.n v K I.I.r g.H p b.o i.K.X ^ x.o.g Z.+.A L S.,XtX6XuXwX%XwXtXaXdXdXtXtXtXdXdXaXtXtXaXdXdX",
"aXaXaXtXtXaXaXaXyXtXtXaXaXaXtXtXtXb.W E H ( Q.C.O a.H p j.. ^ b.. ^ x.X.f ,...A C F.<XwX0.6X0.2XyXaXaXtXtXaXaXaXtXtXaXaXaXtXtXtX",
"dXdXaXtXtXaXdXdXtXtXtXdXdXaXtXtXaXp.E R.!.n a.C.c b.( K C.j b.^.k.I.x._.Z.w.2.@.#.F.7X2X7.{.} ].sXsXaXtXtXaXdXaXtXtXtXdXdXtXtXtX",
"dXdXaXtXtXaXdXdXtXtXtXdXdXpXtXtXaXm.T A M.H G a.N.M.C.C.C.L.C.N.C.M./ 3.w.4.D.4.D.#.<XeX2X7.{ 6.$X%XaXtXtXaXdXaXtXtXpXdXdXtXtXtX",
"tXtXtXsXsXtXtXtXaXsXaXtXtXaXsXsXtXb.C | ^ p & $ f M h d $ O M B B B B y s = M - & V.wX{.2X6.*.6.{.2XaXsXsXtXtXtXsXsXaXtXtXaXsXsX",
"tXtXtXdXdXtXtXtXdXdXaXtXtXaXdXdXtXv.K c K e v % M 9.@.e X X <.r.r.r.9.f $ 6 9.i S -X6X7.].8.8.6.].2XaXdXdXtXtXtXdXdXaXtXtXaXdXdX",
"tXtXtXaXaXtXtXtXaXaXaXtXtXaXaXaXaX!.x j r s l.Q T #.R o . X D.#X#X#X'.-   - @.i k.W.].&.&.8.u.&.} %XaXaXaXtXtXtXaXaXaXtXtXaXaXaX",
"dXdXaXtXtXaXdXdXtXtXtXdXdXpXtXtXaXtXK & & u v K.;XXXR.R.I.( z.B.B.B.c./ R / G.'.'.P.].=.u.+X+Xt.&.].pXtXtXaXdXaXtXtXtXdXdXtXtXtX",
"dXdXaXtXtXaXdXdXtXtXtXdXdXpXtXtXaXdXm.Y v v r I U.C.b.Q.I./.).U.U..X~._.`.OX[.4.;.W.{.8.e.q.-.y.=.0.aXtXtXsXdXaXtXtXtXdXdXtXtXtX",
"aXaXaXaXyXaXaXaXtXyXaXaXaXaXyXaXaXdXW.H x J K s b.s.x g.$ b.Q.d s R.R.1.l <.A C A :X5XO.$.=.*.%.5.2XaXyXaXaXaXaXaXaXaXaXaXaXaXaX",
"tXtXtXdXdXtXtXtXsXdXaXtXtXaXdXdXtXtXE.x d G b.s Q W k g.. g.^.r $ U.T.1.- ;.C ..R ,X;X5.t.{ { t.-.qXaXdXdXtXtXtXdXdXaXtXtXaXdXdX",
"tXtXtXdXdXtXtXtXdXdXaXtXtXaXdXdXtXqXQ K F S ^ d K K k g.X g.).t e U.N.,.f A M ..z.tX,X| ] [ [ q.3.qXaXdXdXtXtXtXdXdXaXtXtXaXdXdX",
"aXaXaXtXtXaXaXaXtXtXtXaXaXaXtXtXaXaXY.K Y I l.H v a.! g.. g.Q.e e U.z...f ;.,.R ,XdXiXF.q q q 9 |.dXaXtXtXaXaXaXtXtXaXaXaXtXtXtX",
"dXdXaXtXtXaXdXdXtXtXtXdXdXaXtXtXaXdXaX=Xd t v e u K ( a.G b.Q.a e I.:.o.m e.A W.dXdXaX<XM * = k.tXdXaXtXtXaXdXaXtXtXpXdXdXtXtXtX",
"dXdXaXtXtXaXdXdXtXtXtXdXdXyXtXtXaXdXtXm.K b.Q.( p @ r c I a.b.g.E C.R e.3.X.v 9XdXdXaX0XB 8 6 :XdXdXaXtXtXaXdXaXtXtXtXdXdXtXtXtX",
"tXtXtXsXsXtXtXtXaXsXaXtXtXaXdXsXtXtXL.W s.R.;X.XK r - u p s k n I n ....L D.o.z.tXaX7XT.M 8 f :XtXtXaXsXsXtXtXtXsXdXaXtXtXaXdXsX",
"tXtXtXdXdXtXtXtXdXdXaXtXtXaXdXdXyXrXs.G k.T.I.U.b x 7 N A m x s x f 7 f T x.+.m J.(./ R R i ~ Y.0XtXaXdXdXtXtXtXdXdXaXtXtXaXdXdX",
"tXtXtXaXaXpXtXtXaXsXaXtXtXaXaXdX:X:Xv.x E Q a.K A b 9 l q X.2.c.T. .V m f g l Y B.>.l n n u p.d.<XtXaXaXaXtXtXtXaXaXaXtXtXaXaXaX",
"dXdXaXtXtXaXdXdXtXtXtXdXdXaXtX:XE ! x % s a t $ i - N M.a.K C Z m R `.,.# i s E B.}.s $ & p E k.0XdXaXtXtXaXdXsXtXtXtXdXdXtXtXtX",
"dXdXaXtXtXaXdXdXtXtXtXdXdXaXtXW.a.p.K j i t @ X % - A R. X/.R.>.Z `.OX2.# f s x g.K.r $ # p G V.sXdXaXtXtXaXdXsXtXtXtXdXdXtXtXtX",
"aXaXaXtXtXaXaXaXyXtXpXaXaXaXaX,XK K b.! g % + + 7 M :./.XXG.S.@Xk.D.OX2.d g $ s x Y H t # # v :XsXaXaXtXtXaXaXaXtXtXaXaXaXpXtXpX",
"tXtXtXdXdXtXtXtXdXdXaXtXtXaXdXqXa.K.T.Q v @ < 5 R m Q c.1.c.XX-XB.}.1...V.:Xk.p.H v U p.3 3 Y.dXtXtXaXdXdXtXtXtXdXdXaXtXtXaXdXdX",
"tXtXtXdXdXtXtXtXdXdXaXtXtXaXdX7X^ a.^ b.c + 1 < a x x Q C././.^.z.}.>.g :XaX9XW.Y.(.9XY.3 4 =XdXtXtXaXdXdXtXtXtXdXdXaXtXtXaXdXdX",
"aXaXaXtXtXaXaXaXtXtXyXaXaXaXtXd.k.*XH v = 1 ) 1 4 f g n s.l./ / R #.m C 9XaXaXaXaXaXaX7X~ f.qXyXaXaXaXtXtXaXaXaXtXtXaXaXaXyXtXtX",
"dXdXaXtXtXaXdXdXtXtXtXdXdXaXqXp.b.*XK a.G < ) > * 3 5 0 w w N  . ...0 N >XdXdXaXtXtXaXdXsXtXtXtXdXdXaXtXtXaXdXsXtXtXtXdXdXtXtXtX",
"dXdXaXtXtXaXdXdXtXtXtXdXdXaXrXk.G E v K E 2 _ h Y i 6 6 4 * 7 q ] N 4 z =XdXdXaXtXtXaXdXdXtXtXtXdXdXaXtXtXaXdXaXtXtXtXdXdXtXtXtX",
"tXtXtXsXsXtXtXtXaXsXaXtXtXaXdXY.# p E r @ ) 2 c Y M.C.b.H $ = 7 7 - Q '.Z.0XtXtXaXaXtXtXtXaXsXaXtXtXaXsXaXtXtXtXaXsXaXtXtXaXsXsX",
"tXtXtXdXdXtXtXtXdXdXaXtXtXaXdX:Xd $ p r > ` 5 H Q C.N.E x j L L K x J S.:.,XtXtXdXdXtXtXtXdXdXaXtXtXaXdXdXtXtXtXdXdXaXtXtXaXdXdX",
"tXtXtXdXdXtXtXtXaXsXaXtXtXaXsXdX-XE : : ) ` M J s.C.M.U a L Q ( ( L s E T (.aXtXsXsXyXtXtXaXsXaXtXtXaXsXaXtXtXtXaXsXaXtXtXaXdXsX",
"dXdXaXtXtXaXdXsXtXtXtXdXdXaXtXtXsXf._ < _ ` < % v G I s % g x v v j $ & G 9XdXaXtXtXaXdXdXtXtXtXdXdXaXtXtXaXdXsXtXtXtXdXdXtXtXtX",
"dXdXaXtXtXaXdXdXtXtXtXdXdXaXtXtXsX@.' > _ _ h % u s a i + < 1 + @ - s G v.,XdXaXtXtXaXdXdXtXtXtXdXdXaXtXtXaXdXsXtXtXtXdXdXtXtXtX",
"aXaXaXtXtXaXaXaXtXtXtXaXaXaXtXtXaXA.' P f.M x J !.-XG @ : ; 1 , = - v Q.R.f.tXaXtXtXaXaXaXtXtXtXaXaXaXtXtXaXaXaXtXtXaXaXaXyXtXtX",
"tXtXtXdXdXtXtXtXsXdXaXtXtXaXdXdXtX8XA.>XdXW.n x b.V.x a ~ +.A.(.v G v H x W tXaXdXdXtXtXtXsXdXaXtXtXaXdXdXtXtXtXdXdXaXtXtXaXdXdX",
"tXtXtXdXdXtXtXtXdXdXaXtXtXaXdXdXtXtXtXdX,XK ( J r & d W.tXiXdXtX! s v p.x S L.9XdXdXtXtXtXdXdXaXtXtXaXdXdXtXtXtXdXdXaXtXtXaXdXdX",
"aXaXaXaXaXaXaXaXaXpXaXaXaXaXpXiXaXaXaXaX=Xx H I t c :XtXaXaXaXaX7XW Y ! K Q ( ( tXdXaXaXaXaXaXaXaXaXaXiXiXaXaXaXpXaXaXaXaXaXaXaX",
"dXdXaXtXtXaXdXdXtXtXtXdXdXaXtXtXsXdXaXtXqX! i I c H qXdXdXaXtXtXdXW.r @ r & x f.tXdXdXdXdXtXtXtXdXdXpXtXtXsXdXsXtXtXtXdXdXtXtXtX",
"dXdXaXtXtXaXdXdXtXtXtXdXdXaXtXtXdXdXaXtXtX&XD K K v.qXdXdXaXtXtXdX7Xv s L L.:XtXdXdXsXdXdXtXtXtXdXdXaXtXtXaXdXaXtXtXtXdXdXtXtXtX",
"tXtXtXaXaXyXtXtXaXaXaXtXtXaXsXaXaXtXtXaXaXtX0X9X0XtXaXtXtXaXaXaXyXtX0X9XqXdXdXaXtXtXaXaXaXtXtXtXtXtXaXsXaXtXtXtXtXtXtXtXtXtXtXtX",
"tXtXtXdXdXtXtXtXdXdXaXtXtXaXdXdXtXtXtXdXdXaXtXtXsXdXdXtXtXtXdXdXtXtXtXtXtXdXdXaXtXtXaXdXaXtXtXtXtXtXaXdXdXtXtXtXtXtXtXtXtXtXtXtX",
"tXtXtXdXdXtXtXtXaXdXaXtXtXaXdXdXtXtXtXdXdXaXtXtXaXdXaXtXtXtXdXdXiXaXtXtXtXsXdXaXtXtXaXdXaXtXtXtXaXaXaXsXaXyXtXtXtXtXtXaXaXtXtXtX",
"dXdXaXtXtXaXdXsXtXtXtXdXdXaXtXtXaXdXaXtXtXaXdXdXtXtXtXsXdXaXtXtXaXdXdXdXaXtXtXtXdXdXtXtXtXaXdXaXtXtXaXdXdXtXtXtXdXdXaXtXtXaXdXdX",
"dXdXaXtXtXaXdXdXtXtXtXdXdXaXtXtXsXdXaXtXtXaXdXdXtXtXtXdXdXaXtXtXaXdXdXdXdXtXtXtXdXdXyXtXtXdXdXaXtXtXaXdXdXtXtXtXdXdXaXtXtXaXdXdX",
"aXaXaXtXtXaXaXaXtXtXtXaXaXaXtXtXaXaXaXtXtXaXaXaXyXtXyXaXaXaXtXyXaXdXsXaXaXtXtXaXaXaXaXtXtXaXaXaXtXtXaXaXaXpXtXtXaXaXaXaXaXaXaXaX",
"tXtXtXdXdXtXtXtXsXdXaXtXtXaXdXdXtXtXtXdXdXaXtXtXaXdXsXtXtXtXdXdXaXaXtXtXtXdXdXaXtXtXaXdXdXtXtXtXdXdXaXtXtXaXdXsXtXtXtXdXdXtXtXtX",
"tXtXtXdXdXtXtXtXdXdXaXtXtXaXdXdXtXtXtXdXdXaXtXtXaXdXdXtXtXtXdXdXaXaXtXtXtXdXdXaXtXtXaXdXdXtXtXtXdXdXaXtXtXaXdXdXtXtXtXdXdXtXtXtX",
"yXtXaXaXaXaXaXaXaXaXaXaXaXaXaXaXaXaXaXaXaXaXaXaXaXaXaXaXaXaXaXaXaXaXaXaXaXaXaXaXaXaXaXaXaXaXaXaXaXaXaXaXaXaXaXaXaXaXaXaXaXaXaXaX"
};
