/* XPM */
static char *_4b27aceea9c4a859c5617386af56849GiFzVclXgykJAiH2[] = {
/* columns rows colors chars-per-pixel */
"64 64 223 2 ",
"   c #01011E",
".  c #0C0B28",
"X  c #12112D",
"o  c #1C152E",
"O  c #1D1B34",
"+  c #25172D",
"@  c #341329",
"#  c #241D32",
"$  c #281E35",
"%  c #252237",
"&  c #2B2536",
"*  c #2B253A",
"=  c #2D2A3C",
"-  c #372B38",
";  c #332D3C",
":  c #39323E",
">  c #4B151E",
",  c #72061E",
"<  c #560B24",
"1  c #47152C",
"2  c #4E162D",
"3  c #650A22",
"4  c #740A21",
"5  c #7C0920",
"6  c #691425",
"7  c #7B1E2E",
"8  c #4A2A28",
"9  c #442738",
"0  c #503032",
"q  c #533937",
"w  c #6B2E31",
"e  c #58423C",
"r  c #6A483B",
"t  c #2C2C41",
"y  c #332E41",
"u  c #333344",
"i  c #3A3746",
"p  c #3B3C4C",
"a  c #3F3F50",
"s  c #552C40",
"d  c #433A43",
"f  c #443E4A",
"g  c #553A46",
"h  c #723345",
"j  c #3D404F",
"k  c #3F4152",
"l  c #49434D",
"z  c #56474A",
"x  c #5D504D",
"c  c #424453",
"v  c #484655",
"b  c #4B4956",
"n  c #4A4C5B",
"m  c #554E5B",
"M  c #4E505D",
"N  c #5A5357",
"B  c #53535E",
"V  c #654B4D",
"C  c #76594B",
"Z  c #664E50",
"A  c #6D5751",
"S  c #665855",
"D  c #73655C",
"F  c #786A5C",
"G  c #4D4F60",
"H  c #4E5361",
"J  c #535562",
"K  c #5A5561",
"L  c #555A66",
"P  c #5B5B64",
"I  c #565C6A",
"U  c #5C5E6A",
"Y  c #645B64",
"T  c #5D616C",
"R  c #6A6567",
"E  c #61636D",
"W  c #786B66",
"Q  c #74736E",
"!  c #646672",
"~  c #646A74",
"^  c #686D75",
"/  c #6A6D7A",
"(  c #6C737B",
")  c #72747C",
"_  c #787679",
"`  c #810B22",
"'  c #8A0E24",
"]  c #8C1124",
"[  c #8B1B28",
"{  c #941426",
"}  c #A91D28",
"|  c #932B35",
" . c #A9232C",
".. c #B8262C",
"X. c #8F4D30",
"o. c #9B663C",
"O. c #EC6E2F",
"+. c #933741",
"@. c #8C4C58",
"#. c #8D6D53",
"$. c #8F5D69",
"%. c #867767",
"&. c #91796A",
"*. c #877B72",
"=. c #A17E6B",
"-. c #EC7540",
";. c #EE8B34",
":. c #F49A35",
">. c #B0894C",
",. c #978368",
"<. c #928979",
"1. c #97897A",
"2. c #A28C6C",
"3. c #AC8873",
"4. c #AC9676",
"5. c #B19975",
"6. c #B9A17A",
"7. c #C69848",
"8. c #F09151",
"9. c #D4AB57",
"0. c #F6B754",
"q. c #CD9577",
"w. c #EF966B",
"e. c #C8AB7D",
"r. c #FBC557",
"t. c #F6CF6E",
"y. c #757B83",
"u. c #7A7C84",
"i. c #797E88",
"p. c #8F7B86",
"a. c #7B8489",
"s. c #7D858C",
"d. c #81848C",
"f. c #848C8D",
"g. c #9A8A88",
"h. c #9D9486",
"j. c #878893",
"k. c #848C92",
"l. c #8B8C94",
"z. c #908F94",
"x. c #879093",
"c. c #8B9296",
"v. c #8D949A",
"b. c #8E9A9D",
"n. c #989997",
"m. c #92949C",
"M. c #A69888",
"N. c #9CA199",
"B. c #B4A48C",
"V. c #A9A399",
"C. c #B5AA97",
"Z. c #BCB09C",
"A. c #9797A1",
"S. c #919FA1",
"D. c #9A9BA2",
"F. c #A79BA4",
"G. c #95A2A4",
"H. c #9BA4A5",
"J. c #9DA7A8",
"K. c #9DABAA",
"L. c #A9A8A6",
"P. c #A2A4AB",
"I. c #A4ADAD",
"U. c #B1AFAD",
"Y. c #AAABB3",
"T. c #A6B5B3",
"R. c #AAB5B4",
"E. c #ABB9B6",
"W. c #ACBDBB",
"Q. c #B5B5B9",
"!. c #B3BCBC",
"~. c #CDB48A",
"^. c #D1B381",
"/. c #D3B88B",
"(. c #C3AF90",
"). c #C7B295",
"_. c #D7BB94",
"`. c #EFB092",
"'. c #C7BBB2",
"]. c #AFC0BE",
"[. c #B2C1BF",
"{. c #DBC39B",
"}. c #EBD18E",
"|. c #E6C996",
" X c #D1C1A8",
".X c #E7C7A8",
"XX c #F1C2AE",
"oX c #F3C8B5",
"OX c #BCBCC3",
"+X c #C2BDC2",
"@X c #B5C5C1",
"#X c #BAC5C3",
"$X c #BCC8C4",
"%X c #C5C6CA",
"&X c #C7D2CD",
"*X c #CDCDD1",
"=X c #D1CFD0",
"-X c #D5D5D9",
";X c #D6D8DA",
":X c #F5D6C8",
">X c #F4DDD3",
",X c #DDE2DB",
"<X c #EDE3C4",
"1X c #E3E2D9",
"2X c #F5E2DA",
"3X c #DFE0E3",
"4X c #E3E3E5",
"5X c #E6E7E9",
"6X c #ECECED",
"7X c #F2EAE6",
"8X c #EFF0EF",
"9X c #F3F1EE",
"0X c #F8F0ED",
"qX c #EFEFF0",
"wX c #EFF0F0",
"eX c #F3F4F4",
"rX c #F7F8F7",
"tX c #F7F7F8",
"yX c #F8F7F8",
"uX c #F7F8F8",
"iX c #FAFBFB",
"pX c #FCFCFC",
"aX c #FDFDFD",
/* pixels */
"eXwXeXaXaXrX8XeXiXaXaXeXeXeXaXaXuXeXeXiXaXaXeXeXeXiXaXiXeXeXeXaXaXeXeXeXeX9X8XiXaXiXeX8XeXaXaXeXeXeXiXaXiXeX8XeXaXaXeXeXeXiXaXaX",
"eXeXeXaXaXrXeXeXiXaXaXeXeXeXaXaXuXeXeXiXaXaXeXeXeXaXaXiXeXeXeXaXaXeXeXeXeXeXeXiXaXiXeX8XeXaXaXeX6XeXiXaXiXeX8XeXaXaXeXwXeXiXaXaX",
"eXeXeXiXiXeXeXeXiXiXiXeXeXeXiXiXeXeXeXeXiXiXeXeXeXiXiXeXeXeXeXiXiXiXeXeXeXeXeXiXiXiXeXeXeXiXiXeXeXeXiXiXiXeXeXeXiXiXeXeXeXiXiXiX",
"aXaXiXeXeXeXaXaXeXeXeXiXaXiXeXeXeXaXaXeXeXeXiXaXiXeXeXeXiXaXeXeXeXiXaXiXiXaXaXeXeXeXaXaXuXeXeXiXaXaXeXeXeXaXaXiXeXeXiXaXaXeXeXeX",
"aXaXiXeX9XeXaXaXeXeXeXaXaXiXeXeXeXaXaXeXeXeXiXaXiXeXeXeXaXaXeXeXeXiXaXiXiXaXaXeX6XeXaXaXeXeXeXiXaXaXeXeXeXaXaXuXeXeXiXaXaXeXeXeX",
"iXtXeXeXeXeXiXuXeXeXeXiXiXeXeXeXeXeXrXeXeXeXeXrXeXeXeXeXeXeXeXeXeXiXaXaXiXrXrXeXeXeXeXeXeXeXeXeXiXrXeXeXeXiXuXeXeXeXiXiXiXeXeXeX",
"eXeXeXaXaXiXeXeXiXaXaXeXeXeXaXaXeXeXeXuXaXiXeXeXeXiXaXiXeXeXrXaXiXeXiXiXeXeXeXiXaXiXeXeXeXaXaXeXeXeXiXaXiXeXeXeXaXaXrXuXiXeXeXeX",
"eXeXeXaXaXyXeXeXiXaXiXeXeXeXiXiXtXeXeXtXaXiXeXeXeXiXaXiXeXeXeX%XP.D.D.v.d.D.;XiXaXiXeXeXeXiXaXeXeXeXiXaXiXeXeXeXaXaXiXiXiXeXeXeX",
"iXiXuXeXeXeXiXiXeXeXeXiXiXtXeXeXeXiXiXeXeXeXeXiXrXeXeXiX6X4Xm.D.1X$XG.E v L U Y.iXaXiXiXeXeXeXeXiXiXeXeXeXiXiXeXeXeXeXeXeXiXiXiX",
"aXaXiXeXeXeXaXaXeXeXeXiXaXiXeXeXeXaXaXeXeXeXiXaXiXeXeXOXd.y.l.,X&XS.B p T b.I.m.Q.6XaXaXeXwXwXiXaXaXeXeXeXaXaXrXeXeXeXeXeXaXaXaX",
"aXiXiXeXeXeXaXaXeXeXeXiXiXiXeXeXeXiXiXeXeXeXiXiXiX6X%XP.I.c.E.@XJ.J p d.E.$X%X#XE.m.%XaXrXeXeXiXaXiXeXeXeXrXiXeXeXiXeXeXeXiXaXaX",
"eXeXeXiXiXeXeXeXiXiXiXeXeXeXiXiXeXeXeXeXiXiXeXeX5XQ.Q.$Xv.u.m.k.! u y.].[.1X9X&XW.R.) OXiXiXiXeXeXeXeXqXeXiXaXeXeXeXiXiXiXeXeXeX",
"eXeXeXaXaXtXeXeXiXaXiXeXeXeXiXiXeXeXeXeXaXiXeXqXQ. X|.<.h.1X&XE.c.J / G.W.;X;X@XW.[.#XD.4XiXiXeXeXiXeXeXeXaXaXtXeXeXiXaXaXeXeXeX",
"eXeXeXiXiXeXeXeXuXiXiXeXeXeXiXiXeXeXeXeXiXiXeX*XC./.B.{.}.<X!.H.[.@XP.u.y.T.@XW.W.W.@XS.l.eXeXeXiXiXeXeXeXiXiXeXeXeXiXiXiXeXeXeX",
"aXaXiXeXeXeXaXaXeXeXeXiXiXiXeXeXeXiXiXeXeXeXiXV.6.(.|.2.|.<Xc.p P.T.I.#XI.c.s.E.].].T.a.s.4XaXeXeXeXiXaXiXeXeXeXaXaXeXeXeXiXaXaX",
"aXaXiXeXeXeXaXaXeXeXeXiXaXiXeX8X7XiXiXeXwXeXwXu.B.{.~.: ^.<Xx.X m.L.u H.R.E.d.( T.I.J.E ( P.aXeXeXeXiXaXiXeXeXeXaXaXeXeXeXiXaXaX",
"uXeXeXeXeXeXiXeXeXeXeXeXeXeXeX9X:XeXeXeXeXiXY.M.|.W C.; e.Z.k.X A.P.X m.! ! !.d.! k.( P ( c.qXeXeXeXeXtXeXeXeXeXiXiXeXeXeXuXiXuX",
"eXeXeXaXaXeXeXeXiXaXiXeXeXeXiX2XeXeXeXuXaX;XV.4.^.R B.; e.h.s.X m.v.X l.n k K.v.) b B P ) k.-XiXaXiXeXeXeXaXaXtXeXeXiXaXaXeXeXeX",
"eXeXeXaXaXrXeXeXiXaXiXeXeXeXyX:XoX7X:X7XaXOXC.i 2.R B.; e.h.s.X c.c.X s.n c b.u x.I.T B ) d.;XiXaXiXeXeXeXaXaXuXeXeXiXaXaXeXeXeX",
"iXiXuXeXeXeXiXiXeXeXeXuXiXuXtX>X8.:Xw.XXiX!.C.i 2.A 5.= e.h.s.. a.x.. y.n k v.O s.E.! J ( ~ ;XiXeXeXuXiXuXeXeXeXiXiXeXeXeXiXiXiX",
"aXaXiXeXeXeXaXaXeXeXeXiXaX0X7X`.O.w.`.XXeXQ.Z.N 5.%.~.1.|.1.H.y.I.b.u k.! U G.c k.d.Y !.s.~ R.iXeXeXiXaXiXeXeXeXaXaXeXeXeXiXiXiX",
"aXaXiXeXeXeXaXiXeXeXeXiXaX>X`.w.;.O.:X2X7XQ.M.(.~.(.~./.^.*.b.J.H.H.P.H.J.J.G.G.k.U ^ f.F ! Y.iXeXeXiXaXiXeXeXeXaXaXeXeXeXeXeXeX",
"eXeXeXiXiXeXeXeXtXiXiXeXeX7XoXw.:.8.XX`.2X4XU = d V = c = V Z Z Z Z & % c f Z f y = H R #.P I.aXiXiXeXeXeXiXiXrXeXeXeXeXeXiXiXiX",
"eXwXeXaXaXrXeXeXiXaXiXeXeX2Xw.8.0.0.w.8.`.yXm.u V 3.o t # q.q.q.q.q.+ . t C q.C : k p U i T P.aXaXaXeXeXeXaXaXuXeXeXeXeXeXaXaXaX",
"eXeXeXiXiXeXeXeXrXiXiXeXeX>X-.;.t.t.:.:.8.4XA.L z *..   $ _..X.X.X).#   . S M.W u.l.u u c U *XiXiXiXeXeXeXiXiXeXeXeXeXeXeXiXiXiX",
"aXaXiXeXeXeXaXaXeXeXeXiXaXXX;.r.}.}.}.r.w.,XL.{.).h.R Y R z.n.n.n.z.! ) H.P.Q.&XR.E p & p %XaXeXeXeXiXaXiXeXeXeXaXiXeXeXiXeXeXeX",
"aXaXiXeXeXeXaXaXeXeXeXiXaXoX;.9.>.7.>.>.`.8X'.5.^.|.|.|._.U.#XT.I.[.@XT.E.S.b.E.) u b v U -XaXeXeXeXiXaXiXeXeXeXaXaXeXeXeXeXeXeX",
"uXeXeXeXeXeXuXeXeXeXeXeXtX9Xq.7.:.;.9.>.'.rXL.S D ,.%.F ^.V.W.n u J.H.u y.I ! H.c J b M s.6XrXeXeXeXeXeXeXeXeXeXeXeXeXeXeXeXeXeX",
"eXeXeXaXaXrXeXeXuXaXiXeXeXeXB.t.8.O.:.7.Z.uX=XW F %.D x ^.n.E.p O I.S.X ( I L u.c y.p p ~ ;XeXiXaXaXeXeXeXaXaXrXeXeXiXaXaXeXeXeX",
"eXeXeXiXaXeXeXeXiXaXiXeXeXeX'.#.o.X.X.C =XeX6Xh.,.Z S S ^.f.E.p O E.S.X ( I H ^ v ( I ! U A.eXiXaXiXeXeXeXaXaXeXeXeXiXaXaXeXeXeX",
"iXiXuXeXeXeXiXiXeXeXeXuXiXuX5XW q : e L.aXiXeX%X4.%.%.i e.f.T.p O J.S.X / y.( U k U c J d.4XiXeXeXeXyXiXuXeXeXeXiXiXeXeXeXiXiXiX",
"aXaXiXeXeXeXaXaXeXeXeXiXaXiXeX;Xz 8 r -XaXiXeX4XY 2.e.d e.<.K.p O H.H.G y.a.P f B ! c U 4XaXaXeXeXeXiXaXiXeXeXeXaXaXeX8XeXiXaXaX",
"aXaXiXeXeXeXaXiXeXeXeXiXiXiXeX6XS w r Y.6XaX8Xl.W 1.6.6.|.%.b.^ T x.a.^ M p t J I.$Xx.E m.qXaXeXeXeXiXaXiXeXeXeXaXaXeXeXeXiXaXaX",
"eXeXeXiXiXeXeXeXuXiXiXeXeXeXiX%X) d x _ _ *XP.x ,.h.P S 4.2.B ! L v p u i u p ( &X#XH.a.J m.eXiXiXiXeXeXeXiXiXeXeXeXiXiXiXeXeXeX",
"eXeXeXaXaXyXeXeXiXaXiXeXeXeXtXm.v.c B Q l _ l.N z l z f & x f p p p N D #.d N Y G.n.A.E p m.4X6XaXaXeXeXeXaXaXtXeXeXiXaXaXeXeXeX",
"eXeXeXiXiXeXeXeXiXiXiXeXeXeXeXs./ u u = p h.n.L : = = - %.A #.L.n.h.,.C e & m N b U ) b # E ) j.6XiXeXeXeXiXiXeXeXeXiXiXiXeXeXeX",
"aXaXiXeXeXeXaXaXeXeXeXiXaXiXeXP.I u = % = k.s.c i i + z _.B.W P R R E y.M.d ; % o % & ; u M x.( %XeXiXaXiXeXeXeXaXaXeXeXeXiXaXaX",
"aXaXiXeXeXeXaXaXeXeXeXiXaXiXeX*XH * - = b E b u # + 1 A {.|.~.S *.N.E.].E.D i $ < @ ; u E v.T ! ;XeXiXaXiXeXeXeXaXaXeXeXeXiXaXaX",
"iXuXeXeXeXeXiXrXeXeXeXeXuXeXeXeXQ.- 8 K ~ B n ( 9 3 4 g )._.C.z.!.L.V.U.N.R S ; 4 3 & E U J.k.y.eXeXeXtXeXeXeXeXyXeXeXeXeXtXuXuX",
"eXeXeXaXaXeXeXeXiXaXiXeXeXeXiXaX3Xg 8 p.-XP.j./ 7 ] 5 2 %.2. XN.#X%XL.1.%.l T h 5 5 1 c v.u.( ! 5XaXeXeXeXaXaXeXeXeXiXaXaXeXeXeX",
"eXeXeXaXaXrXeXeXiXaXiXeXeXeXaXaXeXd.z U.aXaXeXQ.| ] ` 3 l <.1.R a.f.H.) L f ; 3 ` ` 4 9 c H E.y.P.aXeXeXeXaXaXeXeXeXiXaXiXeXeXeX",
"iXiXuXeXeXeXiXiXeXeXeXiXiXrXeXeXeXeX6XeXeXeXiX+X| ] ' 6 w r A &.W D C C q 0 9 < ` ` 4 g s.( $Xy.j.eXrXiXuXeXeXeXiXiXeXeXeXuXiXiX",
"aXaXiXeXeXeXaXaXeXeXeXiXaXiXeXeXeXaXaXeXeXeXaX+X| ] } 6 q q D #.r C 8 q 8 @ l 9 5 { 4 v J H B v P.eXiXaXiXeXeXeXaXaXeX8XeXiXaXaX",
"iXaXiXeXeXeXaXiXeXeXeXiXaXiXeXeXeXiXiXeXeXeXiXg. .{  .=.B.P i e z 9 % L y.a.( n < { ] 1 u J = u %XeXiXaXiXeXeXeXaXaXeXeXeXiXaXaX",
"eXeXeXiXiXeXeXeXeXiXiXeXeXeXiXiXeXeXeXeXiXiX6X$.} ] [ M.C.P f b B b y I y.G.i.U 2 { } 3 $ & t ~ 4XeXeXeXeXiXiXeXeXeXuXiXiXeXeXeX",
"eXeXeXaXaXrXeXeXiXaXaXeXeXeXiXaXeXeXeXrXaXaX-X+.} ] w Q ^ j B _ ) _ B = ! c.x.T s ] ..4 < 2 m.4XeXeXeXeXeXaXaXrXeXeXiXaXiXeXeXeX",
"eXeXeXiXiXeXeXeXuXiXiXeXeXeXiXiXeXeXeXeXiXiX-X| } 5 6 z v & B E E E M & n ^ U b 0 `  .] 6 [ F.iXeXeXiXeXeXiXiXeXeXeXeXiXiXeXeXeX",
"aXaXiXeXeXeXaXaXeXeXeXiXaXiXeXeXeXaXiXeXeXeX4X@.} h w > & l f & + < @ y i = & @ , , { 7 6  .F.aXaXiXeXeXiXeXeXeXaXaXeXeXeXiXaXaX",
"aXaXiXeXeXeXaXaXeXeXeXiXaXiXeXeXeXaXaXeXeXeXiX=X@.U.%Xm m ) v * y 2 @ v Q.l.* # Y p.p.+X$.| Q.iXaXaXeXeXeXeXeXeXaXaXeXeXeXiXaXaX",
"iXuXeXeXeXeXiXiXeXeXeXuXiXeXeXeXeXiXeXeXeXeXiXaX4X5XiXP.u.!.T a b n f y.&XE.J ~ 5XiXiXaX=X+XeXrXiXiXeXeXeXeXeXeXiXiXeXeXeXeXiXiX",
"eXeXeXaXaXrXeXeXiXaXaXeXeXeXaXaXeXeXeXuXaXiXiXiXiXeXeX-XE M c p P u.! L ~ L J ( -XeXeXeXrXaXaXeXeXeXiXaXiXiXaXrXeXeXiXaXiXeXeXeX",
"eXeXeXaXaXuXeXeXiXaXaXeXeXeXaXaXeXeXeXuXiXiXiXaXiXeXeXeX3X/ L L B u./ ( b.c.L n ;XeXeXeXeXaXiXeXeXeXiXaXiXeXiXeXeXeXiXaXiXeXeXeX",
"iXuXeXeXeXeXuXeXeXeXeXeXuXeXeXeXeXiXtXiXiXiXeXeXeXeXuXeXiXP.L L = j.v.( l.y.( j.eXiXiXuXeXeXeXeXiXrXeXeXeXiXiXiXtXiXeXeXeXtXiXiX",
"aXaXiXeXeXeXaXaXeXeXeXiXaXiXeXeXeXaXaXiXaXiXeXeXeXiXaXiXeXm.U J / 4Xj.i.!.c.T d.aXiXiXaXuXeXeXiXaXaXeXeXeXaXaXiXaXaXeXeXeXiXaXaX",
"aXaXiXeXeXeXaXaXeXeXeXiXaXiXeXeXeXaXaXaXaXiXeXeXeXiXiXuXeX4X*X*X6XaXj.p c p c Q.aXiXiXaXeXeXeXiXaXiXeXeXeXaXaXiXiXaXeXeXeXiXaXaX",
"eXeXeXiXiXrXeXeXrXiXiXeXeXeXiXiXeXeXeXeXeXeXiXiXiXeXeXeXiXiXiXeXeXeX%XA.P.P.P.4XeXeXuXeXeXiXiXeXeXeXiXiXiXeXeXeXiXeXuXiXiXeXeXeX",
"eXeXeXaXaXtXeXeXiXaXaXeXeXeXaXaXuXeXeXeXeXeXiXaXiXeXeXeXaXaXeXeXeXeXeXeXaXaXaXeXeXeXiXeXrXaXaXeXeXeXiXaXiXeX6XeXaXuXiXaXaXeX6XeX",
"eXeXeXiXiXeXeXeXiXiXiXeXeXeXiXiXrXeXeXeXeXeXiXiXiXeXeXeXiXiXeXeXeXeXeXeXiXiXiXeXeXeXiXiXiXiXiXeXeXeXiXiXiXeXeXeXaXiXrXiXiXeXeXeX",
"aXaXiXeXeXeXaXaXeXeXeXiXaXiXeXeXeXiXiXiXiXiXeXeXeXiXiXiXeXeXeXiXiXrXiXiXeXeXeXiXiXiXeXeXeXeXeXiXaXiXeXeXeXiXaXeXeXeXtXiXeXiXaXaX",
"aXaXiXeXwXeXaXaXeX6XeXiXaXiXeXeXeXaXaXaXaXaXeXeXeXiXaXtXeXeXeXaXaXrXaXaXeXeXeXiXaXiXeXeXeXeXeXiXaXaXeXeXeXaXaXrX8XwXiXaXiXiXaXaX",
"iXiXuXeXeXeXiXiXeXeXeXiXiXuXeXeXeXiXiXiXiXiXeXeXeXiXiXeXeXeXeXiXuXiXiXiXeXeXeXiXiXuXeXeXeXeXeXeXiXiXeXeXeXiXiXeXeXeXrXiXaXiXiXiX",
"eXeXeXaXaXeXeXeXiXaXiXeXeXeXaXaXuXeXeXeXeXeXiXaXiXeXeXeXaXaXeXeXeXiXiXiXiXaXiXeXeXeXeXeXeXiXaXeXeXeXiXaXiXeXeXeXaXaXeXeXeXeXeXeX",
"eXeXeXaXaXeXeXeXiXaXaXeXeXeXaXaXuXeXeXeXeXeXiXaXiXeXeXeXaXaXeXeXeXiXiXiXiXaXiXeXeXeXeXeXeXiXaXeXwXeXiXaXiXeXeXeXaXaXeXeXeXeXeXeX",
"eXeXeXeXeXeXeXeXeXeXeXeXyXeXeXeXeXeXeXrXeXeXeXeXeXeXeXeXeXeXeXeXeXiXiXiXrXeXeXeXeXeXeXeXeXiXaXiXeXeXeXeXeXeXeXeXeXeXeXeXiXeXeXeX"
};
