/* XPM */
static char *e512c91501fa4edb8422a06bb48eaca5h8PYDfQp0Klo1krF[] = {
/* columns rows colors chars-per-pixel */
"64 64 221 2 ",
"   c #00001D",
".  c #090627",
"X  c #15122E",
"o  c #161431",
"O  c #1B1934",
"+  c #380D28",
"@  c #2E112A",
"#  c #251D35",
"$  c #292236",
"%  c #25233A",
"&  c #2B253B",
"*  c #2D2A3E",
"=  c #372837",
"-  c #3B2A32",
";  c #342C3D",
":  c #5F041E",
">  c #69041F",
",  c #550B25",
"<  c #47162D",
"1  c #4F1029",
"2  c #690A23",
"3  c #7C0821",
"4  c #731129",
"5  c #472627",
"6  c #4F2B35",
"7  c #4A363B",
"8  c #6B322E",
"9  c #5E423B",
"0  c #65453A",
"q  c #784933",
"w  c #2D2C42",
"e  c #332E43",
"r  c #343346",
"t  c #3B3544",
"y  c #353549",
"u  c #3B3649",
"i  c #37384C",
"p  c #3D3B4D",
"a  c #3D3D51",
"s  c #443948",
"d  c #543A48",
"f  c #413E52",
"g  c #3E4153",
"h  c #49424B",
"j  c #564647",
"k  c #434353",
"l  c #454658",
"z  c #484758",
"x  c #4C4D5C",
"c  c #564652",
"v  c #514C5A",
"b  c #4F505E",
"n  c #53515D",
"m  c #58555B",
"M  c #65484A",
"N  c #72534C",
"B  c #6B5A52",
"V  c #695857",
"C  c #725C54",
"Z  c #756555",
"A  c #78655A",
"S  c #4F4F60",
"D  c #4E5160",
"F  c #545463",
"G  c #555965",
"H  c #5A5A65",
"J  c #565768",
"K  c #5B5C6A",
"L  c #5F5E72",
"P  c #785C67",
"I  c #5D606D",
"U  c #5E6472",
"Y  c #6D6467",
"T  c #61636D",
"R  c #736A68",
"E  c #7D7168",
"W  c #636572",
"Q  c #656A74",
"!  c #6A6B75",
"~  c #686C79",
"^  c #6B6D7A",
"/  c #726D76",
"(  c #6C717B",
")  c #797777",
"_  c #72757E",
"`  c #851123",
"'  c #971626",
"]  c #A61B26",
"[  c #8F2A35",
"{  c #9D6135",
"}  c #CE682C",
"|  c #F47827",
" . c #F37636",
".. c #A45F5B",
"X. c #826A54",
"o. c #8D6D51",
"O. c #8E7167",
"+. c #877769",
"@. c #867B74",
"#. c #F27441",
"$. c #BB8E3D",
"%. c #F38E31",
"&. c #EAA033",
"*. c #B49452",
"=. c #9A846A",
"-. c #938A7B",
";. c #988879",
":. c #A3896A",
">. c #A89070",
",. c #A39279",
"<. c #B59B76",
"1. c #B59A78",
"2. c #CC954D",
"3. c #F38A58",
"4. c #F4B24C",
"5. c #C78D73",
"6. c #DC9C7C",
"7. c #F4936B",
"8. c #F49D77",
"9. c #C8B06A",
"0. c #C9AB7D",
"q. c #F3A872",
"w. c #F6C359",
"e. c #F1CD6C",
"r. c #6D7480",
"t. c #737582",
"y. c #757A83",
"u. c #797C85",
"i. c #7D7D8A",
"p. c #827786",
"a. c #7C838A",
"s. c #7C848A",
"d. c #7F8991",
"f. c #878788",
"g. c #82858D",
"h. c #978D89",
"j. c #848590",
"k. c #838B92",
"l. c #8B8B94",
"z. c #8C8B97",
"x. c #938F95",
"c. c #869196",
"v. c #8C9295",
"b. c #869298",
"n. c #8C949A",
"m. c #8E999C",
"M. c #9A9694",
"N. c #93959B",
"B. c #939A9D",
"V. c #9D9B9A",
"C. c #A79985",
"Z. c #AB9B91",
"A. c #A3A08F",
"S. c #BAA587",
"D. c #A9A79B",
"F. c #B8AB97",
"G. c #BFB09C",
"H. c #9494A0",
"J. c #939EA1",
"K. c #9B9CA4",
"L. c #9BA2A5",
"P. c #98A4A7",
"I. c #9BA9AB",
"U. c #A9A6A6",
"Y. c #A3A3AB",
"T. c #A3ABAB",
"R. c #B6B2AC",
"E. c #A7A7B0",
"W. c #ABACB3",
"Q. c #A5B3B3",
"!. c #ABB3B3",
"~. c #ABB8B7",
"^. c #ACBCBB",
"/. c #B6B6BA",
"(. c #B1BCBB",
"). c #D7B98D",
"_. c #CBB390",
"`. c #EDB18D",
"'. c #F4B59A",
"]. c #E2BEA6",
"[. c #AFC0BF",
"{. c #B9C1BC",
"}. c #E5C798",
"|. c #FCEA8E",
" X c #ECCBAD",
".X c #BBBBC2",
"XX c #C6BEC4",
"oX c #B9C6C4",
"OX c #C1C3C5",
"+X c #C7C8CA",
"@X c #D0CDCD",
"#X c #C9D3CE",
"$X c #CECED2",
"%X c #D2D2D4",
"&X c #D5D8D9",
"*X c #DADBDE",
"=X c #E0CEC5",
"-X c #F4D6C9",
";X c #F4DED5",
":X c #DCE4DC",
">X c #F1EAD2",
",X c #F7E3DA",
"<X c #DDDEE1",
"1X c #DFE0E2",
"2X c #E2E3E4",
"3X c #EEEEE2",
"4X c #E6E7E9",
"5X c #ECECEE",
"6X c #F5EBE7",
"7X c #EFEFF0",
"8X c #EFF0F1",
"9X c #F4F4F4",
"0X c #F9F7F6",
"qX c #F7F8F7",
"wX c #F7F7F8",
"eX c #F7F8F8",
"rX c #F8F9F9",
"tX c #FBFBFB",
"yX c #FBFBFC",
"uX c #FBFCFC",
"iX c #FDFDFD",
/* pixels */
"9X9X9XiXiX9X9X9XrXiXrX9X9X9XiXiX9X9X9XuXiXrX9X9X9XiXiXiXiXiX9X9X9XiXiXiX9X9X9XuXiXrX9X9X9XiXiX9X9X9XrXiXrX9X9X9XiXiX9X9X9XuXiXiX",
"9X9X9XiXiX9X9X9XuXiXrX9X9X9XiXiX9X9X9XuXiXrX9X9X9XiXiXiXiXiX9X9X9XiXiXiX9X9X9XiXiXrX9X9X9XiXiX9X9X9XuXiXrX9X9X9XiXiX9X9X9XuXiXiX",
"9X9X9XrXrX9X9X9XrXrXrX9X9X9XrXrX9X9X9XrXrXrX9X9X9XrXrXrXrXrX9X9X9XuXrXrX9X9X9XrXrXrX9X9X9XrXiX9X9X9XrXrXrX9X9X9XrXrX9X9X9XrXuXrX",
"iXiXrX9X9XrXiXiX9X9X9XiXiXrX9X9XrXiXiX9X9X9XiXiXrX9XeX9X9X9XrXiXiX9X9X9XrXiXiX9X9X9XiXiXrX9X9XrXiXiX9X9X9XiXiXrX9X9XrXiXiX9X9X9X",
"iXiXrX9X9XrXiXiX9X9X9XiXiXrX9X9XrXiXiX9X9X9XiXiXeX9X9X9X9X9XrXiXiX9X9X9XrXiXiX9X9X9XiXiXrX9X9XrXiXiX9X9X9XiXiXrX9X9XrXiXiX9X9X9X",
"rXrX9X9X9XeXrXrX9X9X9XrXrXqX9X9XrXrXrX9X9X9XrXrX9X9X9X9X9X9X9XrXrXrX9X9XeXrXrX9X9X9XrXrX9X9X9XrXrXrX9X9X9XrXrXqX9X9XrXuXuX9X9X9X",
"9X9X9XiXiX9X9X9XuXiXrX9X9X9XiXiX9X9X9XyXiXrX9X9X9XiXiX9X9X9X9X5X8XrXrXrX9X9X9XrXiXrX9X9X9XiXiX9X9X9XuXiXrX9X9X9XiXiXeXeXrX9X9X9X",
"9X9X9XiXiX9X9X9XyXiXrX9X9X9XiXiX9X9X9XyXiXrX9X9X9XiXiX9X9X9X&X^ K L K K K.5X9XiXiXrX9X9X9XiXiX9X9X9XyXiXrX9X9X9XiXiXrXrXrX9X9X9X",
"rXrXeX9X9XeXrXrX9X9X9XrXrXwX9X9XrXrXrX9X9X9XrXrXeX9X9XrXrXOXl..XT.b.^ G ^ i.OX9XrX9XrXrXeX9X9XrXrXrX9X9XwXrXrXeX9X9X9X9X9XrXrXrX",
"iXiXrX9X9XrXiXiX9X9X9XiXiXrX9X9XrXiXiX9X9X9XiXiXeX9X5XY.u.u.%X:XQ._ k k _ y.F t.OX9XiXiXrX9X9XrXiXiX9X9X9XiXiXeX9X9X9X9X9XiXiXiX",
"iXiXrX9X9XrXiXuX9X9X9XiXiXrX9X9XrXiXuX9X9X9XuXiXrX*Xj.j.u.W.#X^.( p T I.^.oX{.L.t.Y.9XiXrX9X9XrXiXuX9X9X9XrXrX9X9XqX9X9X9XrXiXiX",
"9X9X9XrXrX9X9X9XrXyXrX9X9X9XrXrX9X9X9XrXrXrX9X9X<Xi.T.Q.( v.d.s.r K Q.[.&X3X#X[.~.z.j.2XqXrXrX9X9XeX9X9X9XrXiXrX9X9XrXyXrX9X9X9X",
"9X9X9XiXiX9X9X9XyXiXrX9X9X9XiXiX9X9X9XrXiXrX9X*Xu.F.F._ R.OXJ._ y ( Q.^.#X2X+X^.^.oXY.W.9XyXrX9X9XrX9X9X9XiXiXrX9X9XrXiXiX9X9X9X",
"9X9X9XrXrX9X9X9XrXrXrX9X9X9XrXrX9X9X9XrXrXrX9Xz.C._.F.}.>XoXJ.(.!.N.k.c.(.oX^.^.^.^.oXm.!.rX9X9XrXrX9X9X9XrXrXrX9X9XrXiXrX9X9X9X",
"iXiXrX9X9XrXiXiX9X9X9XiXiXeX9X9XrXiXrX9X9X9XW.A +.S.S.<.-XJ.r N.~./.{.l.( c.^.^.^.^.Q.k.t.5XiX9X9X9XrXiXrX9X9X9XiXiX9X9X9XrXiXiX",
"iXiXrX9X9XrXiXiX9X9X9XiXiXeX9X9X0XiXuX9X9X9Xy.; ;.}.V C  Xm.X g.!.e N.!.T.v.t.Q.T.Q.J.! t.*XiX9X9X9XyXiXrX9X9X9XiXiX9X9X9XiXiXiX",
"rXrXeX9X9XrXrXrX9X9X9XrXrXwXwX6X-XrXrX9XqX<XF C.>.h.V B F.c.o j.W.o j.Q K ^.n.Q a.c.! H ( W.rX9X9X9XrXrXrX9X9X9XrXrX9X9X9XrXrXrX",
"9X9X9XiXiX9X9X9XrXiXrX9X9X9XrX6X6X9X9XrXrXN.R <.:.f.Y B ,.k.o g.J.o g.F i I.v.y.x n F F u.k.2XrXiXiX9X9X9XiXiXrX9X9XrXiXiX9X9X9X",
"9X9X9XiXiX9X9X9XrXiXrX9X9XeX0X X,X7X,X0X8XV.@.j =.-.V B ,.k.o u.B.o y.F p m.r s.!.Q b v a.k.1XrXiXiX9X9X9XiXiXrX9X9XrXiXiX9X9X9X",
"rXrXeX9X9XeXrXrX9X9X9XrXrXqX9X-X8.6X8.;X5XV.@.j =.O.V B ,.k.X ( m.X ( F i b.# y.^.a.F T Q t.4XrX9X9XrXrXrXqX9X9XrXrX9X9X9XrXrXrX",
"iXiXrX9X9XrXiXiX9X9X9XiXiX9X9X'. .'.7. X4XV.C.A 1.,.S.1.;.P.a.T.P.f d.( K P.l d.v.x B.(.u.J 5X9X9X9XrXiXrX9X9X9XiXiX9X9X9XrXiXiX",
"iXiXrX9X9XrXiXuX9X9X9XiXuX-X'.3.| 3.-X6X4Xf.S.S.S.S._.0.+.b.P.J.J.L.P.J.L.B.B.g.T z B.R R y.5X9X9X9XrXiXrX9X9X9XiXiX9X9X9X9X9X9X",
"9X9X9XrXrX9X9X9XrXrXrX9X9X;X'.3.%.%.-X'.,XW.r * M 7 y u M N N N M $ O f s N d ; * % ( Z Z r.2XrXrXrX9X9X9XrXrXeX9X9X9X9X9XrXyXrX",
"9X9X9XiXiX9X9X9XrXiXrX9X9X;X`.3.4.4.`.3.,X<XK e ..M O e 5.6.6.6.5.# . w N 6.N ; k r b v G ^ 2XrXiXiX9X9X9XiXiXeX9X9X9X9X9XiXiXiX",
"9X9X9XrXrX9X9X9XrXrXrX9X9X-X#. .e.w.%.%.8./.x.t O.c   O _. X X X).$ . . V ;.R T l.b % f p l.8XrXrXrX9X9X9XrXrXeX9X9X9X9X9XrXrXrX",
"iXiXrX9X9XrXiXuX9X9X9XuXiX'.| 4.|.|.e.4.q.W._._.G.) Y R h.M.M.M.h.! v.T.T.!.#XQ.T r e & a *XiX9X9X9XrXiXrX9X9X9XiXiX9X9XrX9X9X9X",
"iXiXrX9X9XrXiXiX9X9X9XiXiX`.%.e.*.9.0.4.q.XX@.<.).}.).).U.oXQ.T.(.oXQ.Q.J.k.Q._ r k x K ( 5XiX9X9X9XrXiXrX9X9X9XiXiX9X9X9X9X9X9X",
"rXrX9X9X9XeXrXrX9X9X9XrXrX-X2.$.%.&.*.{ =X2XE B A <.h >.M.^.F w J.I.r ( U K L.z z Q p I j.rXrXwX9X9XrXrXeX9X9XqXrXrX9X9X9X9X9X9X",
"9X9X9XiXiX9X9X9XrXiXrX9X9X9X<.w.%.| 4.2.XX8X) X.V :.; :.M.^.k o P.P.o W U x u.p y.! i l g.5X9XrXiXiX9X9X9XiXiXeX9X9XrXiXiX9X9X9X",
"9X9X9XiXiX9X9X9XrXiXrX9X9X9XS.9.} } } o.@XiXK.A B Z t :.f.~.k O T.P.O W U l ( u Q G z I F %X9XrXiXiX9X9X9XiXiXrX9X9XrXiXiX9X9X9X",
"rXrXeX9X9XwXrXrX9X9X9XrXrXrX+X9 0 M 0 h.9XrX4X) :.=.c C f.Q.l o J.P.o U a.^ T a v.W T T i.5XrX9X9X9XrXrXrX9X9X9XrXrX9X9X9XrXrXrX",
"iXiXrX9X9XrXiXiX9X9X9XiXiXrX5Xz.= - j $X9X9XiX+XY 0.A C ;.I.l % J.I.F _ u.T p % z y w N.5XiXiX9X9X9XrXiXrX9X9X9XiXiX9X9X9XuXiXiX",
"iXiXrX9X9XrXiXuX9X9X9XiXiXeX9X*Xd 8 N *X9X9XiXrXW Z <.0.+.b.( _ v.u.Q b y % * K I.m.T ! <XiXiX9X9X9XrXiXrX9X9X9XiXiX9X9X9XrXiXiX",
"9X9X9XrXrX9X9X9XrXrXrX9X9XwXiX2Xc 8 9 V.&XiX9XY.+.S.R A O.v T F k p i * t % x I.&X~.g.( y.2X9XrXrXrX9X9X9XrXrXeX9X9XrXrXrX9X9X9X",
"9X9X9XiXiX9X9X9XrXiXrX9X9X9XwXW.u.s V @.Y /.Y.H X.;./ j 7 h p a p m Z o.0 p h m.Q.L.B.T F %X9XrXiXiX9X9X9XiXiXrX9X9XrXiXiX9X9X9X",
"9X9X9XrXrX9X9X9XrXrXrX9X9XwX5Xj.a.y x H h ;.V.! h s t j B X.U.V.,.O.0 j j s E m y._ _ n F @X+X5XuXrX9X9X9XrXrXrX9X9XrXyXrX9X9X9X",
"iXiXrX9X9XrXiXyX9X9X9XuXiXrX4Xj.( r w % r F.D.^ f t # A ).+.m Y V H ( c.+.; u % * y z ; & Q I z.5X9XrXiXrX9X9X9XiXiX9X9X9XrXiXiX",
"iXiXrX9X9XrXiXiX9X9X9XiXiXrX9XK.G y & % % k.c.x u s # +.}.}.A +.D.~.[.~.-.- ; o o & ; u k ! s.y.4X9XrXiXrX9X9X9XiXiX9X9X9XuXiXiX",
"rXrXeX9X9XeXrXrX9X9X9XrXrXqXrX%XJ $ $ * F T z p $ u f +.}._.f./.D.D.{.^.v.B 7 - + # & F z.a.x n.9X9XrXrXrX9X9X9XrXrX9X9X9XrXrXrX",
"9X9X9XiXiX9X9X9XrXiXrX9X9X9XiXiX!.5 5 / ^ S D ( u.+X/.R <.F.U.(.OXV.,.C.a.m R c > + r I g.!.s.E.iXiX9X9X9XiXiXrX9X9XrXiXiX9X9X9X",
"9X9X9XiXiX9X9X9XrXiXrX9X9X9XiXiX$X7 5 N.5X.XK.Y.*XiX4Xn @.].h.!.^.^.P.) z p l 1 3 , $ ( u.u.( K.iXiX9X9X9XiXiXrX9X9XrXiXiX9X9X9X",
"rXrXeX9X9XqXrXrX9X9X9XrXrXqX9X9X9Xz.Y @XrXrXrXrXrX9X7X/ c @.E ) ) k.g.H k s s , 3 3 , k g N.(.W .XrXeXrXrX9X9X9XrXrX9X9X9XrXrXrX",
"iXiXrX9X9XrXiXiX9X9X9XiXiXeX9X9XrXrXrX9X9X9XiXiXrX9X4XA q C O.Z A q { q 8 5 5 < 3 ` 1 _ G B.~.Q E.9XrXiXrX9X9X9XiXiX9X9X9XuXiXiX",
"iXiXrX9X9XrXiXiX9X9X9XiXiXrX9X9XrXiXyX9X9X9XiXiXrX9X*XV 6 j o.0 9 - 5 7 7 t F v 4 ' 6 ( l K H F .X9XrXiXrX9X9X9XiXiX9X9X9XrXiXiX",
"9X9X9XrXrX9X9X9XrXrXrX9X9X9XrXrX9X9X9XrXrXrX9X9X9XwXD.).@.t 7 j ; $ z u.B.n.( x < ' , % k K O l 2X9X9X9X9XrXrXwX9X9XrXrXrX9X9X9X",
"9X9X9XiXiX9X9X9XrXiXrX9X9X9XiXiX9X9X9XrXiXrX9X9XqX9Xf.A.! k T T T v f K g.J.u.x z ' ` @ y w % i.5X9X9X9X9XiXiXrX9X9XrXiXiX9X9X9X",
"9X9X9XuXuX9X9X9XrXuXrX9X9X9XuXrX9X9X9XrXrXrX9X9XrX%XY ! k F _ _ _ ! s x k.N.k.H H [ ] , 1 s L.4X9X9XrX9X9XrXuXeX9X9XrXuXrX9X9X9X",
"iXiXrX9X9XrXiXuX9X9X9XiXiXeX9X9XrXiXrX9X9X9XuXiXrX4X! e & p x F v s e e I F n y < ' ] 2 ` 8 &XrXiXuX9X9XrX9X9X9XiXiX9X9X9XrXiXiX",
"iXiXrX9X9XrXiXiX9X9X9XiXiXrX9X9XrXiXiX9X9X9XiXiXrX<XN.K p e # @ 2 2 + & u u u & s 4 ] 2 ` [ $XrXiXyX9X9XeX9X9X9XiXiX9X9X9XiXiXiX",
"rXrXrX9X9XrXrXrX9X9X9XrXrX9X9X9XrXrXrX9X9X9XrXrXrXK.x.(.K ; & 6 2 3 : @ p W.+X^ D d P p.[ ..<XrXrXwX9X9X9X9X9X9XrXrX9X9X9XrXrXrX",
"9X9X9XiXiX9X9X9XrXiXrX9X9X9XiXiX9X9X9XuXiXrX9X9XrXH.p G x n l Y.U.O.P z e s.J.H k k.4X4XZ.XXiX9X9X9XrXiXrXrXiXrX9X9XrXiXiX9X9X9X",
"9X9X9XiXiX9X9X9XuXiXrX9X9X9XiXiX9X9X9XuXiXrX9X4X!.L p ( K p J <XiX9X9X$XK & r k u.K Y.9X9XiXiX9X9X9XuXiXrX9XrXqX9X9XrXiXiX9X9X9X",
"rXrX9X9X9XwXrXrXqX9X9XrXeXwXwX9XqXrXrXwX9X9X9Xz.^ ^ K ^ ! H OXrX9XrXeXrX1XQ * b Q k x.rXeX9XwXwXrXeXwXwX9XrXrXrX9XeXqX9X9XrXrXrX",
"iXiXrX9X9XrXiXiX9X9X9XiXiXrX9X9XrXiXiX9X9X9XyXK.x e * % % j.9X9X9XiXiXiXrXj.i I z z &XiXrX9X9XrXiXiX9X9X9XiXiXiXiXiX9X9X9XuXiXiX",
"iXiXrX9X9XrXiXiX9X9X9XiXiXrX9X9XrXiXiX9X9X9XiXrX&XY.^ p p .XrX9X9XiXiXiX9XW.K W S z.uXiXrX9X9XrXiXiX9X9X9XiXiXrXuXiX9X9X9XuXiXiX",
"9X9X9XrXrX9X9X9XrXrXrX9X9XqXrXrX9X9X9XrXrXrX9X9XrXiX9X2X2X5XrXrXrX9X9X9XrXeX4X2X2X9XrX9XeXrXrX9X9X9XrXrXrX9X9XeXrXwXrXrXrX9X9X9X",
"9X9X9XiXiX9X9X9XuXiXrX9X9X9XiXiX9X9X9XyXiXrX9X9X9XiXiXqX9X9XrXiXrX9X9X9XrXiXiX9X9X9XrX9XrXiXiX9X9X9XuXiXrX9X9X9XiXrXrXiXiX9X9X9X",
"9X9X9XiXiX9X9X9XrXiXrX9X9XwXiXiX9X9X9XrXiXrX9X9X9XiXuX9X9X9XrXiXrX9X9X9XrXiXrX9X9X9XrXrXrXiXyX9X9X9XrXiXrX9X9X9XiXrXrXyXyX9X9X9X",
"iXiXrX9X9XrXiXrX9X9X9XuXiXrX9X9XrXiXrX9X9X9XyXiXrX9X9XrXuXrX9X9X9XrXuXrX9X9X9XrXiXrX9X9X9X9X9XrXiXyX9X9X9XuXiXrX9X9XrXrX9XrXiXiX",
"iXiXrX9X9XrXiXiX9X9X9XiXiXrX9X9XrXiXiX9X9X9XiXiXrX9X9XrXiXiX9X9X9XiXiXiX9X9X9XuXiXrX9X9X9X9X9XrXiXiX9X9X9XiXiXrX9X9XrXiXrXrXiXiX",
"rXrXrX9X9XrXrXrX9X9X9XrXrXeX9X9XrXrXrX9X9X9XrXrXrX9X9XrXrXrX9X9X9XrXrXrX9X9X9XrXrXrX9X9X9X9X9XrXrXrX9X9X9XrXrXrX9X9XrXrXiXrXrXrX",
"9X9X9XiXiX9X9X9XrXiXrX9X9X9XiXiX9X9X9XrXiXrX9X9X9XiXiX9X9X9XrXiXyX9X9X9XrXiXiX9X9X9XwX9X9XyXiX9X9X9XrXiXrX9X9X9XiXiX9X9XrX9X9X9X",
"9X9X9XiXiX9X9X9XyXiXrX9X9X9XiXiX9X9X9XiXiXrX9X9X9XiXiX9X9X9XrXiXiX9X9X9XrXiXiX9X9X9X9X9X9XrXiX9X9X9XyXiXrX9X9X9XiXiX9X9X9X9X9X9X",
"9X9X9XrXrX9X9X9XrXrXrX9X9XeXrXrX9X9X9XrXrXrX9X9XeXrXrXeX9X9XrXrXrXrX9X9XeXrXrX9X9X9X9X9X9XrXrX9X9X9XrXrXrX9X9XqXrXrX9X9XrX9X9X9X"
};
