/* XPM */
static char *_00449ba95bb4779ac19b6d90f8873d1VYMpPVjI0JhgkhsA[] = {
/* columns rows colors chars-per-pixel */
"64 64 3 1 ",
"  c #464646",
". c #A8E61D",
"X c #F5E49C",
/* pixels */
" ............ ..................................................",
" ............ .........                                         ",
" ............ ......... XXXXXXXXXXXXXXXXXXXXXXXXXXXXXXXXXXXXXXXX",
" ............ ......... XXXXXXXXXXXXXXXXXXXXXXXXXXXXXXXXXXXXXXXX",
" ............                       XXXXXXXXXXXXXXXXXXXXXXXXXXXX",
" ............ ......... ........... XXXXXXXXXXXXXXXXXXXXXXXXXXXX",
" ............ ......... ........... XXXXXXXXXXXXXXXXXXXXXXXXXXXX",
" ............ ......... ........... XXXXXXXXXXXXXXXXXXXXXXXXXXXX",
" ............ ......... ........... XXXXXXXXXXXXXXXXXXXXXXXXXXXX",
" ............ ......... ........... XXXXXXXXXXXXXXXXXXXXXXXXXXXX",
" ............ ......... ........... XXXXXXXXXXXXXXXXXXXXXXXXXXXX",
" ............ ......... ........... XXXXXXXXXXXXXXXXXXXXXXXXXXXX",
" ............ ......... ........... XXXXXXXXXXXXXXXXXXXXXXXXXXXX",
"              ......... ........... XXXXXXXXXXXXXXXXXXXXXXXXXXXX",
".... .................. ........... XXXXXXXXXXXXXXXXXXXXXXXXXXXX",
".... .................. ........... XXXXXXXXXXXXXXXXXXXXXXXXXXXX",
".... .................. ........... XXXXXXXXXXXXXXXXXXXXXXXXXXXX",
".... .................. ........... XXXXXXXXXXXXXXXXXXXXXXXXXXXX",
".... .................. ........... XXXXXXXXXXXXXXXXXXXXXXXXXXXX",
".... .................. ........... XXXXXXXXXXXXXXXXXXXXXXXXXXXX",
".... ..................                                   XXXXXX",
".... .................. ........... ..................... XXXXXX",
".... .................. ........... ..................... XXXXXX",
".... .................. ........... ..................... XXXXXX",
"                                                ......... XXXXXX",
" XXX.                   ........... ........... ......... XXXXXX",
" XXX.                   ........... ........... ......... XXXXXX",
" XXX...................             ........... ......... XXXXXX",
" XXXXXXXXXXXXXXXXXXXXXX ....................... ......... XXXXXX",
" XXXXXXXXXXXXXXXXXXXXXX                                         ",
" XXXXXXXXXXXXXXXXXXXXXX XXXXXXXXXXXXXXXXXXXXXXX XXXXXXXXX ......",
" XXXXXXXXXXXXXXXXXXXXXX XXXXXXXXXXXXXXXXXXXXXXX XXXXXXXXX ......",
" XXXXXXXXXXXXXXXXXXXXXX XXXXXXXXXXXXXXXXXXXXXXX XXXXXXXXX ......",
" XXXXXXXXXXXXXXXXXXXXXX XXXXXXXXXXXXXXXXXXXXXXX XXXXXXXXX ......",
" XXXXXXXXXXXXXXXXXXXXXX XXXXXXXXXXXXXXXXXXXXXXX XXXXXXXXX ......",
" XXXXXXXXXXXXXXXXXXXXXX XXXXXXXXXXXXXXXXXXXXXXX XXXXXXXXX ......",
" XXXXXXXXXXXXXXXXXXXXXX XXXXXXXXXXXXXXXXXXXXXXX XXXXXXXXX ......",
" XX                                      XXXXXX XXXXXXXXX ......",
" XX ................... ................ XXXXXX XXXXXXXXX ......",
" XX ................... ................ XXXXXX XXXXXXXXX ......",
" XX ................... ................ XXXXXX XXXXXXXXX ......",
" XX ................... ................ XXXXXX XXXXXXXXX ......",
" XX ................... ............                            ",
" XX ................... ............            XXXXXXXXX XXXXX ",
" XX ................... ............            XXXXXXXXX XXXXX ",
" XX ................... ............            XXXXXXXXX XXXXX ",
" XX ................... ............            XXXXXXXXX XXXXX ",
"                                                XXXXXXXXX XXXXX ",
"    XXXXXXXXXXXXXXXXXXX XXXXXXXXXXXX     XXXXXXXXXXXXXXXX XXXXX ",
"    XXXXXXXXXXXXXXXXXXX XXXXXXXXXXXX     XXXXXXXXXXXXXXXX XXXXX ",
"    XXXXXXXXXXXXXXXXXXX XXXXXXXXXXXX     XXXXXXXXXXXXXXXX XXXXX ",
"    XXXXXXXXXXXXXXXXXXX XXXXXXXXXXXX     XXXXXXXXXXXXXXXX XXXXX ",
"    XXXXXXXXXXXXXXXXXXX XXXXXXXXXXXX     XXXXXXXXXXXXXXXX XXXXX ",
"    XXXXXXXXXXXXXXXXXXX XXXXXXXXXXXX     XXXXXXXXXXXXXXXX XXXXX ",
"    XXXXXXXXXXXXXXXXXXX                                   XXXXX ",
"    XXXXXXXXXXXXXXXXXXXXXXXXXXXXXXXX     XXXXXXXXXXXXXXXXXXXXXX ",
"    XXXXXXXXXXXXXXXXXXXXXXXXXXXXXXXX     XXXXXXXXXXXXXXXXXXXXXX ",
"    XXXXXXXXXXXXXXXXXXXXXXXXXXXXXXXX     XXXXXXXXXXXXXXXXXXXXXX ",
"    XXXXXXXXXXXXXXXXXXXXXXXXXXXXXXXX     XXXXXXXXXXXXXXXXXXXXXX ",
"    XXXXXXXXXXXXXXXXXXXXXXXXXXXXXXXX     XXXXXXXXXXXXXXXXXXXXXX ",
"    XXXXXXXXXXXXXXXXXXXXXXXXXXXXXXXX     XXXXXXXXXXXXXXXXXXXXXX ",
"    XXXXXXXXXXXXXXXXXXXXXXXXXXXXXXXX     XXXXXXXXXXXXXXXXXXXXXX ",
"                                         XXXXXXXXXXXXXXXXXXXXXX ",
"                                                                "
};
