/* XPM */
static char *a4d9f608a2a04b58fcfc338ede6721caokKcN1Cl7ZsVpkQN[] = {
/* columns rows colors chars-per-pixel */
"64 64 2 1 ",
"  c #464646",
". c #B4B4B4",
/* pixels */
"............................. ................... ..............",
"......... ................... ................... ..............",
"......... ................... ................... ..............",
".........  ................. .................... ..............",
".......... ................. .................... ..............",
".......... ................. .................... ..............",
".......... ................ ..................... ..............",
".......... ................ ..................... ..............",
".......... ...............  ..................... ..............",
".......... ............... ...................... ..............",
".......... ............... ...................... ..............",
".......... ............... ...................... ............. ",
".......... ............... ...................... ..           .",
".......... ............... .................        ............",
".......... ............... .....            ..... ..............",
".......                         ................. ..............",
"       ... ............... ...................... ..............",
".......... ............... ...................... ..............",
".......... ............... ....................... .............",
".......... ................ ...................... .............",
".......... ................ ...................... .............",
".......... ................ ...................... .............",
".......... ................. ..................... .............",
".......... ................. ..................... .............",
".......... ................. ..................... .............",
".......... ................. ..................... .............",
".......... .................. ..................... ............",
".......... .................. ..................... ............",
".......... .................. ..................... ............",
".......... .................. ..................... ............",
".......... .................. ..................... ............",
"........                  ... ..................... ............",
"....    .. ...............       .................. ............",
"..   ..... ................... ..         .......... ...........",
".......... ................... ...........           ...........",
".......... ................... .....................            ",
".......... ................... ..................... ...........",
".......... ................... ..................... ...........",
".......... ................... ..................... ...........",
".......... .................... .................... ...........",
".......... .................... .................... ...........",
".......... .................... ...................  ...........",
".......... .................... ................... ............",
".......... .................... ................... ............",
".......... ..................... .................  ............",
".......... ..................... ................. .............",
".......... ..................... ................. .............",
".......... ..................... ................. .............",
".......... ...............               ......... .............",
".......... ..........     ...... ........          .............",
".......... .....     ........... .................     .........",
".......... .    ................ ................. ....      ...",
".......     .................... ..... ........... ..........   ",
"....   ... ..................... .... ............ .............",
"..  ...... ..................... .... ............ .............",
".. ....... ..................... ..  ............. .............",
".......... ..................... . ............... .............",
".......... ..................... . ............... .............",
"..........  ....................  ................. ............",
"........... ....................  ................. ............",
"...........  ...................................... ............",
"...........  ...................................... ............",
"................................................... ............",
"................................................... ............"
};
