/* XPM */
static char *e6fdc9eb3b23415ca6b49b068e7eb1c4YXjhkG8rso0BInHC[] = {
/* columns rows colors chars-per-pixel */
"64 64 2 1 ",
"  c #9C5A3C",
". c #E5AA7A",
/* pixels */
"                                                    .           ",
"                                                   ...          ",
"                                     ..            . .          ",
"                                      .            . ..         ",
"     ................                ..            .  .         ",
"                     ........        .             .   .        ",
"                             ..     .              .    .       ",
".....                          ..  .               .    .       ",
"    .                            ...               .     .      ",
"   ..                           .                  .      .     ",
"  ..                           .                           .    ",
"  .                           .                             .   ",
" .                         ...                              ..  ",
" .                       ..                                  .  ",
" .                     ..                                       ",
" ..                  ..                                         ",
"  .                ..                         .                .",
"  ..              .                          ..                .",
"   ..            .                          ..               .. ",
"    ..          .                           ...            ..   ",
"     ..         .                              ...        ..    ",
"       .        .                  ........       .       .     ",
"       ..       .                ...      ..       .     ..     ",
"        .       ..             ..          .        .    .      ",
"        .        .            ..           .        ..   .      ",
"        .        .           .             .         .   .      ",
"                 ..          .             .         .          ",
"                  .         .              .         .    .     ",
"                  .        .               .         .    ..    ",
"                  .        .        ..     .         .     .    ",
"                 .        .        .       . ..      .      .   ",
"                 .       .        .        ....      .      ..  ",
"                 .       .        .         .        .       .. ",
"                .        .       .                    .       . ",
"                .       .        .                    .       ..",
"                .       .        .                    .        .",
"               .        .        ..                   .        .",
"               .        .         .                   .        .",
"              ..       .   ..     .                    .       .",
"   ..        .         ....       .                     .      .",
"  ..         .         ..        ..                     .      .",
"..          .                    .                      .      .",
"           .                    ..                       .     .",
"          ..                                             .     .",
"          .                                  ...          .    .",
"         ..                                ... .           .   .",
"         .                             ....                .   .",
"      .........                       ..                    .  .",
"     .  .      ......                 .                     .   ",
"    .   .            ...              .                      .. ",
"   ..   .                             .                        .",
"   .    .                             .                         ",
"  ..   ..                             .                         ",
"  .    .                              .                         ",
" ..   ..                              .                         ",
"      .                               .                         ",
"      .            .......            .                         ",
"      .         ...       ..          .                         ",
"              ..           ..         .                         ",
"           ...               .        .                         ",
"          .                   ..      .                         ",
"         .                      .             ....            . ",
"        .                        ..          ..   ....        ..",
"       ..                          ....   ...         .........."
};
