/* XPM */
static char *_12ed3fa83544f0ffc5bcd02d67ff7e22AjM2HM25nCfBvZe[] = {
/* columns rows colors chars-per-pixel */
"64 64 10 1 ",
"  c None",
". c black",
"X c #383738",
"o c #464646",
"O c gray30",
"+ c gray38",
"@ c #AD5F0A",
"# c #FF931C",
"$ c #C0C0C0",
"% c white",
/* pixels */
"                                                                ",
"                                                                ",
"                         ..             ..                      ",
"                       ..$$.           .$$..                    ",
"                    ...$$$...............$$$...                 ",
"                    .$$$$$$.           .$$$$$$.                 ",
"                   ..$$$$$$$...........$$$$$$$..                ",
"                   .$$$$$$$$.  .....  .$$$$$$$$.                ",
"                  .$$$$$$$$$.. ..... ..$$$$$$$$$.               ",
"                  .$$$$++$$.  .  .  .  .$$$++$$$.               ",
"                  .$$$$++$..  .......  ..$$++$$$.               ",
"                  .$$$$++.     .$.$.     .+++$$$.               ",
"                   .$$$$.+     .++++     +++$$$.                ",
"                    .... ++   ++...+++  ++ ....                 ",
"                          ++++ .$.$. ++++                       ",
"                               .$.$.                            ",
"                               .....                            ",
"                               .$.$.                            ",
"                              ..$.$..                           ",
"                             .........                          ",
"                             ..##.##..                          ",
"                             ..##.##..                          ",
"                             ..##.##..                          ",
"                   ............................                 ",
"                  ..+++++++++.+++++++.++++++++..                ",
"                  .++++++++++.+++++++.+++++++++.                ",
"         ................................................       ",
"         ..#.%%%.#.+.++++++++.+++++++.+++++++.+.#.%% .#..       ",
"         .##.%%%.#.+.++++++++.+.....+.+++++++.+.#.%%%.##.       ",
"         .##.....#.+.++++++++.+.+++.+.+++++++.+.#.....#@.       ",
"         .####.###.+.++++++++.+.+++.+.+++++++.+..##.##@@.       ",
"         .###....#.+.++++++++.+.+++.+.+++++++.+.##...#@@.       ",
"         ....#.#..................................#.#....       ",
"         .####.###.############################.###.####.       ",
"         ...##.@@@.###########################@.###.##...       ",
"         ..........#.#..##.##@.@@@.@##.###..#.@..........       ",
"                  .#.#..##.#@@.@#@.@##.###..#.@.                ",
"                  .#....##.#@@.@##.###.###....@.                ",
"    ..........    .#....##.##@.@##.###.###....@.    ..........  ",
"    ..OXOOOX..    .##..###.#@@.@##.###.####..#@.    ..OOOOOO..  ",
"    .OOXOOOXO.    .##..###.#@#.###.###.####..##.    .OOOOOOOO.  ",
"    .OOOOOOOO.    .##..###.@@#.###.###.####..##.    .OOOOOOOO.  ",
"    ..........    .@#..###.###.###.###.####..##.    ..........  ",
"     .oooooo.     .@#..###.###.###.###.####..##.     .oooooo.   ",
"    ..........    .@#..###.###.###.###.####..##.    ..........  ",
"    .OOOOOOOO......@....##.###.###.###.###....#......OOOOOOOO.  ",
"    .OOOOOOOO......#....##.###.###.###.###....#......OOOOOOOO.  ",
"    ...............#..#.##.###.###.###.@##.#..#...............  ",
"     .oooooo.......@..#.##.###.###.#@@.@##.#..#.......oooooo.   ",
"    ............  .@@######@@@#####@@@@########.  ............  ",
"    .OOOOOOOO...  .@@@##@@@@@@@@###@@@@########.  ...OOOOOOOO.  ",
"    .OOOOOOOO...  ..............................  ...OOOOOOOO.  ",
"    ..........    ......                  ......    ..........  ",
"     .oooooo.       .....                .....       .oooooo.   ",
"    ..........       ....                ....     ............  ",
"    .OOOOOOOO....   ......              ......    ...OOOOOOOO.  ",
"    .OOOOOOOO.............              .............OOOOOOOO.  ",
"    ......................              ........... ..........  ",
"     .oooooo.  ..........                ..........  .oooooo.   ",
"    ..........  ........                  ........  ..........  ",
"    .OOOOOOOO.                                      .OOOOOOOO.  ",
"    .OOOOOOOO.                                      .OOOOOOOO.  ",
"    ..OOOOOO..                                      ..OOOOOO..  ",
"    ..........                                      ..........  "
};
