/* XPM */
static char *walle_front_64x64_xpm[] = {
"64 64 19 1",
"A c #000000",
"B c #232323",
"C c #454545",
"D c #585858",
"E c #676767",
"F c #757575",
"G c #868686",
"H c #959595",
"I c #A2A2A2",
"J c #ABABAB",
"K c #B3B3B3",
"L c #BABABA",
"M c #C0C0C0",
"N c #C5C5C5",
"O c #CACACA",
"P c #CDCDCD",
"Q c #D3D3D3",
"R c #DBDBDB",
"S c #FFFFFF",
"SSSSSSSSSSSSSSSSSSSSSSSSSSSSSSSSSSSSSSSSSSSSSSSSSSSSSSSSSSSSSSSS",
"SSSSSSSSSSSSSSSSSSSSSSSSSSSSSSSSSSSSSSSSSSSSSSSSSSSSSSSSSSSSSSSS",
"SSSSSSSSSSSSSSSSSSSSSSSSSSSSSSSSSSSSSSSSSSSSSSSSSSSSSSSSSSSSSSSS",
"SSSSSSSSSSSSSSSSSSSSSSSSSSSSSSSSSSSSSSSSSSSSSSSSSSSSSSSSSSSSSSSS",
"SSSSSSSSSSSSSSSSSSSSSSSSSSSSSSSSSSSSSSSSSSSSSSSSSSSSSSSSSSSSSSSS",
"SSSSSSSSSSSSSSSSSSSSSSSSSSSSSSSSSSSSSSSSSSSSSSSSSSSSSSSSSSSSSSSS",
"SSSSSSSSSSSSSSSSSSSSSSSSSSSSSSSSSSSSSSSSSSSSSSSSSSSSSSSSSSSSSSSS",
"SSSSSSSSSSSSSSSSSSSSSSSSSSSSSSSSSSSSSSSSSSSSSSSSSSSSSSSSSSSSSSSS",
"SSSSSSSSSSSSSSSSSSSSSSSSSSSSSSSSSSSSSSSSSSSSSSSSSSSSSSSSSSSSSSSS",
"SSSSSSSSSSSSSSSSSSSSSSSSSSSSSSMSKSSSRKSSSSSSSSSSSSSSSSSSSSSSSSSS",
"SSSSSSSSSSSSSSSSSSSSSSSSSSKSRSSLSSMMSSNSOPSSSSSSSSSSSSSSSSSSSSSS",
"SSSSSSSSSSSSSSSSSSSSSSSSSSSSSSSSSSSSGSPSLSSJSSSSSSSSSSSSSSSSSSSS",
"SSSSSSSSSSSSSSSSSSSSSSSSSSSSORSSSSSNKIMISNSSJSSSSSSSSSSSSSSSSSSS",
"SSSSSSSSSSSSSSSSSSSSSSRSSSSLSSQSSSLLSMSSKQSSSSSSSSSSSSSSSSSSSSSS",
"SSSSSSSSSSSSSSSSSSSSSSMSSSSSKHSSNSJKRMPSSSSSSSSSSSSSSSSSSSSSSSSS",
"SSSSSSSSSSSSSSSSSSSSSSNSSSSISSJSLSAJKSSSOSSSSSSSSSSSSSSSSSSSSSSS",
"SSSSSSSSSSSSSSSSSSSSSSSSSSSSSSSSSSSALSSSSSSSISSSSSSSSSSSSSSSSSSS",
"SSSSSSSSSSSSSSSSSSSSSSSSRSSSSHSASSSSSSPSSSSMSSSSSSSSSSSSSSSSSSSS",
"SSSSSSSSSSSSSSSSSSSSSSSSSSQSSCDASSSSCCJSQOSSSSSSSSSSSSSSSSSSSSSS",
"SSSSSSSSSSSSSSSSSSSSSSSSSSSSSSSASSSSSSSSSSSSSSSSSSSSSSSSSSSSSSSS",
"SSSSSSSSSSSSSSSSSSSSSSSSSSSSSSSASSSASSSSSSSSSSSSSSSSSSSSSSSSSSSS",
"SSSSSSSSSSSSSSSSSSSSSSSSSSSSSSSASSSASSSSSSSSSSSSSSSSSSSSSSSSSSSS",
"SSSSSSSSSSSSSSSSSSSSSSSSSSSSSSSASSSSSSSSSSSSSSSSSSSSSSSSSSSSSSSS",
"SSSSSSSSSSSSSSSSSSSSSSSSSSSSSSSASSSSSSSSSSSSSSSSSSSSSSSSSSSSSSSS",
"SSSSSSSSSSSSSSSSSSSSSSSSSSSSSSSASSNQSSSSSSSSSSSSSSSSSSSSSSSSSSSS",
"SSSSSSSSSSSSSSSSSSSSSSSSSSSSSSSMSSSSSSSSSSSSSSSSSSSSSSSSSSSSSSSS",
"SSSSSSSSSSSSSSSSSSSSSSSSSSSSSSSSSSSSSSSSSSSSSSSSSSSSSSSSSSSSSSSS",
"SSSSSSSSSSSSSSSSSSSQSSSSSSAAAAAAAAAAAAAAASSSSSSSSSSSSSSSSSSSSSSS",
"SSSSSSSSSSSSSSSSSSSSSSSSSAAAAAAAAAAAAAAAASASSSSSSSSSSSSSSSSSSSSS",
"SSSSSSSSSSSAAAAAASSSSSSSSAAAAAAAISSSSSSSSSASSSSSSSAAAAAASSSSSSSS",
"SSSSSSSSSSSASSSSSSAAAAAAAAAAAAAAASSSSSSSSSAAAAAAASASSSSSSSSSSSSS",
"SSSSSSSSSASSAASSSSSSSSSSSAAAAAAAASSSSSSSSSASSSSSASSASSSSSSSSSSSS",
"SSSSSSSSSASSSSASSSSSSSSSSAAAAAAAHSSSSSSSSSASSSSSASSSSASSSSSSSSSS",
"SSSSSSSSSASSSSASSSSSSSSSSAACCSSSSSSSSSSSSSASSSSSASSSSASSSSSSSSSS",
"SSSSSSSSSASSSSASSSSSSSSSSAACJSSSSSSSSSSSSSASSSSSASSSSASSSSSSSSSS",
"SSSSSSSSSASSSSASSSRSSSSSSAASSSSSSSSSSSSRSSASSSSSASSSSASSSSSSSSSS",
"SSSSSSSSSASSSSASSSSSSSSSSSSSSSSSSSSSSSSSSSSSSSSSASSSSASSSSSSSSSS",
"SSSSSSSSSASSSSASSSSSSSSSSSSSSSSSSSSSSSSSSSSSSSSSASSSSASSSSSSSSSS",
"SSSSSSSSSASSSSASSSSSSSSSSSSSSSSSSSSSSSSSSSSSSSSSASSSSASSSSSSSSSS",
"SSSSSSSSSAAAAAAAAAASSSSSSSSSSSSSSSSSSSSSSSSSSSSSAAAAAAAAAASSSSSS",
"SSSSSAASAAAAAASAASSSSSSSSSSSSSSSSSSSSSSSSSSSSSSSPSSAAAAASAAAAASS",
"SSSSSSPSOLSSPSSMSSSSSSSSSSSSSSSSSSSSSSSSSSSSSSSSSSANSLSKSPSLSNSS",
"SSSSSSSSSRSSSNSSSSNSSSSSSSSSSSSSSSSSSSSSSSSSSSSSSSASSSJSSSJSSSSS",
"SSSSSAQSSSKKQSSSASRSSSSSSSSSSSSSSSSSSSSSSSSSSSSSSSASMSSSSMSSOMSS",
"SSSSSSSSSSSSSSSSSSRSSSSSSSSSSSSSSSSSSSSSSSSSSSSSSSASSSRSSSISSSSS",
"SSSSSAAAAAAAAAAAASSSSSSSSSSSSSSSSSSSSSSSSSSSSSSSSSAAAAAAAAAAAASS",
"SSSSSSSSSSSSSSSSSSSSSSSSSSSSSSSSSSSSSSSSSSSHFESSSLASSSLSSSSASSSS",
"SSSSSAASSSAASSSLASSSSSSSSSSSASAAAABSASSASHSDROSSSOAASSSASASSPASS",
"SSSSSSSSOMSSLRSSSSSSSSSSSSSSSSSSSSSSSSSSSSSDFESSSSASSMSSSSSPSSSS",
"SSSSSSSSSSSSSSSSSSSSSSSSSSSSSSSSSSSSSSSSSSSSSSSSSSASSSSSSSSASSSS",
"SSSSSSSSSPSSOSSSSSSSSSSSSSSSSSSSSSSSSSSSSSSSSSSSSIASSLLSSSSNSSSS",
"SSSSSSSSSSSSSSSSSSSSSSSSSSSSSSSSSSSSSSSSSSSSSSSSRSASSSSSSSSASSSS",
"SSSSSSSSLRSSSKSRSSSLSNSSSSSSSSSSSSSSSSSSSSSMSSSSSSASPNRSSOSARSSS",
"SSSSSSSSSSSSSSSSSSSSSSSSSSSSSSSSSSSSSSSSSSSSSSSSSSASSSSSSSSASSSS",
"SSSSSSLSQKSSSQSOSSSSSSSSMKASSSSSSSSSSSSSSSLISSSSRSASSPSOSSSAOSSS",
"SSSSSSSSSSSSSSSSSAAAAASNSRASSSSSSSSSSSSSSSSSSSAAAAASSSSSSSSASSSS",
"SSSSSSSSRSSSPRSSSSSSSSSNSSASSSSSSSSSSSSSSSSSSSSNSKASLSJSSLMASSSS",
"SSSSSSSSSSSSSSSSSSSSSSSSSSSSSSSSSSSSSSSSSSSSSSSSSSASSSSSSSSASSSS",
"SSSSSSSSSSSSSSSSSSSSSSSSSSSSSSSSSSSSSSSSSSSSSSSSSRASSSSSSSSSSSSS",
"SSSSSSSSSSSSSPSLSSSSSSSSSSSSSSSSSSSSSSSSSSSSSSSSSSASRSJSSMRANSSS",
"SSSSSSSSSSSSSSSSSSSSSSSSSSSSSSSSSSSSSSSSSSSSSSSSSSSSSSSSSSSASSSS",
"SSSSSSSSSSSSSSSSSSSSSSSSSSSSSSSSSSSSSSSSSSSSSSSSSSASSSSSSSSSSSSS",
"SSSSSSRSMPSSRRSNSSSSSSSSSSSSSSSSSSSSSSSSSSSSSSSSSSAMSSSKSSSASSSS",
"SSSSSSSSSSSSSSSSSSSSSSSSSSSSSSSSSSSSSSSSSSSSSSSSSSASSSSSSSSASSSS",
};