/* XPM */
static char *_f93b29cd30a4d46c002b9bf0049fade3xMX2HLQVqO11iyl[] = {
/* columns rows colors chars-per-pixel */
"64 64 11 1 ",
"  c None",
". c black",
"X c #383738",
"o c #464646",
"O c gray30",
"+ c gray38",
"@ c #AD5F0A",
"# c #FF931C",
"$ c #FFF200",
"% c #C0C0C0",
"& c white",
/* pixels */
"                                                                ",
"                                                                ",
"                         ..             ..                      ",
"                       ..%%.           .%%..                    ",
"                    ...%%%...............%%%...                 ",
"                    .%%%%%%.           .%%%%%%.                 ",
"                   ..%%%.%%%...........%%%.%%%..                ",
"                   .%%%.&.%%.  .....  .%%.&.%%%.                ",
"                  .%%%.&.%%%.. ..... ..%%%.&.%%%.               ",
"                  .%%%%.%%%.  .  .  .  .%%%.%%%%.               ",
"                  .%%%%%%%..  .......  ..%%%%%%%.               ",
"                  .%%%%%%.     .%.%.     .%%%%%%.               ",
"                   .%%%%.      .%.%.      .%%%%.                ",
"                    ....       .....       ....                 ",
"                               .%.%.                            ",
"                               .%.%.                            ",
"                               .....                            ",
"                               .%.%.                            ",
"                              ..%.%..                           ",
"                             .........                          ",
"                             ..##.##..                          ",
"                             ..##.##..                          ",
"                             ..##.##..                          ",
"                   ............................                 ",
"                  ..+++.+++++++++.+++++++..+++..                ",
"                  .++++.+++++++++..........++++.                ",
"         ..........++++.+......++..$$$$$...++++..........       ",
"         ..#.&&&.#......+.++++.++..$$$$$........#.&& .#..       ",
"         .##.&&&.#.++++.+......++..$$$$$...++++.#.&&&.##.       ",
"         .##.....#.++++.+.++++.++..$$$$$...++++.#.....#@.       ",
"         .####.###......+......++................##.##@@.       ",
"         .###....#.++++.+++++++++.+++++++..++++.##...#@@.       ",
"         ....#.#...++++....................++++...#.#....       ",
"         .####.###......##################......###.####.       ",
"         ...##.@@@.###########################@.###.##...       ",
"         ..........##########@@@@@@@##########@..........       ",
"                  .#########@@@@@@@@#########@@.                ",
"                  .#####..##@@@@..@@@###..##@@@.                ",
"    ..........    .#@@##..###@@@..######..###@@.    ..........  ",
"    ..OXOOOX..    .@@@##..##@@@@..######..###@@.    ..OOOOOO..  ",
"    .OOXOOOXO.    .@@@##..##@###..######..#####.    .OOOOOOOO.  ",
"    .OOOOOOOO.    .@@@##..#@@###..######..#####.    .OOOOOOOO.  ",
"    ..........    .@@@##..######..######..#####.    ..........  ",
"     .oooooo.     .@@###..######..######..#####.     .oooooo.   ",
"    ..........    .@@###..######..######..#####.    ..........  ",
"    .OOOOOOOO......@####..######..######..#####......OOOOOOOO.  ",
"    .OOOOOOOO......############################......OOOOOOOO.  ",
"    ...............###################@@.###..#...............  ",
"     .oooooo.......@################@@@@.#.##.#.......oooooo.   ",
"    ............  .@@######@@@#####@@@@#...#.##.  ............  ",
"    .OOOOOOOO...  .@@@##@@@@@@@@###@@@@###.#..#.  ...OOOOOOOO.  ",
"    .OOOOOOOO...  ..............................  ...OOOOOOOO.  ",
"    ..........    ......                  ......    ..........  ",
"     .oooooo.       .....                .....       .oooooo.   ",
"    ..........       ....                ....     ............  ",
"    .OOOOOOOO....   ......              ......    ...OOOOOOOO.  ",
"    .OOOOOOOO.............              .............OOOOOOOO.  ",
"    ......................              ........... ..........  ",
"     .oooooo.  ..........                ..........  .oooooo.   ",
"    ..........  ........                  ........  ..........  ",
"    .OOOOOOOO.                                      .OOOOOOOO.  ",
"    .OOOOOOOO.                                      .OOOOOOOO.  ",
"    ..OOOOOO..                                      ..OOOOOO..  ",
"    ..........                                      ..........  "
};
